<svg width="1802" height="430" viewBox="0 0 1802 430" fill="none" xmlns="http://www.w3.org/2000/svg">
<g clip-path="url(#clip0_50_50)">
<path d="M0 117.5V422.31C0 423.69 1.12 424.81 2.5 424.81H166.27C167.65 424.81 168.77 423.69 168.77 422.31V117.5C168.77 116.12 167.65 115 166.27 115H2.51C1.12 115 0 116.12 0 117.5Z" fill="white"/>
<path d="M166.27 0H2.5C1.12 0 0 1.12 0 2.5V92.5C0 93.88 1.12 95 2.5 95H166.27C167.65 95 168.77 93.88 168.77 92.5V2.5C168.77 1.12 167.65 0 166.27 0Z" fill="#FFDE17"/>
<path d="M195.27 0H648.34C649.72 0 650.84 1.12 650.84 2.5V87.73C650.84 89.11 649.72 90.23 648.34 90.23H364.03C362.65 90.23 361.53 91.35 361.53 92.73V164.69C361.53 166.07 362.65 167.19 364.03 167.19H624.85C626.23 167.19 627.35 168.31 627.35 169.69V255.13C627.35 256.51 626.23 257.63 624.85 257.63H364.03C362.65 257.63 361.53 258.75 361.53 260.13V332.09C361.53 333.47 362.65 334.59 364.03 334.59H647.4C648.78 334.59 649.9 335.71 649.9 337.09V422.32C649.9 423.7 648.78 424.82 647.4 424.82H195.27C193.89 424.82 192.77 423.7 192.77 422.32V2.5C192.77 1.12 193.89 0 195.27 0Z" fill="white"/>
<path d="M1059.32 115C1057.94 115 1056.82 116.12 1056.82 117.5V263.02C1056.82 303.88 1012.68 333.13 950.06 333.13C887.44 333.13 843.6 303.88 843.6 263.02V117.5C843.6 116.12 842.48 115 841.1 115H677.34C675.96 115 674.84 116.12 674.84 117.5V272.56C674.84 369.22 785.05 430 950.06 430C1115.07 430 1225.59 369.22 1225.59 272.56V117.5C1225.59 116.12 1224.47 115 1223.09 115H1059.32Z" fill="white"/>
<path d="M1223.09 0H1059.32C1057.94 0 1056.82 1.11929 1056.82 2.5V92.5C1056.82 93.8807 1057.94 95 1059.32 95H1223.09C1224.47 95 1225.59 93.8807 1225.59 92.5V2.5C1225.59 1.11929 1224.47 0 1223.09 0Z" fill="#FFDE17"/>
<path d="M841.1 0H677.34C675.959 0 674.84 1.11929 674.84 2.5V92.5C674.84 93.8807 675.959 95 677.34 95H841.1C842.481 95 843.6 93.8807 843.6 92.5V2.5C843.6 1.11929 842.481 0 841.1 0Z" fill="#FFDE17"/>
<path d="M1799.39 424.82H1661.69C1661.04 424.82 1660.42 424.57 1659.96 424.12L1423.14 196.31C1422.67 195.86 1422.05 195.61 1421.41 195.61H1420.85C1419.47 195.61 1418.35 196.73 1418.35 198.11V422.32C1418.35 423.7 1417.23 424.82 1415.85 424.82H1252.09C1250.71 424.82 1249.59 423.7 1249.59 422.32V2.5C1249.59 1.12 1250.71 0 1252.09 0H1392.6C1393.25 0 1393.88 0.25 1394.35 0.71L1627.41 227.88C1627.88 228.34 1628.5 228.59 1629.16 228.59H1630.65C1632.03 228.59 1633.15 227.47 1633.15 226.09V2.5C1633.15 1.12 1634.27 0 1635.65 0H1799.41C1800.79 0 1801.91 1.12 1801.91 2.5V422.32C1801.91 423.7 1800.79 424.82 1799.41 424.82H1799.39Z" fill="white"/>
</g>
<defs>
<clipPath id="clip0_50_50">
<rect width="1801.91" height="430" fill="white"/>
</clipPath>
</defs>
</svg>
