<svg width="60" height="60" viewBox="0 0 60 60" fill="none" xmlns="http://www.w3.org/2000/svg">
<rect width="60" height="60" rx="30" fill="white"/>
<g clip-path="url(#clip0_204_15)">
<path d="M18.1364 18H42.8636C42.9389 18 43 18.0606 43 18.1354V22.7499C43 22.8246 42.9389 22.8852 42.8636 22.8852H27.3468C27.2715 22.8852 27.2104 22.9459 27.2104 23.0206V26.9166C27.2104 26.9913 27.2715 27.052 27.3468 27.052H41.5815C41.6569 27.052 41.718 27.1126 41.718 27.1873V31.8132C41.718 31.8879 41.6569 31.9486 41.5815 31.9486H27.3468C27.2715 31.9486 27.2104 32.0092 27.2104 32.0839V35.98C27.2104 36.0547 27.2715 36.1153 27.3468 36.1153H42.8123C42.8876 36.1153 42.9487 36.176 42.9487 36.2507V40.8652C42.9487 40.9399 42.8876 41.0005 42.8123 41.0005H18.1364C18.0611 41.0005 18 40.9399 18 40.8652V18.1354C18 18.0606 18.0611 18 18.1364 18Z" fill="black"/>
</g>
<defs>
<clipPath id="clip0_204_15">
<rect width="25" height="23" fill="white" transform="translate(18 18)"/>
</clipPath>
</defs>
</svg>
