<svg width="60" height="60" viewBox="0 0 60 60" fill="none" xmlns="http://www.w3.org/2000/svg">
<rect width="60" height="60" rx="30" fill="white"/>
<g clip-path="url(#clip0_204_2)">
<path d="M36.245 25.1511C36.1723 25.1511 36.1133 25.211 36.1133 25.2848V33.0685C36.1133 35.254 33.7891 36.8185 30.4918 36.8185C27.1946 36.8185 24.8861 35.254 24.8861 33.0685V25.2848C24.8861 25.211 24.8272 25.1511 24.7545 25.1511H16.1316C16.059 25.1511 16 25.211 16 25.2848V33.5788C16 38.7489 21.8032 42 30.4918 42C39.1805 42 45 38.7489 45 33.5788V25.2848C45 25.211 44.941 25.1511 44.8684 25.1511H36.245Z" fill="black"/>
<path d="M44.8684 19H36.245C36.1723 19 36.1133 19.0599 36.1133 19.1337V23.9477C36.1133 24.0215 36.1723 24.0814 36.245 24.0814H44.8684C44.9411 24.0814 45 24.0215 45 23.9477V19.1337C45 19.0599 44.9411 19 44.8684 19Z" fill="black"/>
<path d="M24.7545 19H16.1316C16.0589 19 16 19.0599 16 19.1337V23.9477C16 24.0215 16.0589 24.0814 16.1316 24.0814H24.7545C24.8272 24.0814 24.8861 24.0215 24.8861 23.9477V19.1337C24.8861 19.0599 24.8272 19 24.7545 19Z" fill="black"/>
</g>
<defs>
<clipPath id="clip0_204_2">
<rect width="29" height="23" fill="white" transform="translate(16 19)"/>
</clipPath>
</defs>
</svg>
