<svg width="60" height="60" viewBox="0 0 60 60" fill="none" xmlns="http://www.w3.org/2000/svg">
<rect width="60" height="60" rx="30" fill="white"/>
<g clip-path="url(#clip0_204_140)">
<path d="M44.8642 42H37.3847C37.3494 42 37.3157 41.9865 37.2907 41.9621L24.4273 29.628C24.4018 29.6037 24.3681 29.5901 24.3333 29.5901H24.3029C24.228 29.5901 24.1671 29.6508 24.1671 29.7255V41.8646C24.1671 41.9394 24.1063 42 24.0313 42H15.1358C15.0608 42 15 41.9394 15 41.8646V19.1354C15 19.0606 15.0608 19 15.1358 19H22.7679C22.8032 19 22.8374 19.0135 22.863 19.0384L35.5222 31.3378C35.5477 31.3628 35.5814 31.3763 35.6172 31.3763H35.6982C35.7731 31.3763 35.834 31.3156 35.834 31.2409V19.1354C35.834 19.0606 35.8948 19 35.9697 19H44.8647C44.9397 19 45.0005 19.0606 45.0005 19.1354V41.8646C45.0005 41.9394 44.9397 42 44.8647 42H44.8642Z" fill="black"/>
</g>
<defs>
<clipPath id="clip0_204_140">
<rect width="30" height="23" fill="white" transform="translate(15 19)"/>
</clipPath>
</defs>
</svg>
