<svg width="60" height="60" viewBox="0 0 60 60" fill="none" xmlns="http://www.w3.org/2000/svg">
<rect width="60" height="60" rx="30" fill="white"/>
<g clip-path="url(#clip0_204_47)">
<path d="M32.8963 18H26.1037C26.0465 18 26 18.0606 26 18.1354V23.0081C26 23.0828 26.0465 23.1435 26.1037 23.1435H32.8963C32.9535 23.1435 33 23.0828 33 23.0081V18.1354C33 18.0606 32.9535 18 32.8963 18Z" fill="black"/>
<path d="M26 24.2789V40.7819C26 40.8566 26.0465 40.9172 26.1037 40.9172H32.8963C32.9535 40.9172 33 40.8566 33 40.7819V24.2789C33 24.2042 32.9535 24.1436 32.8963 24.1436H26.1041C26.0465 24.1436 26 24.2042 26 24.2789Z" fill="black"/>
</g>
<defs>
<clipPath id="clip0_204_47">
<rect width="7" height="23" fill="white" transform="translate(26 18)"/>
</clipPath>
</defs>
</svg>
