<svg width="150" height="36" viewBox="0 0 150 36" fill="none" xmlns="http://www.w3.org/2000/svg">
<g clip-path="url(#clip0_256_558)">
<path d="M0 9.82946V35.3582C0 35.4677 0.0947368 35.5616 0.205263 35.5616H13.8474C13.9579 35.5616 14.0526 35.4677 14.0526 35.3582V9.82946C14.0526 9.71989 13.9579 9.62598 13.8474 9.62598H0.205263C0.0947368 9.62598 0 9.71989 0 9.82946Z" fill="#141414"/>
<path d="M13.8474 0H0.205263C0.0947368 0 0 0.093913 0 0.203478V7.74783C0 7.85739 0.0947368 7.9513 0.205263 7.9513H13.8474C13.9579 7.9513 14.0526 7.85739 14.0526 7.74783V0.203478C14.0684 0.093913 13.9737 0 13.8474 0Z" fill="#FFDE17"/>
<path d="M16.1842 0H53.9368C54.0474 0 54.1421 0.093913 54.1421 0.203478V7.34087C54.1421 7.45043 54.0474 7.54435 53.9368 7.54435H30.2526C30.1421 7.54435 30.0474 7.63826 30.0474 7.74783V13.7739C30.0474 13.8835 30.1421 13.9774 30.2526 13.9774H51.9789C52.0895 13.9774 52.1842 14.0713 52.1842 14.1809V21.3339C52.1842 21.4435 52.0895 21.5374 51.9789 21.5374H30.2526C30.1421 21.5374 30.0474 21.6313 30.0474 21.7409V27.767C30.0474 27.8765 30.1421 27.9704 30.2526 27.9704H53.8579C53.9684 27.9704 54.0632 28.0643 54.0632 28.1739V35.3113C54.0632 35.4209 53.9684 35.5148 53.8579 35.5148H16.1842C16.0737 35.5148 15.9789 35.4209 15.9789 35.3113V0.203478C15.9789 0.093913 16.0737 0 16.1842 0Z" fill="#141414"/>
<path d="M88.2632 9.62598C88.1527 9.62598 88.0579 9.71989 88.0579 9.82946V22.0068C88.0579 25.4347 84.379 27.8764 79.1684 27.8764C73.9579 27.8764 70.2948 25.4347 70.2948 22.0068V9.82946C70.2948 9.71989 70.2 9.62598 70.0895 9.62598H56.4474C56.3369 9.62598 56.2421 9.71989 56.2421 9.82946V22.8208C56.2421 30.9129 65.4316 35.9999 79.1684 35.9999C92.9053 35.9999 102.126 30.9129 102.126 22.8208V9.82946C102.126 9.71989 102.032 9.62598 101.921 9.62598H88.279H88.2632Z" fill="#141414"/>
<path d="M88.279 0H101.921C102.032 0 102.126 0.093913 102.126 0.203478V7.74783C102.126 7.85739 102.032 7.9513 101.921 7.9513H88.279C88.1685 7.9513 88.0737 7.85739 88.0737 7.74783V0.203478C88.0737 0.093913 88.1685 0 88.279 0Z" fill="#FFDE17"/>
<path d="M56.4474 0H70.0895C70.2 0 70.2948 0.093913 70.2948 0.203478V7.74783C70.2948 7.85739 70.2 7.9513 70.0895 7.9513H56.4474C56.3369 7.9513 56.2421 7.85739 56.2421 7.74783V0.203478C56.2421 0.093913 56.3369 0 56.4474 0Z" fill="#FFDE17"/>
<path d="M149.795 35.5617H138.316C138.316 35.5617 138.205 35.5461 138.174 35.4991L118.437 16.4191C118.437 16.4191 118.342 16.3565 118.295 16.3565H118.247C118.137 16.3565 118.042 16.4504 118.042 16.56V35.327C118.042 35.4365 117.947 35.5304 117.837 35.5304H104.195C104.084 35.5304 103.99 35.4365 103.99 35.327V0.203478C103.99 0.093913 104.084 0 104.195 0H115.895C115.895 0 116.005 0.0156522 116.037 0.0626087L135.458 19.08C135.458 19.08 135.553 19.1426 135.6 19.1426H135.726C135.837 19.1426 135.932 19.0487 135.932 18.9391V0.203478C135.932 0.093913 136.026 0 136.137 0H149.779C149.889 0 149.984 0.093913 149.984 0.203478V35.3583C149.984 35.4678 149.889 35.5617 149.779 35.5617H149.795Z" fill="#141414"/>
</g>
<defs>
<clipPath id="clip0_256_558">
<rect width="150" height="36" fill="white"/>
</clipPath>
</defs>
</svg>
