<svg width="95" height="23" viewBox="0 0 95 23" fill="none" xmlns="http://www.w3.org/2000/svg">
<g clip-path="url(#clip0_50_62)">
<path d="M0 6.28002V22.59C0 22.66 0.06 22.72 0.13 22.72H8.77C8.84 22.72 8.9 22.66 8.9 22.59V6.28002C8.9 6.21002 8.84 6.15002 8.77 6.15002H0.13C0.06 6.15002 0 6.21002 0 6.28002Z" fill="white"/>
<path d="M8.77 0H0.13C0.06 0 0 0.06 0 0.13V4.95C0 5.02 0.06 5.08 0.13 5.08H8.77C8.84 5.08 8.9 5.02 8.9 4.95V0.13C8.91 0.06 8.85 0 8.77 0Z" fill="white"/>
<path d="M10.25 0H34.16C34.23 0 34.29 0.06 34.29 0.13V4.69C34.29 4.76 34.23 4.82 34.16 4.82H19.16C19.09 4.82 19.03 4.88 19.03 4.95V8.8C19.03 8.87 19.09 8.93 19.16 8.93H32.92C32.99 8.93 33.05 8.99 33.05 9.06V13.63C33.05 13.7 32.99 13.76 32.92 13.76H19.16C19.09 13.76 19.03 13.82 19.03 13.89V17.74C19.03 17.81 19.09 17.87 19.16 17.87H34.11C34.18 17.87 34.24 17.93 34.24 18V22.56C34.24 22.63 34.18 22.69 34.11 22.69H10.25C10.18 22.69 10.12 22.63 10.12 22.56V0.13C10.12 0.06 10.18 0 10.25 0Z" fill="white"/>
<path d="M55.9 6.15002C55.83 6.15002 55.77 6.21002 55.77 6.28002V14.06C55.77 16.25 53.44 17.81 50.14 17.81C46.84 17.81 44.52 16.25 44.52 14.06V6.28002C44.52 6.21002 44.46 6.15002 44.39 6.15002H35.75C35.68 6.15002 35.62 6.21002 35.62 6.28002V14.58C35.62 19.75 41.44 23 50.14 23C58.84 23 64.68 19.75 64.68 14.58V6.28002C64.68 6.21002 64.62 6.15002 64.55 6.15002H55.91H55.9Z" fill="white"/>
<path d="M55.91 0H64.55C64.62 0 64.68 0.06 64.68 0.13V4.95C64.68 5.02 64.62 5.08 64.55 5.08H55.91C55.84 5.08 55.78 5.02 55.78 4.95V0.13C55.78 0.06 55.84 0 55.91 0Z" fill="white"/>
<path d="M35.75 0H44.39C44.46 0 44.52 0.06 44.52 0.13V4.95C44.52 5.02 44.46 5.08 44.39 5.08H35.75C35.68 5.08 35.62 5.02 35.62 4.95V0.13C35.62 0.06 35.68 0 35.75 0Z" fill="white"/>
<path d="M94.87 22.72H87.6C87.6 22.72 87.53 22.71 87.51 22.68L75.01 10.49C75.01 10.49 74.95 10.45 74.92 10.45H74.89C74.82 10.45 74.76 10.51 74.76 10.58V22.57C74.76 22.64 74.7 22.7 74.63 22.7H65.99C65.92 22.7 65.86 22.64 65.86 22.57V0.13C65.86 0.06 65.92 0 65.99 0H73.4C73.4 0 73.47 0.01 73.49 0.04L85.79 12.19C85.79 12.19 85.85 12.23 85.88 12.23H85.96C86.03 12.23 86.09 12.17 86.09 12.1V0.13C86.09 0.06 86.15 0 86.22 0H94.86C94.93 0 94.99 0.06 94.99 0.13V22.59C94.99 22.66 94.93 22.72 94.86 22.72H94.87Z" fill="white"/>
</g>
<defs>
<clipPath id="clip0_50_62">
<rect width="95" height="23" fill="white"/>
</clipPath>
</defs>
</svg>
