<svg width="435" height="300" viewBox="0 0 435 300" fill="none" xmlns="http://www.w3.org/2000/svg">
<g clip-path="url(#clip0_111_346)">
<path d="M126.884 80L97.1643 107.66L68.3263 80H60V210.246H66.8373L96.2527 181.4L127.765 210.246H134.329V80H126.884ZM123.328 192.677L79.7825 152.555V163.862L88.838 173.649L70.6965 190.914V96.3529L89.4154 115.077L79.6305 123.101V136.202L123.328 98.1463V192.677Z" fill="#404040"/>
<path d="M142.108 194.41C142.108 192.16 142.047 190.367 141.926 188.574H145.329L145.542 192.039H145.663C146.848 190.002 148.884 188.087 152.47 188.087C155.387 188.087 157.636 189.881 158.548 192.404H158.639C159.338 191.188 160.189 190.246 161.07 189.607C162.377 188.635 163.774 188.087 165.81 188.087C168.697 188.087 172.921 189.942 172.921 197.449V210.155H169.092V197.966C169.092 193.771 167.542 191.309 164.413 191.309C162.164 191.309 160.432 192.951 159.733 194.835C159.55 195.413 159.399 196.112 159.399 196.811V210.155H155.57V197.206C155.57 193.771 154.05 191.309 151.072 191.309C148.641 191.309 146.848 193.255 146.18 195.23C145.998 195.808 145.876 196.477 145.876 197.176V210.185H142.047V194.44L142.108 194.41Z" fill="#404040"/>
<path d="M181.521 200.094C181.612 205.413 184.955 207.571 188.905 207.571C191.701 207.571 193.433 207.055 194.892 206.477L195.59 209.274C194.223 209.912 191.822 210.641 188.389 210.641C181.764 210.641 177.783 206.234 177.783 199.76C177.783 193.285 181.642 188.118 187.933 188.118C194.983 188.118 196.806 194.289 196.806 198.27C196.806 199.091 196.745 199.669 196.684 200.125H181.551L181.521 200.094ZM193.007 197.267C193.038 194.805 192.005 190.915 187.598 190.915C183.587 190.915 181.886 194.532 181.582 197.267H193.007Z" fill="#404040"/>
<path d="M220.296 178.483V204.593C220.296 206.507 220.356 208.666 220.478 210.155H216.983L216.771 206.416H216.68C215.494 208.818 212.881 210.641 209.356 210.641C204.129 210.641 200.088 206.234 200.088 199.668C200.057 192.465 204.524 188.057 209.782 188.057C213.094 188.057 215.312 189.607 216.285 191.34H216.376V178.452H220.265L220.296 178.483ZM216.406 197.358C216.406 196.842 216.376 196.203 216.254 195.687C215.646 193.225 213.519 191.158 210.572 191.158C206.5 191.158 204.069 194.714 204.069 199.456C204.069 203.833 206.257 207.48 210.48 207.48C213.094 207.48 215.494 205.717 216.224 202.769C216.376 202.252 216.406 201.705 216.406 201.097V197.358Z" fill="#404040"/>
<path d="M231.235 182.495C231.235 183.832 230.293 184.926 228.744 184.926C227.315 184.926 226.373 183.832 226.373 182.495C226.373 181.157 227.376 180.063 228.804 180.063C230.233 180.063 231.205 181.127 231.235 182.495ZM226.859 210.185V188.604H230.749V210.185H226.859Z" fill="#404040"/>
<path d="M249.255 210.186L248.921 207.45H248.799C247.614 209.122 245.274 210.672 242.205 210.672C237.86 210.672 235.611 207.571 235.611 204.471C235.611 199.243 240.23 196.386 248.587 196.447V195.991C248.587 194.228 248.1 190.975 243.664 191.006C241.658 191.006 239.561 191.614 238.042 192.617L237.161 190.003C238.954 188.848 241.567 188.118 244.272 188.118C250.866 188.118 252.476 192.617 252.476 196.963V205.049C252.476 206.903 252.567 208.727 252.811 210.216H249.286L249.255 210.186ZM248.647 199.182C244.393 199.091 239.531 199.851 239.531 204.015C239.531 206.599 241.233 207.784 243.208 207.784C246.034 207.784 247.827 205.991 248.465 204.167C248.587 203.742 248.647 203.316 248.647 202.921V199.152V199.182Z" fill="#404040"/>
<path d="M269.797 188.604L272.684 199.547C273.292 201.948 273.839 204.228 274.295 206.447H274.416C274.903 204.289 275.602 201.918 276.361 199.608L279.886 188.635H283.168L286.541 199.425C287.301 201.979 287.939 204.258 288.456 206.477H288.547C288.942 204.289 289.519 202.009 290.218 199.456L293.287 188.635H297.146L290.188 210.216H286.632L283.35 199.912C282.56 197.48 281.953 195.322 281.436 192.799H281.345C280.798 195.413 280.129 197.632 279.37 199.942L275.905 210.216H272.32L265.817 188.635H269.797V188.604Z" fill="#404040"/>
<path d="M301.097 195.322C301.097 192.769 301.036 190.611 300.915 188.604H304.348L304.5 192.83H304.652C305.655 189.942 308.025 188.118 310.669 188.118C311.094 188.118 311.398 188.118 311.763 188.24V191.918C311.368 191.826 310.973 191.796 310.426 191.796C307.661 191.796 305.716 193.893 305.169 196.811C305.078 197.358 305.017 197.997 305.017 198.635V210.155H301.127V195.292L301.097 195.322Z" fill="#404040"/>
<path d="M327.443 210.186L327.109 207.45H326.987C325.802 209.122 323.462 210.672 320.393 210.672C316.048 210.672 313.799 207.571 313.799 204.471C313.799 199.243 318.418 196.386 326.775 196.447V195.991C326.775 194.228 326.288 190.975 321.852 191.006C319.846 191.006 317.749 191.614 316.23 192.617L315.349 190.003C317.142 188.848 319.755 188.118 322.459 188.118C329.054 188.118 330.664 192.617 330.664 196.963V205.049C330.664 206.903 330.755 208.727 330.998 210.216H327.473L327.443 210.186ZM326.835 199.182C322.581 199.091 317.719 199.851 317.719 204.015C317.719 206.599 319.421 207.784 321.396 207.784C324.222 207.784 326.015 205.991 326.653 204.167C326.775 203.742 326.835 203.316 326.835 202.921V199.152V199.182Z" fill="#404040"/>
<path d="M336.985 195.626C336.985 192.86 336.924 190.641 336.802 188.604H340.297L340.51 192.282H340.601C342.181 189.638 344.764 188.118 348.259 188.118C353.485 188.118 357.405 192.526 357.405 199.061C357.405 206.842 352.665 210.672 347.59 210.672C344.703 210.672 342.212 209.426 340.935 207.268H340.844V219H336.954V195.626H336.985ZM340.874 201.401C340.874 201.948 340.935 202.495 341.057 202.982C341.756 205.717 344.126 207.571 346.922 207.571C351.085 207.571 353.485 204.167 353.485 199.213C353.485 194.896 351.237 191.219 347.074 191.219C344.399 191.219 341.877 193.103 341.148 196.051C341.026 196.568 340.905 197.115 340.905 197.632V201.371L340.874 201.401Z" fill="#404040"/>
<path d="M361.812 206.173C362.997 206.903 365.063 207.723 367.008 207.723C369.865 207.723 371.202 206.325 371.202 204.501C371.202 202.678 370.047 201.614 367.19 200.55C363.301 199.152 361.447 197.024 361.447 194.44C361.447 190.975 364.273 188.118 368.923 188.118C371.11 188.118 372.994 188.726 374.21 189.456L373.238 192.313C372.417 191.796 370.837 191.036 368.801 191.036C366.491 191.036 365.215 192.374 365.215 193.985C365.215 195.778 366.491 196.568 369.318 197.662C373.025 199.061 374.97 200.915 374.97 204.137C374.97 207.967 371.992 210.641 366.917 210.641C364.547 210.641 362.359 210.034 360.839 209.122L361.781 206.173H361.812Z" fill="#404040"/>
</g>
<defs>
<clipPath id="clip0_111_346">
<rect width="315" height="139" fill="white" transform="translate(60 80)"/>
</clipPath>
</defs>
</svg>
