<svg width="435" height="300" viewBox="0 0 435 300" fill="none" xmlns="http://www.w3.org/2000/svg">
<g clip-path="url(#clip0_108_302)">
<path d="M174.746 81H154V122.529H174.746V81Z" fill="#333333"/>
<path d="M227.924 81H207.178V122.529H227.924V81Z" fill="#333333"/>
<path d="M281.003 81H260.257V122.529H281.003V81Z" fill="#333333"/>
<path d="M211.501 142.332C209.117 143.328 206.938 144.168 204.818 145.138C201.161 146.812 197.726 148.826 195.159 152.037C192.577 155.266 192.409 158.365 194.7 161.813C196.829 165.018 199.825 167.383 202.665 169.907C205.773 172.668 208.943 175.467 210.339 179.522C212.648 186.228 211.342 192.332 206.589 197.605C201.939 202.76 195.748 205.416 189.527 208.108C185.885 209.683 182.721 209.656 179.052 207.994C171.696 204.66 164.112 201.827 156.633 198.763C156.042 198.52 155.108 198.487 155.198 197.512C155.291 196.491 156.21 196.761 156.843 196.641C162.007 195.666 166.94 194.157 170.93 190.502C174.884 186.88 175.41 182.072 172.344 177.709C169.937 174.285 166.73 171.635 163.71 168.802C160.929 166.195 158.326 163.413 156.696 159.917C154.147 154.458 155.627 149.543 159.17 145.144C163.442 139.835 169.327 136.885 175.578 134.566C178.25 133.575 180.994 132.813 183.747 132.096C184.477 131.904 185.207 131.823 185.954 132.12C194.208 135.397 202.467 138.659 210.727 141.93C210.907 142.002 211.072 142.104 211.507 142.329L211.501 142.332Z" fill="#333333"/>
<path d="M211.943 219.673C213.639 217.047 215.35 214.376 217.083 211.724C220.409 206.628 223.73 201.53 227.096 196.461C227.618 195.675 227.636 195.117 227.057 194.34C219.166 183.726 211.309 173.085 203.443 162.452C202.137 160.688 200.816 158.929 199.525 157.156C199.333 156.892 198.966 156.628 199.135 156.244C199.312 155.839 199.741 155.995 200.065 155.986C203.311 155.875 206.556 155.746 209.802 155.683C215.747 155.566 221.694 155.527 227.639 155.367C228.867 155.334 229.533 155.764 230.134 156.79C233.632 162.777 237.406 168.595 241.135 174.438C241.927 175.68 242.291 175.356 242.9 174.384C246.587 168.508 250.328 162.669 253.976 156.772C254.738 155.539 255.558 155.043 257.065 155.052C264.613 155.097 272.149 155.403 279.688 155.722C281.309 155.791 280.436 156.607 280.147 157.138C275.692 165.33 271.224 173.514 266.73 181.685C259.854 194.19 252.868 206.628 245.677 218.953C245.299 219.598 244.975 220.006 244.107 220.003C233.704 219.967 223.298 219.979 212.894 219.973C212.615 219.973 212.297 220.081 211.94 219.676L211.943 219.673Z" fill="#333333"/>
</g>
<defs>
<clipPath id="clip0_108_302">
<rect width="127" height="139" fill="white" transform="translate(154 81)"/>
</clipPath>
</defs>
</svg>
