<svg width="435" height="300" viewBox="0 0 435 300" fill="none" xmlns="http://www.w3.org/2000/svg">
<g clip-path="url(#clip0_111_318)">
<path d="M74.9559 155.7L74.8825 158.559C73.451 159.369 71.5695 159.948 69.2776 159.948C64.1339 159.948 60 156.85 60 150.475C60 144.1 64.447 141 69.4624 141C71.4821 141 73.1083 141.463 74.6935 142.35L74.75 144.61H72.3466L72.0067 143.013C71.372 142.689 70.7515 142.542 70.0914 142.542C67.2368 142.542 65.7544 144.915 65.7544 150.494C65.7544 156.072 67.1366 158.386 69.9617 158.386C70.7261 158.386 71.4807 158.2 72.2225 157.854L72.6753 155.7H74.9559Z" fill="#333333"/>
<path d="M218.423 155.7L218.35 158.559C216.918 159.369 215.037 159.948 212.745 159.948C207.601 159.948 203.467 156.85 203.467 150.475C203.467 144.1 207.914 141 212.93 141C214.949 141 216.575 141.463 218.161 142.35L218.217 144.61H215.814L215.474 143.013C214.839 142.689 214.219 142.542 213.559 142.542C210.704 142.542 209.222 144.915 209.222 150.494C209.222 156.072 210.604 158.386 213.429 158.386C214.193 158.386 214.948 158.2 215.69 157.854L216.142 155.7H218.423Z" fill="#333333"/>
<path d="M102.639 149.94C102.639 146.913 102.639 143.912 102.724 141H97.8142C97.8833 143.431 97.896 145.881 97.8974 148.319H92.4364C92.4392 145.843 92.4505 143.391 92.5196 141H87.61C87.6946 143.97 87.6946 146.97 87.6946 149.94V151.008C87.6946 154.036 87.6946 157.036 87.61 159.948H92.5196C92.435 156.978 92.435 153.978 92.435 150.826V149.999H97.8988V150.826C97.8988 154.036 97.8988 157.036 97.8142 159.948H102.724C102.639 156.978 102.639 153.978 102.639 151.008V149.94Z" fill="#333333"/>
<path d="M129.356 158.715L129.026 155.1C128.992 154.729 128.936 154.358 128.851 153.995C128.334 151.776 127.255 150.537 124.158 150.153C128.183 149.544 129.533 147.59 129.533 145.682C129.533 142.754 126.901 141 122.151 141H114.56C114.65 143.907 114.65 146.842 114.65 149.75V150.795C114.65 153.759 114.65 156.694 114.56 159.545H119.725C119.637 156.742 119.634 153.913 119.634 151.019H120.73C122.423 151.019 123.186 151.775 123.522 153.426C123.564 153.638 123.589 153.853 123.602 154.067L123.76 156.746C123.771 156.938 123.788 157.128 123.812 157.318C124.058 159.308 123.907 159.95 126.372 159.95C127.757 159.95 128.55 160.13 129.987 159.817L130.015 159.084L129.358 158.715H129.356ZM119.634 149.443C119.634 147.094 119.637 144.846 119.684 142.624H120.922C123.388 142.624 124.702 143.719 124.702 145.987C124.702 147.806 123.785 149.442 120.785 149.442H119.633L119.634 149.443Z" fill="#333333"/>
<path d="M141.522 149.965C141.522 146.986 141.522 143.979 141.438 141H146.36C146.276 143.921 146.276 146.928 146.276 149.965V151.014C146.276 154.013 146.276 157.021 146.36 160H141.438C141.522 157.079 141.522 154.072 141.522 151.035V149.965Z" fill="#333333"/>
<path d="M165.724 147.97L164.381 147.382C162.684 146.656 161.779 146.264 161.779 144.817C161.779 143.37 163.096 142.625 164.729 142.625C165.48 142.625 166.128 142.772 166.786 143.055L167.202 144.479H169.828L170.062 142.392C168.666 141.516 166.695 141 164.653 141C160.316 141 157.54 142.994 157.54 146.28C157.54 149.309 159.483 150.936 162.855 152.406L164.066 152.935C165.793 153.668 166.537 154.322 166.537 155.766C166.537 157.21 165.436 158.375 163.399 158.375C162.131 158.375 161.176 158.144 160.113 157.694L159.872 154.713H157.36L157.188 158.569C158.835 159.54 161.254 160 163.401 160C168.292 160 170.879 157.491 170.879 154.262C170.879 149.557 169.378 149.544 165.724 147.97Z" fill="#333333"/>
<path d="M194.671 158.111L193.704 156.814L193.139 156.095C192.573 155.428 192.263 155.044 192.051 154.766C192.884 153.358 193.446 151.988 193.964 150.071H192.262C192.025 151.53 191.745 152.633 191.291 153.726C191.066 153.43 190.738 153.021 190.19 152.364C189.38 151.393 188.817 150.715 188.403 150.204C190.335 149.191 191.08 148.112 191.08 146.596C191.08 144.722 189.043 143.483 186.613 143.483C184.183 143.483 182.482 144.954 182.482 147.307C182.482 148.495 182.819 149.687 183.803 151.092C183.839 151.136 183.874 151.184 183.909 151.23C181.534 152.381 180.585 153.884 180.585 155.727C180.585 158.007 182.126 159.954 185.069 159.954C187.166 159.954 188.446 159.145 189.253 158.204C189.406 158.37 189.562 158.533 189.721 158.693C190.723 159.65 190.965 159.955 192.246 159.955C192.895 159.955 196.101 159.911 196.101 159.911L194.668 158.114L194.671 158.111ZM187.942 144.48C188.847 144.48 189.293 145.172 189.293 146.261C189.293 147.165 188.651 148.23 187.73 149.346C187.551 149.107 187.41 148.906 187.276 148.701C186.671 147.727 186.496 146.999 186.496 146.307C186.496 145.252 187.063 144.482 187.942 144.482V144.48ZM187.08 157.935C185.393 157.935 184.084 156.648 184.084 154.703C184.084 153.642 184.029 152.974 184.667 152.243C185.129 152.87 185.729 153.688 186.589 154.854C187.187 155.642 187.843 156.552 188.586 157.439C188.222 157.761 187.806 157.936 187.08 157.936V157.935Z" fill="#333333"/>
<path d="M247.627 150.473C247.627 156.766 243.562 159.947 239.152 159.947C234.741 159.947 230.67 156.834 230.67 150.473C230.67 144.113 234.768 141 239.152 141C243.535 141 247.627 144.113 247.627 150.473ZM239.152 158.366C241.839 158.366 241.872 155.086 241.872 150.558C241.872 146.031 241.839 142.561 239.152 142.561C236.465 142.561 236.452 146.051 236.452 150.558C236.452 155.066 236.464 158.366 239.152 158.366Z" fill="#333333"/>
<path d="M275.856 149.898C275.856 146.926 275.856 143.94 275.936 141H271.096L267.007 153.642L262.674 141H257.999V159.859H259.72V150.94L259.604 145.182L264.666 159.857H266.717L271.464 145.258L271.406 151.56C271.386 153.932 271.406 156.918 271.326 159.857H275.935C275.855 156.942 275.855 153.956 275.855 150.959V149.897L275.856 149.898Z" fill="#333333"/>
<path d="M293.616 141H287.593C287.685 143.957 287.685 146.941 287.685 149.898V150.96C287.685 153.975 287.685 156.959 287.593 159.859H292.885C292.806 157.308 292.796 154.795 292.795 152.645H293.647C300.249 152.645 302.481 149.947 302.481 146.669C302.481 143.391 299.961 141 293.616 141ZM293.686 151.035H292.795V149.898C292.795 147.453 292.795 145.028 292.844 142.651H293.565C296.215 142.651 297.704 144.01 297.704 146.65C297.704 149.29 296.376 151.035 293.688 151.035H293.686Z" fill="#333333"/>
<path d="M321.913 159.882H326.711L320.395 141H317.495L311.146 159.882H312.808L314.201 155.508H320.55L321.911 159.882H321.913ZM314.734 153.837L317.412 145.42L320.031 153.837H314.734Z" fill="#333333"/>
<path d="M348.248 141V152.534L340.245 141H336.379V143.31V159.761H338.131V145.865L347.697 159.816H349.999V155.059V141H348.248Z" fill="#333333"/>
<path d="M375 141H373.133L369.112 150.067L365.202 141H359.897L365.298 152.494C365.298 155.854 365.288 157.614 365.215 159.882H370.018C369.94 157.387 369.935 155.539 369.935 151.688L375 141Z" fill="#333333"/>
</g>
<defs>
<clipPath id="clip0_111_318">
<rect width="315" height="19" fill="white" transform="translate(60 141)"/>
</clipPath>
</defs>
</svg>
