<svg width="435" height="300" viewBox="0 0 435 300" fill="none" xmlns="http://www.w3.org/2000/svg">
<g clip-path="url(#clip0_111_332)">
<path d="M226.555 128.278C224.605 128.278 223.259 128.262 221.371 128.278H210.149V172.862H221.371V157.766C222.887 157.967 224.605 158.072 226.555 158.072C239.549 158.072 242.928 151.232 242.928 143.063C242.928 134.895 238.228 128.276 226.555 128.276V128.278ZM228.101 148.069C226.109 148.584 224.052 148.623 222 148.653C221.344 148.661 221.267 148.336 221.275 147.807C221.294 146.342 221.281 144.876 221.281 143.408C221.281 141.942 221.281 140.477 221.281 139.008C221.281 138.601 221.204 138.16 221.858 138.182C223.986 138.254 226.134 137.989 228.216 138.73C230.39 139.501 231.307 140.884 231.258 143.49C231.211 145.945 230.183 147.529 228.101 148.066V148.069Z" fill="#333333"/>
<path d="M315.683 127.262C315.549 127.24 315.417 127.218 315.283 127.198H315.467C315.538 127.22 315.612 127.242 315.683 127.262Z" fill="#333333"/>
<path d="M242.988 172.832C244.479 168.435 245.915 164.201 247.354 159.97C250.807 149.801 254.273 139.642 257.695 129.463C257.985 128.6 258.308 128.256 259.276 128.273C263.514 128.339 267.754 128.325 271.992 128.281C272.818 128.273 273.149 128.531 273.414 129.319C278.185 143.43 282.983 157.531 287.815 171.62C288.189 172.716 287.927 172.879 286.876 172.857C283.78 172.79 280.677 172.785 277.581 172.862C276.546 172.887 276.166 172.537 275.942 171.562C275.504 169.647 274.908 167.771 274.41 165.868C274.229 165.179 273.989 164.818 273.143 164.829C268.132 164.881 263.117 164.873 258.105 164.835C257.296 164.829 257.022 165.132 256.831 165.873C256.305 167.909 255.66 169.912 255.115 171.942C254.948 172.57 254.716 172.854 254.021 172.848C250.424 172.815 246.824 172.835 242.988 172.835V172.832ZM259.774 156.135C263.372 156.135 266.829 156.093 270.285 156.16C271.414 156.182 271.518 155.923 271.212 154.865C269.431 148.724 267.256 142.7 265.886 136.441C265.845 136.256 265.795 136.011 265.505 135.994C263.952 142.766 261.613 149.308 259.777 156.138L259.774 156.135Z" fill="#333333"/>
<path d="M77.1498 173.953C71.3667 174.201 66.2455 172.628 61.8739 168.871H61.8712L61.6551 168.683L60.4952 167.692L60.279 167.507L60 167.267L65.578 158.581C65.578 158.581 66.4315 159.394 67.4601 160.314C67.4711 160.322 67.482 160.331 67.493 160.342C68.103 160.92 68.7322 161.46 69.3888 161.953C69.3888 161.956 69.397 161.959 69.3997 161.962C71.1998 163.306 73.2105 164.273 75.6288 164.526C79.4615 164.929 82.3202 161.873 81.3299 158.361C80.7883 156.444 79.2098 155.7 77.5602 155.108C74.3978 153.973 71.0794 153.284 68.0893 151.664C65.7093 150.378 63.8436 148.587 63.0749 145.948C61.6305 140.989 62.6071 135.733 65.8817 132.028V132.022C65.8817 132.022 68.6036 128.325 74.7343 127.226C74.8026 127.215 74.8738 127.207 74.9449 127.198C76.537 127.008 78.3809 126.981 80.5174 127.198C85.9395 127.901 88.5356 129.581 89.6545 130.609C89.6573 130.609 89.6573 130.612 89.6573 130.612C90.177 131.091 90.3795 131.427 90.3959 131.457H90.3986L90.3959 131.466L86.793 139.92C84.5388 138 82.1561 136.664 79.2864 136.394C77.8857 136.262 76.5562 136.441 75.3306 137.141C72.9998 138.468 72.9096 141.579 75.172 143.019C76.6082 143.937 78.2386 144.386 79.8663 144.81C81.8524 145.328 83.7564 146.061 85.655 146.829C90.0868 148.625 92.1659 152.124 92.516 156.705C93.2711 166.535 86.9626 173.535 77.1498 173.953Z" fill="#333333"/>
<path d="M128.736 162.983H101.869V172.862H128.736V162.983Z" fill="#333333"/>
<path d="M132.23 143.184C132.227 143.044 132.221 142.903 132.213 142.763C132.205 142.625 132.197 142.485 132.186 142.347C132.175 142.207 132.161 142.069 132.148 141.931C132.142 141.862 132.134 141.796 132.123 141.727C131.685 137.983 129.948 134.622 127.363 132.08L127.289 132.005C125.585 130.35 123.519 129.047 121.216 128.218C120.554 127.978 119.87 127.777 119.17 127.622C119.167 127.62 119.164 127.62 119.161 127.62C117.936 127.344 116.658 127.198 115.348 127.198C106.457 127.198 99.1719 133.873 98.5071 142.347C98.4989 142.465 98.4907 142.587 98.4825 142.705C98.4743 142.865 98.4688 143.025 98.4634 143.184C98.4606 143.319 98.4579 143.452 98.4579 143.587V143.609C98.4579 143.73 98.4579 143.851 98.4634 143.972C98.4661 144.102 98.4688 144.229 98.477 144.358C98.4825 144.485 98.4907 144.611 98.4989 144.741V144.749C98.5071 144.876 98.5181 145.005 98.5317 145.132C98.5427 145.248 98.5536 145.364 98.5673 145.479C98.5755 145.567 98.5865 145.656 98.6001 145.744C98.6138 145.859 98.633 145.975 98.6494 146.091C98.6521 146.102 98.6521 146.113 98.6549 146.124C98.674 146.242 98.6932 146.358 98.715 146.474C98.7205 146.501 98.7232 146.529 98.7287 146.554C98.7506 146.669 98.7725 146.782 98.7944 146.895C98.7998 146.903 98.7998 146.914 98.8026 146.926C98.8272 147.047 98.8546 147.165 98.8819 147.284C100.392 153.691 105.762 158.672 112.492 159.788C112.598 159.804 112.708 159.821 112.815 159.837C112.924 159.854 113.033 159.868 113.143 159.881C113.255 159.895 113.367 159.909 113.479 159.92C113.592 159.931 113.706 159.942 113.821 159.953C113.936 159.964 114.054 159.972 114.172 159.981C114.273 159.986 114.379 159.992 114.483 159.997C114.626 160.005 114.768 160.011 114.913 160.014C115.039 160.016 115.167 160.019 115.296 160.019H115.348C115.641 160.019 115.928 160.011 116.218 159.997C116.489 159.983 116.759 159.964 117.033 159.937C117.058 159.937 117.085 159.934 117.11 159.931C117.219 159.92 117.328 159.909 117.438 159.895C120.811 159.49 123.875 158.118 126.329 156.074C126.345 156.063 126.359 156.049 126.375 156.036C129.436 153.383 131.548 149.589 132.12 145.303C132.18 144.859 132.216 144.413 132.23 143.967C132.235 143.848 132.235 143.727 132.235 143.609C132.235 143.468 132.232 143.325 132.23 143.184ZM121.533 143.573C121.558 145.983 121.142 148.264 119.041 149.774C115.118 152.595 110.098 150.518 109.187 145.746C108.927 144.383 108.883 143.027 109.149 141.661C109.868 137.942 112.196 136.052 115.835 136.237C118.94 136.397 121.24 138.857 121.528 142.339C121.563 142.749 121.533 143.162 121.533 143.573Z" fill="#333333"/>
<path d="M167.23 137.978V128.275H151.94H140.338V172.862H151.94V155.421H166.297V145.722H151.94V137.978H167.23Z" fill="#333333"/>
<path d="M203.814 128.275H172.184V138.791H181.931V172.854H194.064V138.791H203.814V128.275Z" fill="#333333"/>
<path d="M324.218 157.826V167.953C324.218 169.738 324.221 170.584 323.739 171.149C322.716 171.697 321.715 172.154 320.736 172.532C320.727 172.534 320.722 172.537 320.716 172.54C313.727 174.86 307.033 174.557 300.965 170.581H300.962C300.399 170.212 299.838 169.81 299.285 169.375C292.462 164.017 290.069 156.656 290.742 148.187C291.371 140.311 295.061 134.229 301.766 130.074C301.854 130.019 301.944 129.967 302.035 129.915H302.032C302.032 129.915 307.678 126.099 315.286 127.198C315.42 127.218 315.551 127.24 315.685 127.262C316.596 127.411 317.535 127.634 318.492 127.942C320.306 128.523 322.194 129.416 324.114 130.714C324.215 131.187 324.218 131.838 324.218 132.815V142.948C324.218 142.948 323.676 140.617 318.487 138.815C318.481 138.815 318.476 138.813 318.473 138.81C317.532 138.399 316.558 138.121 315.554 137.989C313.724 137.741 311.79 137.972 309.741 138.758C305.451 140.402 303.361 143.926 302.77 148.336C302.119 153.185 303.063 157.587 307.104 160.799C311.235 164.083 316.856 164.05 321.012 160.813C322.079 159.978 323.077 159.063 324.221 157.826H324.218Z" fill="#333333"/>
<path d="M318.47 138.81C317.625 138.518 316.659 138.239 315.551 137.989C316.555 138.121 317.529 138.399 318.47 138.81Z" fill="#333333"/>
<path d="M324.215 142.948V132.815C324.215 131.837 324.213 131.187 324.111 130.713C324.147 130.735 324.182 130.76 324.218 130.785V142.948H324.215Z" fill="#333333"/>
<path d="M375 172.859L357.144 149.992L373.411 128.3L360.066 128.275L345.668 147.851V128.275H333.801V172.859H345.668V153.207L359.798 172.859H375Z" fill="#333333"/>
</g>
<defs>
<clipPath id="clip0_111_332">
<rect width="315" height="47" fill="white" transform="translate(60 127)"/>
</clipPath>
</defs>
</svg>
