<svg width="450" height="470" viewBox="0 0 450 470" fill="none" xmlns="http://www.w3.org/2000/svg">
<rect width="450" height="470" fill="#CAC4D0" fill-opacity="0.1"/>
<path d="M351.602 136.324H355.264V143.648H362.93V136.324H366.616V154H362.93V146.676H355.264V154H351.602V136.324ZM368.911 136.324H383.389V139.352H377.969V154H374.331V139.352H368.911V136.324ZM390.2 136.324L395.107 148.312H395.303L400.21 136.324H404.751V154H401.187V142.428H401.04L396.426 153.927H393.984L389.37 142.379H389.224V154H385.659V136.324H390.2ZM407.729 136.324H411.392V150.973H419.009V154H407.729V136.324Z" fill="black"/>
<path d="M368.559 118.195C367.628 118.195 366.794 118.039 366.059 117.727C365.329 117.414 364.75 116.975 364.32 116.408C363.897 115.842 363.669 115.188 363.637 114.445H365.414C365.447 114.882 365.603 115.266 365.883 115.598C366.169 115.93 366.544 116.187 367.006 116.369C367.468 116.545 367.979 116.633 368.539 116.633C369.151 116.633 369.701 116.529 370.189 116.32C370.684 116.105 371.068 115.812 371.342 115.441C371.622 115.064 371.762 114.634 371.762 114.152C371.762 113.632 371.625 113.173 371.352 112.775C371.085 112.378 370.694 112.069 370.18 111.848C369.665 111.626 369.047 111.516 368.324 111.516H367.172V109.973H368.324C368.891 109.973 369.395 109.872 369.838 109.67C370.281 109.468 370.622 109.185 370.863 108.82C371.111 108.456 371.234 108.033 371.234 107.551C371.234 107.089 371.124 106.678 370.902 106.32C370.688 105.962 370.382 105.686 369.984 105.49C369.587 105.288 369.125 105.188 368.598 105.188C368.09 105.188 367.615 105.279 367.172 105.461C366.729 105.643 366.368 105.904 366.088 106.242C365.808 106.574 365.655 106.965 365.629 107.414H363.93C363.962 106.685 364.19 106.037 364.613 105.471C365.036 104.898 365.6 104.455 366.303 104.143C367.006 103.824 367.777 103.664 368.617 103.664C369.49 103.664 370.251 103.837 370.902 104.182C371.56 104.52 372.064 104.979 372.416 105.559C372.768 106.138 372.94 106.77 372.934 107.453C372.94 108.247 372.729 108.928 372.299 109.494C371.869 110.061 371.28 110.448 370.531 110.656V110.754C371.137 110.852 371.661 111.057 372.104 111.369C372.553 111.675 372.895 112.069 373.129 112.551C373.37 113.026 373.487 113.56 373.48 114.152C373.487 114.914 373.275 115.604 372.846 116.223C372.416 116.835 371.824 117.316 371.068 117.668C370.32 118.02 369.483 118.195 368.559 118.195ZM376.781 118.117C376.553 118.117 376.342 118.062 376.146 117.951C375.958 117.834 375.805 117.678 375.688 117.482C375.577 117.287 375.525 117.076 375.531 116.848C375.525 116.626 375.577 116.421 375.688 116.232C375.805 116.037 375.958 115.884 376.146 115.773C376.342 115.656 376.553 115.598 376.781 115.598C377.003 115.598 377.208 115.656 377.396 115.773C377.592 115.884 377.745 116.037 377.855 116.232C377.973 116.421 378.031 116.626 378.031 116.848C378.031 117.076 377.973 117.287 377.855 117.482C377.745 117.678 377.592 117.834 377.396 117.951C377.208 118.062 377.003 118.117 376.781 118.117ZM384.926 118.195C383.949 118.195 383.077 118.029 382.309 117.697C381.547 117.359 380.954 116.89 380.531 116.291C380.108 115.692 379.9 115.012 379.906 114.25C379.9 113.651 380.02 113.094 380.268 112.58C380.521 112.059 380.87 111.63 381.312 111.291C381.755 110.952 382.243 110.741 382.777 110.656V110.578C382.315 110.467 381.908 110.262 381.557 109.963C381.205 109.657 380.932 109.283 380.736 108.84C380.548 108.397 380.453 107.922 380.453 107.414C380.453 106.704 380.645 106.063 381.029 105.49C381.42 104.917 381.954 104.471 382.631 104.152C383.314 103.827 384.079 103.664 384.926 103.664C385.772 103.664 386.534 103.827 387.211 104.152C387.895 104.471 388.432 104.917 388.822 105.49C389.213 106.057 389.411 106.698 389.418 107.414C389.411 107.922 389.307 108.397 389.105 108.84C388.91 109.283 388.637 109.657 388.285 109.963C387.934 110.262 387.53 110.467 387.074 110.578V110.656C387.602 110.741 388.083 110.952 388.52 111.291C388.962 111.63 389.311 112.059 389.564 112.58C389.825 113.094 389.958 113.651 389.965 114.25C389.958 115.012 389.74 115.692 389.311 116.291C388.881 116.89 388.285 117.359 387.523 117.697C386.762 118.029 385.896 118.195 384.926 118.195ZM384.926 116.652C385.59 116.652 386.169 116.548 386.664 116.34C387.159 116.132 387.54 115.839 387.807 115.461C388.074 115.083 388.207 114.647 388.207 114.152C388.207 113.638 388.064 113.176 387.777 112.766C387.497 112.349 387.107 112.023 386.605 111.789C386.111 111.555 385.551 111.438 384.926 111.438C384.301 111.438 383.738 111.555 383.236 111.789C382.735 112.023 382.344 112.349 382.064 112.766C381.785 113.176 381.651 113.638 381.664 114.152C381.651 114.647 381.775 115.083 382.035 115.461C382.302 115.839 382.683 116.132 383.178 116.34C383.673 116.548 384.255 116.652 384.926 116.652ZM384.926 109.953C385.453 109.953 385.928 109.852 386.352 109.65C386.775 109.449 387.104 109.165 387.338 108.801C387.579 108.436 387.699 108.02 387.699 107.551C387.699 107.089 387.582 106.678 387.348 106.32C387.12 105.962 386.794 105.686 386.371 105.49C385.954 105.288 385.473 105.188 384.926 105.188C384.372 105.188 383.884 105.288 383.461 105.49C383.044 105.686 382.722 105.962 382.494 106.32C382.266 106.678 382.152 107.089 382.152 107.551C382.152 108.02 382.27 108.436 382.504 108.801C382.745 109.165 383.074 109.449 383.49 109.65C383.913 109.852 384.392 109.953 384.926 109.953ZM397.836 120.129H396.312L400.863 103.195H402.406L397.836 120.129ZM413.656 118.195C412.816 118.195 412.051 118.036 411.361 117.717C410.678 117.391 410.131 116.945 409.721 116.379C409.317 115.806 409.099 115.161 409.066 114.445H410.766C410.811 114.862 410.967 115.24 411.234 115.578C411.501 115.91 411.846 116.174 412.27 116.369C412.693 116.558 413.155 116.652 413.656 116.652C414.255 116.652 414.796 116.516 415.277 116.242C415.759 115.969 416.137 115.594 416.41 115.119C416.684 114.644 416.82 114.113 416.82 113.527C416.82 112.922 416.677 112.378 416.391 111.896C416.111 111.408 415.72 111.027 415.219 110.754C414.724 110.474 414.164 110.331 413.539 110.324C412.283 110.305 411.404 110.728 410.902 111.594H409.203L410.199 103.859H417.855V105.422H411.664L411.137 109.562H411.273C411.592 109.315 411.98 109.117 412.436 108.967C412.891 108.817 413.363 108.742 413.852 108.742C414.737 108.742 415.535 108.947 416.244 109.357C416.96 109.761 417.52 110.324 417.924 111.047C418.334 111.77 418.539 112.583 418.539 113.488C418.539 114.387 418.327 115.194 417.904 115.91C417.481 116.626 416.898 117.186 416.156 117.59C415.414 117.993 414.581 118.195 413.656 118.195Z" fill="black"/>
<rect width="430" height="260" transform="translate(10 200)" fill="#CAC4D0" fill-opacity="0.2"/>
<path d="M36.1875 228.998C36.1816 229.924 36.3691 230.844 36.75 231.758C37.1309 232.666 37.6465 233.475 38.2969 234.184C38.9473 234.893 39.6562 235.42 40.4238 235.766L39.5801 236.855C38.6895 236.416 37.8809 235.763 37.1543 234.896C36.4336 234.022 35.8887 233.032 35.5195 231.925C35.1562 233.103 34.6113 234.157 33.8848 235.089C33.1582 236.015 32.3379 236.709 31.4238 237.172L30.5449 236.012C31.3125 235.654 32.0215 235.112 32.6719 234.386C33.3223 233.653 33.8408 232.815 34.2275 231.872C34.6143 230.923 34.8105 229.965 34.8164 228.998V226.15H36.1875V228.998ZM43.5176 240.459H42.1289V224.797H43.5176V240.459ZM52.957 233.445H46.9102V226.379H52.957V233.445ZM48.2109 232.355H51.6738V227.469H48.2109V232.355ZM59.4609 236.451H58.1426V230.58H56.0684V235.906H54.7676V225.113H56.0684V229.42H58.1426V224.814H59.4609V236.451ZM59.9355 240.09H49.2129V235.01H50.584V238.93H59.9355V240.09ZM74.6484 240.424H73.2773V236.223H64.1367V235.08H74.6484V240.424ZM74.6484 234.342H73.2773V224.797H74.6484V234.342ZM70.1484 227.012H64.0488V229.051H69.709V230.141H64.0488V232.303C65.7949 232.303 67.1953 232.273 68.25 232.215C69.3105 232.15 70.3711 232.027 71.4316 231.846L71.5723 232.988C70.5645 233.152 69.5625 233.264 68.5664 233.322C67.5703 233.381 66.3223 233.41 64.8223 233.41H63.9258H62.6602V225.869H70.1484V227.012ZM88.6406 227.732H83.7715V230.738H88.4121V231.846H83.7715V235.379C85.0195 235.373 86.0391 235.347 86.8301 235.3C87.6211 235.247 88.4238 235.145 89.2383 234.992L89.3613 236.135C88.4883 236.305 87.624 236.419 86.7686 236.478C85.9189 236.53 84.8145 236.557 83.4551 236.557H82.4531V226.607H88.6406V227.732ZM95.2148 240.424H93.8789V232.232H91.7344V239.633H90.3984V225.131H91.7344V231.09H93.8789V224.797H95.2148V240.424ZM109.699 228.031C109.699 228.928 109.688 229.71 109.664 230.378C109.646 231.046 109.597 231.825 109.515 232.716C109.433 233.606 109.301 234.576 109.119 235.625L107.713 235.484C107.906 234.494 108.05 233.562 108.144 232.689C108.237 231.811 108.293 231.037 108.311 230.369C108.334 229.695 108.346 228.916 108.346 228.031V227.609H98.9238V226.467H109.699V228.031ZM111.615 238.121H97.377V236.979H111.615V238.121ZM127.225 233.146H112.916V232.057H127.225V233.146ZM125.432 237.717H116.045V239.211H125.941V240.213H114.656V236.768H124.061V235.432H114.639V234.395H125.432V237.717ZM125.379 228.506H116.15V229.877H125.66V230.879H114.779V227.557H123.99V226.273H114.727V225.271H125.379V228.506ZM145.207 228.805H147.545V229.982H145.207V234.025H143.818V224.797H145.207V228.805ZM145.207 237.875H136.436V239.264H145.805V240.248H135.064V236.943H143.836V235.713H135.029V234.729H145.207V237.875ZM132.938 232.619C134.742 232.619 136.154 232.604 137.174 232.575V231.608C136.248 231.538 135.519 231.324 134.985 230.967C134.452 230.609 134.186 230.135 134.186 229.543C134.186 229.121 134.335 228.758 134.634 228.453C134.933 228.148 135.357 227.917 135.908 227.759C136.459 227.601 137.104 227.521 137.842 227.521C138.586 227.521 139.233 227.601 139.784 227.759C140.335 227.917 140.76 228.148 141.059 228.453C141.357 228.758 141.51 229.121 141.516 229.543C141.51 230.129 141.243 230.601 140.716 230.958C140.194 231.315 139.471 231.532 138.545 231.608V232.531C140.215 232.449 141.65 232.32 142.852 232.145L142.975 233.076C141.48 233.316 139.928 233.475 138.316 233.551C136.705 233.621 134.965 233.656 133.096 233.656L132.938 232.619ZM142.377 226.994H133.324V225.992H137.174V224.656H138.545V225.992H142.377V226.994ZM137.842 228.436C137.115 228.447 136.544 228.55 136.128 228.743C135.712 228.937 135.504 229.203 135.504 229.543C135.504 229.895 135.715 230.176 136.137 230.387C136.559 230.598 137.127 230.703 137.842 230.703C138.562 230.703 139.134 230.598 139.556 230.387C139.983 230.176 140.197 229.895 140.197 229.543C140.197 229.203 139.986 228.937 139.564 228.743C139.143 228.55 138.568 228.447 137.842 228.436ZM162.803 233.674H148.564V232.531H152.098V230.334C151.465 230.088 150.981 229.769 150.647 229.376C150.313 228.978 150.146 228.518 150.146 227.996C150.146 227.387 150.369 226.865 150.814 226.432C151.26 225.998 151.896 225.667 152.722 225.438C153.554 225.21 154.541 225.096 155.684 225.096C156.814 225.096 157.793 225.21 158.619 225.438C159.451 225.667 160.09 225.998 160.535 226.432C160.98 226.865 161.203 227.387 161.203 227.996C161.203 228.512 161.036 228.969 160.702 229.367C160.374 229.76 159.896 230.079 159.27 230.325V232.531H162.803V233.674ZM155.684 234.869C156.803 234.869 157.764 234.975 158.566 235.186C159.369 235.396 159.984 235.71 160.412 236.126C160.84 236.536 161.057 237.037 161.062 237.629C161.057 238.215 160.84 238.713 160.412 239.123C159.984 239.539 159.369 239.853 158.566 240.063C157.764 240.28 156.803 240.389 155.684 240.389C154.553 240.389 153.583 240.28 152.774 240.063C151.972 239.853 151.356 239.539 150.929 239.123C150.501 238.713 150.287 238.215 150.287 237.629C150.287 237.037 150.498 236.536 150.92 236.126C151.348 235.71 151.966 235.396 152.774 235.186C153.583 234.975 154.553 234.869 155.684 234.869ZM155.684 235.924C154.418 235.936 153.434 236.091 152.73 236.39C152.033 236.683 151.688 237.096 151.693 237.629C151.688 237.98 151.843 238.282 152.159 238.534C152.476 238.786 152.933 238.979 153.53 239.114C154.134 239.249 154.852 239.316 155.684 239.316C156.504 239.316 157.213 239.249 157.811 239.114C158.414 238.979 158.874 238.786 159.19 238.534C159.513 238.282 159.674 237.98 159.674 237.629C159.674 237.096 159.319 236.683 158.61 236.39C157.907 236.091 156.932 235.936 155.684 235.924ZM155.684 226.186C154.84 226.186 154.107 226.259 153.486 226.405C152.865 226.552 152.388 226.763 152.054 227.038C151.726 227.308 151.564 227.627 151.57 227.996C151.564 228.371 151.726 228.696 152.054 228.972C152.388 229.241 152.862 229.449 153.478 229.596C154.099 229.736 154.834 229.807 155.684 229.807C156.527 229.807 157.257 229.736 157.872 229.596C158.487 229.449 158.962 229.241 159.296 228.972C159.63 228.696 159.797 228.371 159.797 227.996C159.797 227.627 159.63 227.308 159.296 227.038C158.962 226.763 158.484 226.552 157.863 226.405C157.248 226.259 156.521 226.186 155.684 226.186ZM157.898 232.531V230.703C157.225 230.82 156.486 230.879 155.684 230.879C154.881 230.879 154.143 230.82 153.469 230.703V232.531H157.898ZM176.338 229.965H178.693V231.125H176.338V236.521H174.967V224.814H176.338V229.965ZM173.473 227.855H164.156V226.73H168.129V224.814H169.5V226.73H173.473V227.855ZM168.814 228.717C169.553 228.717 170.203 228.837 170.766 229.077C171.334 229.317 171.776 229.657 172.093 230.097C172.409 230.536 172.57 231.049 172.576 231.635C172.57 232.215 172.409 232.722 172.093 233.155C171.776 233.589 171.334 233.926 170.766 234.166C170.203 234.4 169.553 234.518 168.814 234.518C168.07 234.518 167.411 234.4 166.837 234.166C166.269 233.926 165.826 233.589 165.51 233.155C165.199 232.722 165.047 232.215 165.053 231.635C165.047 231.049 165.199 230.536 165.51 230.097C165.826 229.657 166.269 229.317 166.837 229.077C167.411 228.837 168.07 228.717 168.814 228.717ZM168.814 229.807C168.328 229.807 167.897 229.883 167.522 230.035C167.153 230.182 166.866 230.396 166.661 230.677C166.462 230.952 166.365 231.271 166.371 231.635C166.365 231.998 166.462 232.317 166.661 232.593C166.866 232.862 167.153 233.07 167.522 233.217C167.897 233.363 168.328 233.434 168.814 233.428C169.295 233.434 169.72 233.363 170.089 233.217C170.464 233.07 170.754 232.862 170.959 232.593C171.164 232.317 171.27 231.998 171.275 231.635C171.27 231.271 171.164 230.952 170.959 230.677C170.754 230.396 170.464 230.182 170.089 230.035C169.72 229.883 169.295 229.807 168.814 229.807ZM177.059 240.09H166.564V235.59H167.918V238.93H177.059V240.09ZM196.553 227.188C196.553 228.195 196.526 229.089 196.474 229.868C196.427 230.647 196.304 231.535 196.104 232.531H198.434V233.674H191.982V240.459H190.594V233.674H184.195V232.531H194.707C194.918 231.535 195.05 230.645 195.103 229.859C195.155 229.074 195.182 228.184 195.182 227.188V226.959H185.988V225.816H196.553V227.188ZM214.061 238.42H199.752V237.26H206.203V233.463H207.592V237.26H214.061V238.42ZM207.592 227.768C207.592 228.564 207.879 229.326 208.453 230.053C209.027 230.773 209.763 231.383 210.659 231.881C211.556 232.373 212.461 232.695 213.375 232.848L212.812 233.938C211.998 233.779 211.198 233.51 210.413 233.129C209.634 232.742 208.934 232.262 208.312 231.688C207.691 231.113 207.22 230.478 206.897 229.78C206.575 230.483 206.104 231.125 205.482 231.705C204.867 232.285 204.17 232.771 203.391 233.164C202.617 233.557 201.832 233.838 201.035 234.008L200.455 232.9C201.352 232.742 202.242 232.411 203.127 231.907C204.012 231.403 204.738 230.785 205.307 230.053C205.881 229.32 206.168 228.559 206.168 227.768V227.381H200.93V226.221H212.83V227.381H207.592V227.768ZM220.74 227.68C220.74 228.354 220.901 229.007 221.224 229.64C221.546 230.267 221.997 230.826 222.577 231.318C223.163 231.805 223.834 232.18 224.59 232.443L223.869 233.533C222.996 233.217 222.229 232.748 221.566 232.127C220.91 231.506 220.412 230.791 220.072 229.982C219.732 230.885 219.217 231.679 218.525 232.364C217.834 233.05 217.025 233.562 216.1 233.902L215.379 232.812C216.141 232.537 216.823 232.139 217.427 231.617C218.03 231.09 218.502 230.486 218.842 229.807C219.182 229.121 219.352 228.418 219.352 227.697V227.012H215.818V225.887H224.238V227.012H220.74V227.68ZM228.264 240.424H226.875V236.135H217.752V234.992H228.264V240.424ZM228.264 234.166H226.875V230.053H223.746V228.893H226.875V224.797H228.264V234.166ZM243.24 236.451H236.033V226.379H243.24V236.451ZM237.369 235.326H241.869V227.486H237.369V235.326ZM247.477 231.037H250.096V232.232H247.477V240.424H246.105V224.797H247.477V231.037ZM263.402 228.33C263.402 229.338 263.391 230.185 263.367 230.87C263.35 231.556 263.294 232.323 263.2 233.173C263.106 234.017 262.957 234.934 262.752 235.924L261.363 235.801C261.674 234.447 261.876 233.108 261.97 231.784L252.434 232.303L252.24 231.16L262.022 230.756C262.034 230.428 262.043 230.103 262.049 229.78C262.055 229.452 262.061 229.127 262.066 228.805V228.33V227.557H252.662V226.396H263.402V228.33ZM265.178 238.227H250.939V237.066H265.178V238.227ZM270.803 225.535C271.494 225.529 272.124 225.652 272.692 225.904C273.261 226.15 273.727 226.502 274.09 226.959C274.459 227.416 274.693 227.943 274.793 228.541H278.062V224.797H279.451V233.182H278.062V229.684H274.802C274.714 230.293 274.485 230.832 274.116 231.301C273.753 231.764 273.284 232.124 272.71 232.382C272.136 232.634 271.5 232.76 270.803 232.76C270.018 232.76 269.317 232.607 268.702 232.303C268.087 231.998 267.606 231.57 267.261 231.02C266.915 230.469 266.742 229.842 266.742 229.139C266.742 228.436 266.915 227.812 267.261 227.267C267.606 226.716 268.087 226.288 268.702 225.983C269.323 225.679 270.023 225.529 270.803 225.535ZM270.803 226.713C270.275 226.707 269.804 226.807 269.388 227.012C268.972 227.217 268.646 227.504 268.412 227.873C268.178 228.242 268.061 228.664 268.061 229.139C268.061 229.607 268.178 230.029 268.412 230.404C268.646 230.779 268.972 231.072 269.388 231.283C269.804 231.494 270.275 231.6 270.803 231.6C271.324 231.6 271.79 231.494 272.2 231.283C272.61 231.072 272.93 230.779 273.158 230.404C273.393 230.029 273.51 229.607 273.51 229.139C273.51 228.664 273.393 228.242 273.158 227.873C272.93 227.504 272.61 227.217 272.2 227.012C271.79 226.807 271.324 226.707 270.803 226.713ZM270.768 235.959H278.062V233.973H279.451V240.213H269.379V233.973H270.768V235.959ZM278.062 239.088V237.066H270.768V239.088H278.062ZM290.719 227.346V227.592C290.707 228.523 290.672 229.452 290.613 230.378C290.555 231.298 290.438 232.355 290.262 233.551L288.873 233.428C289.061 232.268 289.184 231.23 289.242 230.316C289.301 229.396 289.33 228.512 289.33 227.662H282.773V226.537H290.719V227.346ZM286.623 235.748C288.551 235.678 290.262 235.555 291.756 235.379L291.826 236.416C290.461 236.633 289.022 236.782 287.511 236.864C285.999 236.94 284.432 236.979 282.809 236.979H282.07L281.895 235.836C283.389 235.824 284.514 235.81 285.27 235.792V231.002H286.623V235.748ZM294.111 231.336H296.643V232.531H294.111V240.424H292.74V224.797H294.111V231.336ZM309.844 229.473C309.797 229.062 309.647 228.711 309.396 228.418C309.149 228.119 308.821 227.894 308.411 227.741C308.001 227.583 307.541 227.504 307.031 227.504C306.48 227.504 305.991 227.595 305.563 227.776C305.142 227.952 304.813 228.198 304.579 228.515C304.351 228.831 304.236 229.191 304.236 229.596C304.236 230.182 304.474 230.63 304.948 230.94C305.429 231.251 306.012 231.494 306.697 231.67L307.963 232.021C308.947 232.273 309.794 232.663 310.503 233.19C311.212 233.712 311.566 234.494 311.566 235.537C311.566 236.234 311.382 236.864 311.013 237.427C310.649 237.983 310.119 238.423 309.422 238.745C308.73 239.067 307.904 239.229 306.943 239.229C306.041 239.229 305.253 239.082 304.579 238.789C303.905 238.496 303.378 238.083 302.997 237.55C302.616 237.017 302.402 236.398 302.355 235.695H303.973C304.02 236.152 304.181 236.539 304.456 236.855C304.731 237.166 305.083 237.4 305.511 237.559C305.944 237.711 306.422 237.787 306.943 237.787C307.529 237.787 308.054 237.693 308.517 237.506C308.985 237.318 309.352 237.052 309.615 236.706C309.885 236.354 310.02 235.953 310.02 235.502C310.02 235.115 309.908 234.79 309.686 234.526C309.469 234.263 309.182 234.049 308.824 233.885C308.473 233.721 308.033 233.562 307.506 233.41L305.941 232.988C304.898 232.684 304.099 232.262 303.542 231.723C302.985 231.184 302.707 230.498 302.707 229.666C302.707 228.969 302.897 228.351 303.278 227.812C303.665 227.267 304.189 226.845 304.852 226.546C305.52 226.247 306.264 226.098 307.084 226.098C307.893 226.098 308.619 226.244 309.264 226.537C309.908 226.83 310.418 227.234 310.793 227.75C311.168 228.26 311.367 228.834 311.391 229.473H309.844ZM313.834 226.273H321.551V227.68H315.416V231.934H321.146V233.322H315.416V237.594H321.639V239H313.834V226.273ZM334.805 232.637C334.805 233.955 334.564 235.109 334.084 236.1C333.604 237.084 332.936 237.843 332.08 238.376C331.23 238.909 330.264 239.176 329.18 239.176C328.09 239.176 327.12 238.909 326.271 238.376C325.421 237.843 324.756 237.084 324.275 236.1C323.795 235.109 323.555 233.955 323.555 232.637C323.555 231.318 323.795 230.167 324.275 229.183C324.756 228.192 325.421 227.431 326.271 226.897C327.12 226.364 328.09 226.098 329.18 226.098C330.264 226.098 331.23 226.364 332.08 226.897C332.936 227.431 333.604 228.192 334.084 229.183C334.564 230.167 334.805 231.318 334.805 232.637ZM333.275 232.637C333.275 231.57 333.097 230.656 332.739 229.895C332.382 229.133 331.893 228.556 331.271 228.163C330.656 227.771 329.959 227.574 329.18 227.574C328.4 227.574 327.7 227.771 327.079 228.163C326.464 228.556 325.978 229.133 325.62 229.895C325.263 230.656 325.084 231.57 325.084 232.637C325.084 233.703 325.263 234.617 325.62 235.379C325.978 236.141 326.464 236.718 327.079 237.11C327.7 237.503 328.4 237.699 329.18 237.699C329.959 237.699 330.656 237.503 331.271 237.11C331.893 236.718 332.382 236.141 332.739 235.379C333.097 234.617 333.275 233.703 333.275 232.637ZM353.789 240.424H352.4V224.797H353.789V240.424ZM349.166 226.502C349.154 228.863 348.557 230.984 347.373 232.865C346.189 234.74 344.338 236.281 341.818 237.488L341.062 236.363C343.148 235.373 344.745 234.143 345.853 232.672C346.966 231.201 347.602 229.52 347.76 227.627H341.783V226.502H349.166ZM359.695 227.416H367.43V225.43H368.801V231.67H364.23V233.34H370.664V234.482H356.426V233.34H362.859V231.67H358.324V225.43H359.695V227.416ZM367.43 230.562V228.506H359.695V230.562H367.43ZM369.082 240.09H358.271V235.73H359.66V238.93H369.082V240.09ZM381.141 229.244C381.141 230.076 381.272 230.908 381.536 231.74C381.8 232.572 382.178 233.331 382.67 234.017C383.168 234.702 383.754 235.244 384.428 235.643L383.637 236.715C382.904 236.27 382.269 235.657 381.729 234.878C381.196 234.093 380.786 233.211 380.499 232.232C380.206 233.287 379.775 234.236 379.207 235.08C378.639 235.924 377.971 236.58 377.203 237.049L376.324 236.012C377.027 235.602 377.643 235.042 378.17 234.333C378.697 233.618 379.102 232.824 379.383 231.951C379.664 231.072 379.805 230.188 379.805 229.297V226.273H381.141V229.244ZM389.895 240.424H388.559V224.797H389.895V240.424ZM386.66 239.633H385.359V231.582H382.705V230.404H385.359V225.131H386.66V239.633ZM400.459 227.082H394.359V229.051H400.02V230.176H394.359V232.232C396.135 232.232 397.547 232.206 398.596 232.153C399.645 232.095 400.693 231.98 401.742 231.811L401.883 232.936C400.787 233.111 399.694 233.229 398.604 233.287C397.515 233.346 396.059 233.375 394.236 233.375H392.971V225.957H400.459V227.082ZM404.959 234.5H403.588V224.814H404.959V234.5ZM399.773 234.729C400.852 234.723 401.786 234.831 402.577 235.054C403.368 235.271 403.975 235.593 404.396 236.021C404.818 236.442 405.029 236.949 405.029 237.541C405.029 238.145 404.818 238.657 404.396 239.079C403.975 239.507 403.368 239.832 402.577 240.055C401.792 240.277 400.857 240.389 399.773 240.389C398.666 240.389 397.717 240.277 396.926 240.055C396.135 239.838 395.528 239.516 395.106 239.088C394.69 238.66 394.482 238.145 394.482 237.541C394.482 236.949 394.69 236.442 395.106 236.021C395.528 235.593 396.135 235.271 396.926 235.054C397.723 234.831 398.672 234.723 399.773 234.729ZM399.773 235.818C398.959 235.818 398.256 235.889 397.664 236.029C397.078 236.164 396.63 236.36 396.319 236.618C396.009 236.876 395.854 237.184 395.854 237.541C395.854 237.91 396.009 238.227 396.319 238.49C396.63 238.754 397.078 238.953 397.664 239.088C398.256 239.229 398.959 239.299 399.773 239.299C400.57 239.299 401.262 239.229 401.848 239.088C402.434 238.947 402.885 238.745 403.201 238.481C403.518 238.218 403.676 237.904 403.676 237.541C403.676 237.189 403.518 236.885 403.201 236.627C402.885 236.363 402.431 236.164 401.839 236.029C401.253 235.889 400.564 235.818 399.773 235.818ZM43.5176 265.459H42.1289V249.797H43.5176V265.459ZM35.2031 251.01C35.9766 251.016 36.665 251.244 37.2686 251.695C37.8721 252.141 38.3438 252.773 38.6836 253.594C39.0234 254.414 39.1934 255.369 39.1934 256.459C39.1934 257.549 39.0234 258.504 38.6836 259.324C38.3438 260.145 37.8721 260.777 37.2686 261.223C36.665 261.668 35.9766 261.891 35.2031 261.891C34.4297 261.891 33.7383 261.668 33.1289 261.223C32.5254 260.777 32.0537 260.145 31.7139 259.324C31.3799 258.504 31.2129 257.549 31.2129 256.459C31.2129 255.369 31.3799 254.414 31.7139 253.594C32.0537 252.773 32.5254 252.141 33.1289 251.695C33.7324 251.244 34.4238 251.016 35.2031 251.01ZM35.2031 252.24C34.6816 252.246 34.2188 252.425 33.8145 252.776C33.416 253.122 33.1055 253.614 32.8828 254.253C32.6602 254.886 32.5488 255.621 32.5488 256.459C32.5488 257.297 32.6602 258.035 32.8828 258.674C33.1055 259.307 33.4189 259.796 33.8232 260.142C34.2275 260.487 34.6875 260.66 35.2031 260.66C35.7188 260.66 36.1787 260.487 36.583 260.142C36.9873 259.796 37.3008 259.307 37.5234 258.674C37.7461 258.035 37.8574 257.297 37.8574 256.459C37.8574 255.621 37.7461 254.886 37.5234 254.253C37.3008 253.614 36.9873 253.122 36.583 252.776C36.1846 252.425 35.7246 252.246 35.2031 252.24ZM62.8008 256.16H65.332V257.32H62.8008V265.424H61.4297V249.797H62.8008V256.16ZM58.7578 251.484C58.7578 253.811 58.1748 255.92 57.0088 257.812C55.8428 259.699 54.0352 261.246 51.5859 262.453L50.8125 261.363C52.8223 260.361 54.3779 259.125 55.4795 257.654C56.5811 256.178 57.2109 254.508 57.3691 252.645H51.5332V251.484H58.7578ZM78.8848 255.316H68.2148V250.113H69.5859V254.174H78.8848V255.316ZM80.5195 258.287H66.2637V257.145H80.5195V258.287ZM73.3828 259.693C74.502 259.693 75.4629 259.805 76.2656 260.027C77.0684 260.244 77.6836 260.566 78.1113 260.994C78.5391 261.416 78.7559 261.926 78.7617 262.523C78.7559 263.121 78.5391 263.631 78.1113 264.053C77.6836 264.48 77.0684 264.803 76.2656 265.02C75.4629 265.242 74.502 265.354 73.3828 265.354C72.2578 265.354 71.291 265.242 70.4824 265.02C69.6738 264.803 69.0557 264.48 68.6279 264.053C68.2002 263.631 67.9863 263.121 67.9863 262.523C67.9863 261.926 68.2002 261.416 68.6279 260.994C69.0557 260.566 69.6738 260.244 70.4824 260.027C71.291 259.805 72.2578 259.693 73.3828 259.693ZM73.3828 260.783C72.1172 260.795 71.1328 260.95 70.4297 261.249C69.7324 261.548 69.3867 261.973 69.3926 262.523C69.3867 262.887 69.542 263.2 69.8584 263.464C70.1748 263.728 70.6318 263.93 71.2295 264.07C71.833 264.211 72.5508 264.281 73.3828 264.281C74.2031 264.281 74.9121 264.211 75.5098 264.07C76.1133 263.93 76.5732 263.728 76.8896 263.464C77.2119 263.2 77.373 262.887 77.373 262.523C77.373 261.973 77.0215 261.548 76.3184 261.249C75.6152 260.95 74.6367 260.795 73.3828 260.783ZM93.9141 256.248H96.5332V257.391H93.9141V265.424H92.543V249.797H93.9141V256.248ZM91.0312 253.453H81.7324V252.311H85.7578V249.99H87.1289V252.311H91.0312V253.453ZM86.4609 254.754C87.1934 254.754 87.8496 254.906 88.4297 255.211C89.0098 255.516 89.4639 255.94 89.792 256.485C90.1201 257.03 90.2871 257.648 90.293 258.34C90.2871 259.031 90.1201 259.649 89.792 260.194C89.4639 260.739 89.0098 261.164 88.4297 261.469C87.8496 261.773 87.1934 261.926 86.4609 261.926C85.7227 261.926 85.0605 261.773 84.4746 261.469C83.8945 261.164 83.4404 260.739 83.1123 260.194C82.7842 259.649 82.623 259.031 82.6289 258.34C82.623 257.648 82.7842 257.03 83.1123 256.485C83.4404 255.94 83.8945 255.516 84.4746 255.211C85.0605 254.906 85.7227 254.754 86.4609 254.754ZM86.4609 255.914C85.9805 255.914 85.5469 256.02 85.1602 256.23C84.7793 256.436 84.4805 256.723 84.2637 257.092C84.0469 257.461 83.9414 257.877 83.9473 258.34C83.9414 258.809 84.0469 259.228 84.2637 259.597C84.4805 259.96 84.7793 260.244 85.1602 260.449C85.5469 260.654 85.9805 260.754 86.4609 260.748C86.9355 260.754 87.3633 260.654 87.7441 260.449C88.125 260.244 88.4238 259.96 88.6406 259.597C88.8574 259.228 88.9688 258.809 88.9746 258.34C88.9688 257.877 88.8574 257.461 88.6406 257.092C88.4238 256.723 88.125 256.436 87.7441 256.23C87.3633 256.02 86.9355 255.914 86.4609 255.914ZM105.129 253.559H108.961V249.797H110.332V265.459H108.961V259.008H105.129V261.469H98.0098V251.361H105.129V253.559ZM99.3809 260.361H103.793V252.451H99.3809V260.361ZM108.961 257.865V254.701H105.129V257.865H108.961ZM114.129 267.604H112.828L113.795 262.822H115.5L114.129 267.604ZM130.195 250.729C130.184 252.727 129.589 254.429 128.411 255.835C127.233 257.241 125.443 258.316 123.041 259.061L122.479 257.918C124.998 257.174 126.759 256.061 127.761 254.578L122.637 254.982L122.391 253.84L128.314 253.559C128.525 253.043 128.663 252.475 128.728 251.854H123.182V250.729H130.195ZM135.012 258.814H133.623V255.105H130.143V253.945H133.623V249.814H135.012V258.814ZM135.012 265.213H124.869V259.658H135.012V265.213ZM126.205 264.088H133.641V260.783H126.205V264.088ZM151.922 263.49H137.613V262.312H144.029V258.709H138.914V257.602H141.357V252.469H138.879V251.326H150.551V252.469H148.072V257.602H150.516V258.709H145.383V262.312H151.922V263.49ZM146.719 257.602V252.469H142.729V257.602H146.719ZM166.125 261.135H164.736V254.367H160.236V253.225H164.736V249.814H166.125V261.135ZM166.547 265.09H156.053V260.203H157.441V263.93H166.547V265.09ZM155.49 257.355C156.779 257.361 157.957 257.32 159.023 257.232C160.09 257.139 161.168 256.975 162.258 256.74L162.451 257.936C161.285 258.164 160.143 258.325 159.023 258.419C157.904 258.507 156.662 258.551 155.297 258.551H154.102V250.975H155.49V257.355ZM181.383 259.377H170.572V251.15H181.207V252.311H171.979V254.631H180.873V255.738H171.979V258.252H181.383V259.377ZM183.035 263.385H168.727V262.242H183.035V263.385ZM197.221 257.971H195.85V255.967H192.158V257.338H185.074V250.535H186.445V252.785H190.805V250.535H192.158V252.047H195.85V249.797H197.221V257.971ZM197.221 262.4H188.502V264.105H197.818V265.213H187.131V261.346H195.85V259.834H187.096V258.727H197.221V262.4ZM190.805 256.213V253.875H186.445V256.213H190.805ZM195.85 254.877V253.119H192.158V254.877H195.85ZM216.715 252.188C216.715 253.195 216.688 254.089 216.636 254.868C216.589 255.647 216.466 256.535 216.267 257.531H218.596V258.674H212.145V265.459H210.756V258.674H204.357V257.531H214.869C215.08 256.535 215.212 255.645 215.265 254.859C215.317 254.074 215.344 253.184 215.344 252.188V251.959H206.15V250.816H216.715V252.188ZM234.223 263.42H219.914V262.26H226.365V258.463H227.754V262.26H234.223V263.42ZM227.754 252.768C227.754 253.564 228.041 254.326 228.615 255.053C229.189 255.773 229.925 256.383 230.821 256.881C231.718 257.373 232.623 257.695 233.537 257.848L232.975 258.938C232.16 258.779 231.36 258.51 230.575 258.129C229.796 257.742 229.096 257.262 228.475 256.688C227.854 256.113 227.382 255.478 227.06 254.78C226.737 255.483 226.266 256.125 225.645 256.705C225.029 257.285 224.332 257.771 223.553 258.164C222.779 258.557 221.994 258.838 221.197 259.008L220.617 257.9C221.514 257.742 222.404 257.411 223.289 256.907C224.174 256.403 224.9 255.785 225.469 255.053C226.043 254.32 226.33 253.559 226.33 252.768V252.381H221.092V251.221H232.992V252.381H227.754V252.768ZM252.943 257.883H251.555V253.822H248.074V252.68H251.555V249.797H252.943V257.883ZM252.943 262.4H244.207V264.105H253.523V265.213H242.854V261.346H251.572V259.781H242.818V258.674H252.943V262.4ZM245.314 251.783C245.309 252.457 245.47 253.104 245.798 253.726C246.126 254.347 246.586 254.895 247.178 255.369C247.77 255.844 248.443 256.207 249.199 256.459L248.461 257.531C247.594 257.221 246.829 256.77 246.167 256.178C245.505 255.586 245.001 254.897 244.655 254.112C244.327 254.997 243.823 255.771 243.144 256.433C242.464 257.089 241.658 257.584 240.727 257.918L239.971 256.811C240.75 256.553 241.438 256.175 242.036 255.677C242.64 255.173 243.108 254.587 243.442 253.919C243.782 253.245 243.955 252.533 243.961 251.783V250.307H245.314V251.783ZM268.922 265.424H267.604V249.797H268.922V265.424ZM265.758 264.633H264.439V259.219H261.539V258.076H264.439V255.299H261.794C261.407 256.664 260.766 257.915 259.869 259.052C258.973 260.188 257.807 261.188 256.371 262.049L255.527 261.047C257.197 260.062 258.475 258.885 259.359 257.514C260.25 256.137 260.766 254.613 260.906 252.943H256.23V251.801H262.277C262.277 252.604 262.207 253.389 262.066 254.156H264.439V250.219H265.758V264.633ZM284.496 265.424H283.16V249.797H284.496V265.424ZM281.35 264.633H280.031V257.039H278.019C277.972 258.047 277.805 258.923 277.518 259.667C277.23 260.405 276.841 260.977 276.349 261.381C275.856 261.779 275.291 261.979 274.652 261.979C273.979 261.979 273.387 261.759 272.877 261.319C272.373 260.874 271.983 260.241 271.708 259.421C271.433 258.601 271.295 257.643 271.295 256.547C271.295 255.451 271.433 254.493 271.708 253.673C271.983 252.853 272.373 252.223 272.877 251.783C273.387 251.338 273.979 251.115 274.652 251.115C275.279 251.115 275.836 251.309 276.322 251.695C276.809 252.082 277.195 252.636 277.482 253.356C277.775 254.077 277.951 254.924 278.01 255.896H280.031V250.131H281.35V264.633ZM274.652 252.416C274.23 252.416 273.864 252.583 273.554 252.917C273.243 253.251 273.003 253.731 272.833 254.358C272.669 254.979 272.59 255.709 272.596 256.547C272.59 257.385 272.669 258.114 272.833 258.735C273.003 259.356 273.243 259.834 273.554 260.168C273.87 260.502 274.236 260.666 274.652 260.66C275.068 260.666 275.432 260.502 275.742 260.168C276.059 259.834 276.302 259.356 276.472 258.735C276.642 258.114 276.727 257.385 276.727 256.547C276.727 255.703 276.642 254.971 276.472 254.35C276.302 253.729 276.062 253.251 275.751 252.917C275.44 252.583 275.074 252.416 274.652 252.416ZM303.797 255.316H293.127V250.113H294.498V254.174H303.797V255.316ZM305.432 258.287H291.176V257.145H305.432V258.287ZM298.295 259.693C299.414 259.693 300.375 259.805 301.178 260.027C301.98 260.244 302.596 260.566 303.023 260.994C303.451 261.416 303.668 261.926 303.674 262.523C303.668 263.121 303.451 263.631 303.023 264.053C302.596 264.48 301.98 264.803 301.178 265.02C300.375 265.242 299.414 265.354 298.295 265.354C297.17 265.354 296.203 265.242 295.395 265.02C294.586 264.803 293.968 264.48 293.54 264.053C293.112 263.631 292.898 263.121 292.898 262.523C292.898 261.926 293.112 261.416 293.54 260.994C293.968 260.566 294.586 260.244 295.395 260.027C296.203 259.805 297.17 259.693 298.295 259.693ZM298.295 260.783C297.029 260.795 296.045 260.95 295.342 261.249C294.645 261.548 294.299 261.973 294.305 262.523C294.299 262.887 294.454 263.2 294.771 263.464C295.087 263.728 295.544 263.93 296.142 264.07C296.745 264.211 297.463 264.281 298.295 264.281C299.115 264.281 299.824 264.211 300.422 264.07C301.025 263.93 301.485 263.728 301.802 263.464C302.124 263.2 302.285 262.887 302.285 262.523C302.285 261.973 301.934 261.548 301.23 261.249C300.527 260.95 299.549 260.795 298.295 260.783ZM314.572 250.746C314.572 251.385 314.842 251.997 315.381 252.583C315.92 253.163 316.62 253.658 317.481 254.068C318.343 254.473 319.236 254.742 320.162 254.877L319.617 255.949C318.809 255.82 318.023 255.601 317.262 255.29C316.506 254.974 315.829 254.581 315.231 254.112C314.64 253.644 314.183 253.122 313.86 252.548C313.538 253.128 313.078 253.652 312.48 254.121C311.883 254.584 311.203 254.974 310.441 255.29C309.686 255.601 308.9 255.82 308.086 255.949L307.559 254.877C308.49 254.742 309.387 254.473 310.248 254.068C311.109 253.664 311.807 253.172 312.34 252.592C312.879 252.006 313.148 251.391 313.148 250.746V250.008H314.572V250.746ZM320.971 258.34H314.52V260.344H319.213V265.424H317.824V261.469H308.314V260.344H313.166V258.34H306.732V257.197H320.971V258.34ZM334.506 253.805H336.861V254.982H334.506V258.885H333.135V249.797H334.506V253.805ZM325.998 261.24H333.135V259.57H334.506V265.213H324.627V259.57H325.998V261.24ZM333.135 264.105V262.33H325.998V264.105H333.135ZM331.641 252.557H322.324V251.414H326.297V249.656H327.668V251.414H331.641V252.557ZM326.982 253.277C327.727 253.277 328.38 253.392 328.942 253.62C329.511 253.843 329.95 254.162 330.261 254.578C330.577 254.988 330.738 255.469 330.744 256.02C330.738 256.57 330.577 257.054 330.261 257.47C329.95 257.88 329.511 258.199 328.942 258.428C328.38 258.65 327.727 258.762 326.982 258.762C326.232 258.762 325.57 258.65 324.996 258.428C324.428 258.199 323.988 257.88 323.678 257.47C323.367 257.054 323.215 256.57 323.221 256.02C323.215 255.469 323.367 254.988 323.678 254.578C323.988 254.162 324.428 253.843 324.996 253.62C325.57 253.392 326.232 253.277 326.982 253.277ZM326.982 254.35C326.496 254.344 326.065 254.411 325.69 254.552C325.321 254.687 325.034 254.883 324.829 255.141C324.63 255.398 324.533 255.691 324.539 256.02C324.533 256.354 324.63 256.649 324.829 256.907C325.034 257.159 325.321 257.355 325.69 257.496C326.065 257.637 326.496 257.707 326.982 257.707C327.463 257.707 327.888 257.637 328.257 257.496C328.632 257.355 328.922 257.159 329.127 256.907C329.332 256.649 329.438 256.354 329.443 256.02C329.438 255.686 329.329 255.393 329.118 255.141C328.913 254.883 328.626 254.687 328.257 254.552C327.888 254.411 327.463 254.344 326.982 254.35ZM350.73 265.424H349.359V249.797H350.73V265.424ZM340.219 260.203C342.861 260.191 345.352 259.939 347.689 259.447L347.883 260.625C346.553 260.9 345.258 261.1 343.998 261.223C342.738 261.34 341.449 261.398 340.131 261.398H338.865V251.344H340.219V260.203ZM365.496 255.984H368.115V257.145H365.496V265.459H364.125V249.797H365.496V255.984ZM361.383 252.469H355.459V260.379C356.918 260.379 358.192 260.338 359.282 260.256C360.372 260.174 361.482 260.027 362.613 259.816L362.789 261.012C361.635 261.223 360.501 261.363 359.388 261.434C358.274 261.504 356.918 261.539 355.318 261.539H354.088V251.326H361.383V252.469ZM370.611 264.105C370.406 264.105 370.216 264.056 370.04 263.956C369.87 263.851 369.732 263.71 369.627 263.534C369.527 263.358 369.48 263.168 369.486 262.963C369.48 262.764 369.527 262.579 369.627 262.409C369.732 262.233 369.87 262.096 370.04 261.996C370.216 261.891 370.406 261.838 370.611 261.838C370.811 261.838 370.995 261.891 371.165 261.996C371.341 262.096 371.479 262.233 371.578 262.409C371.684 262.579 371.736 262.764 371.736 262.963C371.736 263.168 371.684 263.358 371.578 263.534C371.479 263.71 371.341 263.851 371.165 263.956C370.995 264.056 370.811 264.105 370.611 264.105ZM43.5176 315.459H42.1289V299.797H43.5176V315.459ZM39.0879 302.451H33.041V310.379C34.6465 310.379 35.9971 310.344 37.0928 310.273C38.1943 310.203 39.3047 310.068 40.4238 309.869L40.5645 311.029C39.416 311.234 38.2822 311.375 37.1631 311.451C36.0439 311.521 34.6289 311.562 32.918 311.574H31.6523V301.291H39.0879V302.451ZM51.4805 304.596C51.4746 305.416 51.6504 306.251 52.0078 307.101C52.3711 307.944 52.8633 308.709 53.4844 309.395C54.1055 310.074 54.791 310.59 55.541 310.941L54.75 312.031C53.877 311.609 53.0889 310.965 52.3857 310.098C51.6885 309.23 51.1611 308.264 50.8037 307.197C50.5693 307.959 50.2471 308.683 49.8369 309.368C49.4268 310.054 48.958 310.66 48.4307 311.188C47.9033 311.709 47.3496 312.119 46.7695 312.418L45.9258 311.328C46.6699 310.971 47.3613 310.429 48 309.702C48.6445 308.976 49.1572 308.161 49.5381 307.259C49.9248 306.356 50.1211 305.469 50.127 304.596V302.557H46.4883V301.414H54.9961V302.557H51.4805V304.596ZM58.2832 306.125H60.9023V307.303H58.2832V315.424H56.9121V299.797H58.2832V306.125ZM74.6309 315.459H73.2422V299.797H74.6309V315.459ZM66.3164 301.01C67.0898 301.016 67.7783 301.244 68.3818 301.695C68.9854 302.141 69.457 302.773 69.7969 303.594C70.1367 304.414 70.3066 305.369 70.3066 306.459C70.3066 307.549 70.1367 308.504 69.7969 309.324C69.457 310.145 68.9854 310.777 68.3818 311.223C67.7783 311.668 67.0898 311.891 66.3164 311.891C65.543 311.891 64.8516 311.668 64.2422 311.223C63.6387 310.777 63.167 310.145 62.8271 309.324C62.4932 308.504 62.3262 307.549 62.3262 306.459C62.3262 305.369 62.4932 304.414 62.8271 303.594C63.167 302.773 63.6387 302.141 64.2422 301.695C64.8457 301.244 65.5371 301.016 66.3164 301.01ZM66.3164 302.24C65.7949 302.246 65.332 302.425 64.9277 302.776C64.5293 303.122 64.2188 303.614 63.9961 304.253C63.7734 304.886 63.6621 305.621 63.6621 306.459C63.6621 307.297 63.7734 308.035 63.9961 308.674C64.2188 309.307 64.5322 309.796 64.9365 310.142C65.3408 310.487 65.8008 310.66 66.3164 310.66C66.832 310.66 67.292 310.487 67.6963 310.142C68.1006 309.796 68.4141 309.307 68.6367 308.674C68.8594 308.035 68.9707 307.297 68.9707 306.459C68.9707 305.621 68.8594 304.886 68.6367 304.253C68.4141 303.614 68.1006 303.122 67.6963 302.776C67.2979 302.425 66.8379 302.246 66.3164 302.24ZM90.2754 315.459H88.8867V306.107H84.0176V304.965H88.8867V299.797H90.2754V315.459ZM79.5527 310.502C80.8711 310.49 82.0693 310.44 83.1475 310.353C84.2256 310.259 85.3125 310.098 86.4082 309.869L86.584 311.012C85.3945 311.252 84.2314 311.422 83.0947 311.521C81.958 311.615 80.7129 311.662 79.3594 311.662H78.1641V301.555H79.5527V310.502ZM107.168 313.49H92.8594V312.33H99.293V309.377H94.6523V304.561H104.004V302.1H94.6172V300.957H105.357V305.686H96.0234V308.234H105.727V309.377H100.646V312.33H107.168V313.49ZM113.918 303.998C113.918 304.924 114.1 305.838 114.463 306.74C114.826 307.643 115.318 308.445 115.939 309.148C116.561 309.846 117.246 310.367 117.996 310.713L117.17 311.838C116.285 311.381 115.494 310.71 114.797 309.825C114.1 308.94 113.578 307.941 113.232 306.828C112.881 308.006 112.356 309.063 111.659 310.001C110.968 310.938 110.18 311.645 109.295 312.119L108.398 311.012C109.154 310.643 109.846 310.089 110.473 309.351C111.1 308.606 111.595 307.766 111.958 306.828C112.327 305.885 112.512 304.941 112.512 303.998V301.15H113.918V303.998ZM121.371 315.459H120V306.266H116.291V305.141H120V299.797H121.371V315.459ZM129.088 300.939C129.902 300.939 130.626 301.095 131.259 301.405C131.897 301.716 132.396 302.149 132.753 302.706C133.11 303.263 133.289 303.898 133.289 304.613C133.289 305.328 133.11 305.964 132.753 306.521C132.396 307.077 131.897 307.511 131.259 307.821C130.626 308.132 129.902 308.287 129.088 308.287C128.273 308.287 127.544 308.132 126.899 307.821C126.261 307.511 125.76 307.077 125.396 306.521C125.039 305.964 124.863 305.328 124.869 304.613C124.863 303.898 125.039 303.263 125.396 302.706C125.76 302.149 126.261 301.716 126.899 301.405C127.544 301.095 128.273 300.939 129.088 300.939ZM129.088 302.152C128.537 302.152 128.042 302.258 127.603 302.469C127.169 302.674 126.829 302.964 126.583 303.339C126.337 303.708 126.217 304.133 126.223 304.613C126.217 305.094 126.337 305.521 126.583 305.896C126.829 306.266 127.169 306.556 127.603 306.767C128.042 306.972 128.537 307.074 129.088 307.074C129.633 307.074 130.122 306.972 130.556 306.767C130.989 306.556 131.326 306.266 131.566 305.896C131.812 305.521 131.936 305.094 131.936 304.613C131.936 304.133 131.812 303.708 131.566 303.339C131.326 302.964 130.989 302.674 130.556 302.469C130.122 302.258 129.633 302.152 129.088 302.152ZM136.787 315.459H135.416V299.797H136.787V315.459ZM124.061 310.836C126.088 310.836 127.931 310.804 129.589 310.739C131.253 310.675 132.85 310.531 134.379 310.309L134.484 311.328C132.914 311.621 131.312 311.809 129.677 311.891C128.048 311.973 126.24 312.014 124.254 312.014L124.061 310.836ZM144.82 301.273H146.402V306.934H153.135V301.273H154.734V314H153.135V308.322H146.402V314H144.82V301.273ZM156.826 301.273H166.424V302.68H162.434V314H160.834V302.68H156.826V301.273ZM170.432 301.273L174.721 311.75H174.879L179.168 301.273H181.066V314H179.572V304.385H179.449L175.494 314H174.088L170.133 304.385H170.027V314H168.533V301.273H170.432ZM183.879 301.273H185.461V312.594H191.367V314H183.879V301.273ZM210.105 315.459H208.717V299.797H210.105V315.459ZM201.791 301.01C202.564 301.016 203.253 301.244 203.856 301.695C204.46 302.141 204.932 302.773 205.271 303.594C205.611 304.414 205.781 305.369 205.781 306.459C205.781 307.549 205.611 308.504 205.271 309.324C204.932 310.145 204.46 310.777 203.856 311.223C203.253 311.668 202.564 311.891 201.791 311.891C201.018 311.891 200.326 311.668 199.717 311.223C199.113 310.777 198.642 310.145 198.302 309.324C197.968 308.504 197.801 307.549 197.801 306.459C197.801 305.369 197.968 304.414 198.302 303.594C198.642 302.773 199.113 302.141 199.717 301.695C200.32 301.244 201.012 301.016 201.791 301.01ZM201.791 302.24C201.27 302.246 200.807 302.425 200.402 302.776C200.004 303.122 199.693 303.614 199.471 304.253C199.248 304.886 199.137 305.621 199.137 306.459C199.137 307.297 199.248 308.035 199.471 308.674C199.693 309.307 200.007 309.796 200.411 310.142C200.815 310.487 201.275 310.66 201.791 310.66C202.307 310.66 202.767 310.487 203.171 310.142C203.575 309.796 203.889 309.307 204.111 308.674C204.334 308.035 204.445 307.297 204.445 306.459C204.445 305.621 204.334 304.886 204.111 304.253C203.889 303.614 203.575 303.122 203.171 302.776C202.772 302.425 202.312 302.246 201.791 302.24ZM220.582 303.629H212.742V302.504H215.994V300.271H217.365V302.504H220.582V303.629ZM216.662 304.684C217.312 304.684 217.893 304.836 218.402 305.141C218.918 305.439 219.319 305.858 219.606 306.397C219.899 306.937 220.049 307.549 220.055 308.234C220.049 308.926 219.899 309.544 219.606 310.089C219.319 310.628 218.918 311.053 218.402 311.363C217.893 311.668 217.312 311.82 216.662 311.82C216.018 311.82 215.44 311.668 214.931 311.363C214.421 311.053 214.022 310.625 213.735 310.08C213.448 309.535 213.305 308.92 213.305 308.234C213.305 307.555 213.448 306.945 213.735 306.406C214.022 305.861 214.421 305.439 214.931 305.141C215.44 304.836 216.018 304.684 216.662 304.684ZM216.662 305.844C216.258 305.85 215.892 305.958 215.563 306.169C215.241 306.374 214.989 306.658 214.808 307.021C214.626 307.379 214.535 307.783 214.535 308.234C214.535 308.691 214.626 309.102 214.808 309.465C214.995 309.828 215.25 310.112 215.572 310.317C215.895 310.517 216.258 310.613 216.662 310.607C217.072 310.613 217.441 310.517 217.77 310.317C218.098 310.112 218.355 309.828 218.543 309.465C218.73 309.102 218.824 308.691 218.824 308.234C218.824 307.783 218.73 307.379 218.543 307.021C218.355 306.658 218.098 306.374 217.77 306.169C217.441 305.958 217.072 305.85 216.662 305.844ZM226.084 315.424H224.766V307.531H222.691V314.65H221.391V300.184H222.691V306.389H224.766V299.797H226.084V315.424ZM240.955 308.252H236.121V312.295H242.643V313.455H228.334V312.295H234.768V308.252H230.162V301.08H240.797V302.205H231.551V307.127H240.955V308.252ZM258.182 308.146H243.873V307.057H258.182V308.146ZM256.389 312.717H247.002V314.211H256.898V315.213H245.613V311.768H255.018V310.432H245.596V309.395H256.389V312.717ZM256.336 303.506H247.107V304.877H256.617V305.879H245.736V302.557H254.947V301.273H245.684V300.271H256.336V303.506ZM276.182 303.822H278.537V304.982H276.182V308.744H274.811V299.779H276.182V303.822ZM271.928 300.799C271.928 302.1 271.635 303.274 271.049 304.323C270.463 305.372 269.616 306.269 268.509 307.013C267.407 307.751 266.08 308.322 264.527 308.727L264 307.602C265.289 307.268 266.399 306.822 267.331 306.266C268.263 305.709 268.989 305.064 269.511 304.332C270.038 303.6 270.343 302.803 270.425 301.941H264.686V300.799H271.928ZM276.463 310.625H272.033C272.057 311.188 272.303 311.727 272.771 312.242C273.24 312.758 273.855 313.197 274.617 313.561C275.379 313.924 276.193 314.176 277.061 314.316L276.533 315.389C275.361 315.189 274.304 314.812 273.36 314.255C272.423 313.698 271.74 313.024 271.312 312.233C270.885 313.019 270.199 313.689 269.256 314.246C268.318 314.803 267.27 315.184 266.109 315.389L265.564 314.299C266.438 314.164 267.252 313.918 268.008 313.561C268.764 313.203 269.376 312.77 269.845 312.26C270.313 311.744 270.562 311.199 270.592 310.625H266.162V309.518H276.463V310.625ZM293.76 310.414H287.309V315.459H285.955V310.414H279.521V309.254H293.76V310.414ZM287.326 302.891C287.326 303.518 287.587 304.118 288.108 304.692C288.63 305.261 289.315 305.744 290.165 306.143C291.015 306.541 291.908 306.805 292.846 306.934L292.336 308.041C291.527 307.918 290.748 307.704 289.998 307.399C289.254 307.095 288.589 306.717 288.003 306.266C287.423 305.814 286.972 305.311 286.649 304.754C286.327 305.316 285.87 305.823 285.278 306.274C284.692 306.726 284.024 307.104 283.274 307.408C282.524 307.707 281.742 307.918 280.928 308.041L280.418 306.934C281.355 306.805 282.249 306.544 283.099 306.151C283.948 305.753 284.637 305.27 285.164 304.701C285.691 304.127 285.955 303.523 285.955 302.891V302.873H280.91V301.748H285.955V299.797H287.309V301.748H292.389V302.873H287.326V302.891ZM307.611 302.943V303.137C307.6 304.426 307.559 305.583 307.488 306.608C307.424 307.628 307.271 308.809 307.031 310.15L305.625 309.992C305.812 309.066 305.947 308.193 306.029 307.373C306.117 306.553 306.17 305.823 306.188 305.185C306.211 304.546 306.223 303.799 306.223 302.943V302.521H296.59V301.379H307.611V302.943ZM309.316 313.209H295.078V312.066H300.668V306.477H302.021V312.066H309.316V313.209ZM320.443 310.291C320.443 311.012 320.634 311.706 321.015 312.374C321.401 313.042 321.952 313.578 322.667 313.982C323.142 313.684 323.552 313.326 323.897 312.91C324.243 312.488 324.504 312.052 324.68 311.601C324.855 311.144 324.943 310.707 324.943 310.291V309.43H326.297V310.291C326.297 310.83 326.423 311.357 326.675 311.873C326.933 312.383 327.302 312.843 327.782 313.253C328.263 313.657 328.828 313.971 329.479 314.193L328.793 315.213C328.025 314.943 327.369 314.551 326.824 314.035C326.279 313.52 325.869 312.928 325.594 312.26C325.336 312.928 324.964 313.534 324.478 314.079C323.991 314.624 323.402 315.043 322.711 315.336C321.979 315.055 321.363 314.647 320.865 314.114C320.373 313.587 320.004 312.98 319.758 312.295C319.471 312.945 319.061 313.525 318.527 314.035C317.994 314.545 317.361 314.938 316.629 315.213L315.926 314.193C316.564 313.953 317.121 313.625 317.596 313.209C318.076 312.787 318.445 312.321 318.703 311.812C318.967 311.302 319.102 310.795 319.107 310.291V309.43H320.443V310.291ZM328.055 308.744H326.684V299.814H328.055V308.744ZM319.617 300.729C320.402 300.729 321.105 300.884 321.727 301.194C322.348 301.499 322.834 301.93 323.186 302.486C323.537 303.037 323.713 303.67 323.713 304.385C323.713 305.088 323.537 305.715 323.186 306.266C322.834 306.816 322.348 307.244 321.727 307.549C321.105 307.854 320.402 308.006 319.617 308.006C318.832 308.006 318.129 307.854 317.508 307.549C316.887 307.244 316.4 306.816 316.049 306.266C315.697 305.715 315.521 305.088 315.521 304.385C315.521 303.67 315.697 303.037 316.049 302.486C316.4 301.93 316.887 301.499 317.508 301.194C318.129 300.884 318.832 300.729 319.617 300.729ZM319.617 301.906C319.09 301.9 318.615 302.003 318.193 302.214C317.777 302.425 317.452 302.721 317.218 303.102C316.983 303.477 316.869 303.904 316.875 304.385C316.869 304.859 316.983 305.284 317.218 305.659C317.452 306.034 317.777 306.327 318.193 306.538C318.615 306.749 319.09 306.857 319.617 306.863C320.139 306.857 320.607 306.749 321.023 306.538C321.439 306.327 321.765 306.034 321.999 305.659C322.239 305.284 322.359 304.859 322.359 304.385C322.359 303.904 322.239 303.477 321.999 303.102C321.765 302.721 321.439 302.425 321.023 302.214C320.607 302.003 320.139 301.9 319.617 301.906ZM337.828 300.816C338.912 300.816 339.888 300.995 340.755 301.353C341.622 301.71 342.302 302.214 342.794 302.864C343.292 303.515 343.541 304.262 343.541 305.105C343.541 305.955 343.292 306.708 342.794 307.364C342.302 308.015 341.622 308.519 340.755 308.876C339.888 309.228 338.912 309.4 337.828 309.395C336.744 309.4 335.769 309.228 334.901 308.876C334.034 308.519 333.352 308.015 332.854 307.364C332.361 306.708 332.115 305.955 332.115 305.105C332.115 304.262 332.361 303.515 332.854 302.864C333.352 302.214 334.034 301.71 334.901 301.353C335.769 300.995 336.744 300.816 337.828 300.816ZM337.828 301.941C336.996 301.936 336.243 302.067 335.569 302.337C334.901 302.606 334.377 302.984 333.996 303.471C333.615 303.951 333.428 304.496 333.434 305.105C333.428 305.727 333.615 306.277 333.996 306.758C334.377 307.238 334.901 307.61 335.569 307.874C336.243 308.138 336.996 308.27 337.828 308.27C338.654 308.27 339.398 308.138 340.061 307.874C340.729 307.61 341.253 307.238 341.634 306.758C342.015 306.277 342.205 305.727 342.205 305.105C342.205 304.496 342.015 303.951 341.634 303.471C341.253 302.984 340.729 302.606 340.061 302.337C339.398 302.067 338.654 301.936 337.828 301.941ZM345.018 313.35H330.709V312.189H345.018V313.35ZM354.018 303.559H357.85V299.797H359.221V315.459H357.85V309.008H354.018V311.469H346.898V301.361H354.018V303.559ZM348.27 310.361H352.682V302.451H348.27V310.361ZM357.85 307.865V304.701H354.018V307.865H357.85ZM363.018 317.604H361.717L362.684 312.822H364.389L363.018 317.604ZM383.162 303.225H385.518V304.385H383.162V307.795H381.791V299.797H383.162V303.225ZM383.162 312.33H374.549V314.105H383.795V315.213H373.195V311.258H381.826V309.623H373.143V308.533H383.162V312.33ZM375.551 300.676C375.551 301.666 375.416 302.551 375.146 303.33C374.883 304.104 374.487 304.801 373.96 305.422C373.438 306.037 372.773 306.623 371.965 307.18L371.033 306.301C371.672 305.896 372.205 305.483 372.633 305.062C373.066 304.64 373.415 304.165 373.679 303.638C373.948 303.11 374.124 302.504 374.206 301.818H371.385V300.676H375.551ZM379.998 300.676C379.986 302.252 379.708 303.617 379.163 304.771C378.618 305.926 377.725 306.963 376.482 307.883L375.498 307.057C376.506 306.342 377.259 305.571 377.757 304.745C378.261 303.913 378.56 302.938 378.653 301.818H376.184V300.676H379.998ZM400.793 307.338H386.502V306.213H390.914C391.307 304.654 391.523 303.131 391.564 301.643H387.838V300.5H392.936V300.957C392.924 301.496 392.906 301.977 392.883 302.398C392.865 302.82 392.81 303.368 392.716 304.042C392.622 304.716 392.479 305.439 392.285 306.213H397.11C397.45 304.666 397.632 303.143 397.655 301.643H393.99V300.5H399V301.133C399 301.906 398.971 302.686 398.912 303.471C398.854 304.256 398.71 305.17 398.481 306.213H400.793V307.338ZM399 315.16H388.26V309.57H399V315.16ZM389.631 314.053H397.629V310.678H389.631V314.053ZM414.275 304.965H416.631V306.125H414.275V311.521H412.904V299.814H414.275V304.965ZM411.41 302.855H402.094V301.73H406.066V299.814H407.438V301.73H411.41V302.855ZM406.752 303.717C407.49 303.717 408.141 303.837 408.703 304.077C409.271 304.317 409.714 304.657 410.03 305.097C410.347 305.536 410.508 306.049 410.514 306.635C410.508 307.215 410.347 307.722 410.03 308.155C409.714 308.589 409.271 308.926 408.703 309.166C408.141 309.4 407.49 309.518 406.752 309.518C406.008 309.518 405.349 309.4 404.774 309.166C404.206 308.926 403.764 308.589 403.447 308.155C403.137 307.722 402.984 307.215 402.99 306.635C402.984 306.049 403.137 305.536 403.447 305.097C403.764 304.657 404.206 304.317 404.774 304.077C405.349 303.837 406.008 303.717 406.752 303.717ZM406.752 304.807C406.266 304.807 405.835 304.883 405.46 305.035C405.091 305.182 404.804 305.396 404.599 305.677C404.399 305.952 404.303 306.271 404.309 306.635C404.303 306.998 404.399 307.317 404.599 307.593C404.804 307.862 405.091 308.07 405.46 308.217C405.835 308.363 406.266 308.434 406.752 308.428C407.232 308.434 407.657 308.363 408.026 308.217C408.401 308.07 408.691 307.862 408.896 307.593C409.102 307.317 409.207 306.998 409.213 306.635C409.207 306.271 409.102 305.952 408.896 305.677C408.691 305.396 408.401 305.182 408.026 305.035C407.657 304.883 407.232 304.807 406.752 304.807ZM414.996 315.09H404.502V310.59H405.855V313.93H414.996V315.09ZM38.4902 336.451H31.2832V326.379H38.4902V336.451ZM32.6191 335.326H37.1191V327.486H32.6191V335.326ZM42.7266 331.037H45.3457V332.232H42.7266V340.424H41.3555V324.797H42.7266V331.037ZM58.6523 328.33C58.6523 329.338 58.6406 330.185 58.6172 330.87C58.5996 331.556 58.5439 332.323 58.4502 333.173C58.3564 334.017 58.207 334.934 58.002 335.924L56.6133 335.801C56.9238 334.447 57.126 333.108 57.2197 331.784L47.6836 332.303L47.4902 331.16L57.2725 330.756C57.2842 330.428 57.293 330.103 57.2988 329.78C57.3047 329.452 57.3105 329.127 57.3164 328.805V328.33V327.557H47.9121V326.396H58.6523V328.33ZM60.4277 338.227H46.1895V337.066H60.4277V338.227ZM66.0527 325.535C66.7441 325.529 67.374 325.652 67.9424 325.904C68.5107 326.15 68.9766 326.502 69.3398 326.959C69.709 327.416 69.9434 327.943 70.043 328.541H73.3125V324.797H74.7012V333.182H73.3125V329.684H70.0518C69.9639 330.293 69.7354 330.832 69.3662 331.301C69.0029 331.764 68.5342 332.124 67.96 332.382C67.3857 332.634 66.75 332.76 66.0527 332.76C65.2676 332.76 64.5674 332.607 63.9521 332.303C63.3369 331.998 62.8564 331.57 62.5107 331.02C62.165 330.469 61.9922 329.842 61.9922 329.139C61.9922 328.436 62.165 327.812 62.5107 327.267C62.8564 326.716 63.3369 326.288 63.9521 325.983C64.5732 325.679 65.2734 325.529 66.0527 325.535ZM66.0527 326.713C65.5254 326.707 65.0537 326.807 64.6377 327.012C64.2217 327.217 63.8965 327.504 63.6621 327.873C63.4277 328.242 63.3105 328.664 63.3105 329.139C63.3105 329.607 63.4277 330.029 63.6621 330.404C63.8965 330.779 64.2217 331.072 64.6377 331.283C65.0537 331.494 65.5254 331.6 66.0527 331.6C66.5742 331.6 67.04 331.494 67.4502 331.283C67.8604 331.072 68.1797 330.779 68.4082 330.404C68.6426 330.029 68.7598 329.607 68.7598 329.139C68.7598 328.664 68.6426 328.242 68.4082 327.873C68.1797 327.504 67.8604 327.217 67.4502 327.012C67.04 326.807 66.5742 326.707 66.0527 326.713ZM66.0176 335.959H73.3125V333.973H74.7012V340.213H64.6289V333.973H66.0176V335.959ZM73.3125 339.088V337.066H66.0176V339.088H73.3125ZM94.1777 327.188C94.1777 328.195 94.1514 329.089 94.0986 329.868C94.0518 330.647 93.9287 331.535 93.7295 332.531H96.0586V333.674H89.6074V340.459H88.2188V333.674H81.8203V332.531H92.332C92.543 331.535 92.6748 330.645 92.7275 329.859C92.7803 329.074 92.8066 328.184 92.8066 327.188V326.959H83.6133V325.816H94.1777V327.188ZM111.686 338.42H97.377V337.26H103.828V333.463H105.217V337.26H111.686V338.42ZM105.217 327.768C105.217 328.564 105.504 329.326 106.078 330.053C106.652 330.773 107.388 331.383 108.284 331.881C109.181 332.373 110.086 332.695 111 332.848L110.438 333.938C109.623 333.779 108.823 333.51 108.038 333.129C107.259 332.742 106.559 332.262 105.938 331.688C105.316 331.113 104.845 330.478 104.522 329.78C104.2 330.483 103.729 331.125 103.107 331.705C102.492 332.285 101.795 332.771 101.016 333.164C100.242 333.557 99.457 333.838 98.6602 334.008L98.0801 332.9C98.9766 332.742 99.8672 332.411 100.752 331.907C101.637 331.403 102.363 330.785 102.932 330.053C103.506 329.32 103.793 328.559 103.793 327.768V327.381H98.5547V326.221H110.455V327.381H105.217V327.768ZM127.242 338.49H112.934V337.33H119.367V334.377H114.727V329.561H124.078V327.1H114.691V325.957H125.432V330.686H116.098V333.234H125.801V334.377H120.721V337.33H127.242V338.49ZM147.299 334.852H143.52V340.424H142.131V334.852H138.123V340.424H136.699V334.852H132.99V333.709H147.299V334.852ZM140.109 325.43C141.199 325.43 142.16 325.57 142.992 325.852C143.824 326.127 144.469 326.522 144.926 327.038C145.383 327.554 145.611 328.154 145.611 328.84C145.611 329.525 145.38 330.123 144.917 330.633C144.46 331.143 143.815 331.535 142.983 331.811C142.157 332.086 141.199 332.221 140.109 332.215C139.02 332.221 138.059 332.086 137.227 331.811C136.4 331.535 135.756 331.143 135.293 330.633C134.836 330.123 134.607 329.525 134.607 328.84C134.607 328.154 134.836 327.554 135.293 327.038C135.75 326.522 136.395 326.127 137.227 325.852C138.059 325.57 139.02 325.43 140.109 325.43ZM140.109 326.555C139.301 326.555 138.586 326.648 137.965 326.836C137.35 327.023 136.872 327.29 136.532 327.636C136.192 327.981 136.025 328.383 136.031 328.84C136.025 329.297 136.192 329.698 136.532 330.044C136.872 330.384 137.35 330.647 137.965 330.835C138.586 331.017 139.301 331.107 140.109 331.107C140.912 331.107 141.624 331.017 142.245 330.835C142.866 330.647 143.347 330.384 143.687 330.044C144.032 329.698 144.205 329.297 144.205 328.84C144.205 328.383 144.032 327.981 143.687 327.636C143.347 327.29 142.866 327.023 142.245 326.836C141.624 326.648 140.912 326.555 140.109 326.555ZM154.154 329.596C154.154 330.457 154.345 331.315 154.726 332.171C155.106 333.021 155.619 333.779 156.264 334.447C156.914 335.109 157.623 335.607 158.391 335.941L157.617 337.031C156.697 336.609 155.868 335.974 155.13 335.124C154.392 334.269 153.841 333.305 153.478 332.232C153.114 333.381 152.563 334.421 151.825 335.353C151.093 336.278 150.281 336.967 149.391 337.418L148.564 336.328C149.303 335.971 149.991 335.432 150.63 334.711C151.274 333.99 151.79 333.179 152.177 332.276C152.563 331.368 152.76 330.475 152.766 329.596V327.557H149.074V326.414H157.881V327.557H154.154V329.596ZM161.449 340.424H160.061V324.797H161.449V340.424ZM182.947 338.42H168.639V337.277H175.072V333.902H170.326V325.904H171.715V328.734H179.836V325.904H181.189V333.902H176.426V337.277H182.947V338.42ZM179.836 332.777V329.859H171.715V332.777H179.836ZM192.035 326.256C192.035 326.959 192.308 327.633 192.853 328.277C193.403 328.922 194.118 329.464 194.997 329.903C195.876 330.343 196.787 330.627 197.73 330.756L197.168 331.881C196.348 331.746 195.554 331.512 194.786 331.178C194.019 330.838 193.333 330.416 192.729 329.912C192.126 329.402 191.66 328.837 191.332 328.216C191.01 328.837 190.544 329.402 189.935 329.912C189.331 330.416 188.646 330.838 187.878 331.178C187.11 331.512 186.316 331.746 185.496 331.881L184.934 330.756C185.883 330.627 186.794 330.346 187.667 329.912C188.54 329.473 189.249 328.934 189.794 328.295C190.339 327.65 190.611 326.971 190.611 326.256V325.359H192.035V326.256ZM198.434 334.764H191.965V340.424H190.611V334.764H184.195V333.604H198.434V334.764ZM211.846 331.16H214.377V332.32H211.846V340.424H210.475V324.797H211.846V331.16ZM207.803 326.484C207.803 328.811 207.22 330.92 206.054 332.812C204.888 334.699 203.08 336.246 200.631 337.453L199.857 336.363C201.867 335.361 203.423 334.125 204.524 332.654C205.626 331.178 206.256 329.508 206.414 327.645H200.578V326.484H207.803ZM234.064 333.674H219.826V332.531H223.359V330.334C222.727 330.088 222.243 329.769 221.909 329.376C221.575 328.978 221.408 328.518 221.408 327.996C221.408 327.387 221.631 326.865 222.076 326.432C222.521 325.998 223.157 325.667 223.983 325.438C224.815 325.21 225.803 325.096 226.945 325.096C228.076 325.096 229.055 325.21 229.881 325.438C230.713 325.667 231.352 325.998 231.797 326.432C232.242 326.865 232.465 327.387 232.465 327.996C232.465 328.512 232.298 328.969 231.964 329.367C231.636 329.76 231.158 330.079 230.531 330.325V332.531H234.064V333.674ZM226.945 334.869C228.064 334.869 229.025 334.975 229.828 335.186C230.631 335.396 231.246 335.71 231.674 336.126C232.102 336.536 232.318 337.037 232.324 337.629C232.318 338.215 232.102 338.713 231.674 339.123C231.246 339.539 230.631 339.853 229.828 340.063C229.025 340.28 228.064 340.389 226.945 340.389C225.814 340.389 224.845 340.28 224.036 340.063C223.233 339.853 222.618 339.539 222.19 339.123C221.763 338.713 221.549 338.215 221.549 337.629C221.549 337.037 221.76 336.536 222.182 336.126C222.609 335.71 223.228 335.396 224.036 335.186C224.845 334.975 225.814 334.869 226.945 334.869ZM226.945 335.924C225.68 335.936 224.695 336.091 223.992 336.39C223.295 336.683 222.949 337.096 222.955 337.629C222.949 337.98 223.104 338.282 223.421 338.534C223.737 338.786 224.194 338.979 224.792 339.114C225.396 339.249 226.113 339.316 226.945 339.316C227.766 339.316 228.475 339.249 229.072 339.114C229.676 338.979 230.136 338.786 230.452 338.534C230.774 338.282 230.936 337.98 230.936 337.629C230.936 337.096 230.581 336.683 229.872 336.39C229.169 336.091 228.193 335.936 226.945 335.924ZM226.945 326.186C226.102 326.186 225.369 326.259 224.748 326.405C224.127 326.552 223.649 326.763 223.315 327.038C222.987 327.308 222.826 327.627 222.832 327.996C222.826 328.371 222.987 328.696 223.315 328.972C223.649 329.241 224.124 329.449 224.739 329.596C225.36 329.736 226.096 329.807 226.945 329.807C227.789 329.807 228.519 329.736 229.134 329.596C229.749 329.449 230.224 329.241 230.558 328.972C230.892 328.696 231.059 328.371 231.059 327.996C231.059 327.627 230.892 327.308 230.558 327.038C230.224 326.763 229.746 326.552 229.125 326.405C228.51 326.259 227.783 326.186 226.945 326.186ZM229.16 332.531V330.703C228.486 330.82 227.748 330.879 226.945 330.879C226.143 330.879 225.404 330.82 224.73 330.703V332.531H229.16ZM248.268 340.459H246.879V324.797H248.268V340.459ZM239.953 326.01C240.727 326.016 241.415 326.244 242.019 326.695C242.622 327.141 243.094 327.773 243.434 328.594C243.773 329.414 243.943 330.369 243.943 331.459C243.943 332.549 243.773 333.504 243.434 334.324C243.094 335.145 242.622 335.777 242.019 336.223C241.415 336.668 240.727 336.891 239.953 336.891C239.18 336.891 238.488 336.668 237.879 336.223C237.275 335.777 236.804 335.145 236.464 334.324C236.13 333.504 235.963 332.549 235.963 331.459C235.963 330.369 236.13 329.414 236.464 328.594C236.804 327.773 237.275 327.141 237.879 326.695C238.482 326.244 239.174 326.016 239.953 326.01ZM239.953 327.24C239.432 327.246 238.969 327.425 238.564 327.776C238.166 328.122 237.855 328.614 237.633 329.253C237.41 329.886 237.299 330.621 237.299 331.459C237.299 332.297 237.41 333.035 237.633 333.674C237.855 334.307 238.169 334.796 238.573 335.142C238.978 335.487 239.438 335.66 239.953 335.66C240.469 335.66 240.929 335.487 241.333 335.142C241.737 334.796 242.051 334.307 242.273 333.674C242.496 333.035 242.607 332.297 242.607 331.459C242.607 330.621 242.496 329.886 242.273 329.253C242.051 328.614 241.737 328.122 241.333 327.776C240.935 327.425 240.475 327.246 239.953 327.24ZM263.156 329.965H265.512V331.125H263.156V336.521H261.785V324.814H263.156V329.965ZM260.291 327.855H250.975V326.73H254.947V324.814H256.318V326.73H260.291V327.855ZM255.633 328.717C256.371 328.717 257.021 328.837 257.584 329.077C258.152 329.317 258.595 329.657 258.911 330.097C259.228 330.536 259.389 331.049 259.395 331.635C259.389 332.215 259.228 332.722 258.911 333.155C258.595 333.589 258.152 333.926 257.584 334.166C257.021 334.4 256.371 334.518 255.633 334.518C254.889 334.518 254.229 334.4 253.655 334.166C253.087 333.926 252.645 333.589 252.328 333.155C252.018 332.722 251.865 332.215 251.871 331.635C251.865 331.049 252.018 330.536 252.328 330.097C252.645 329.657 253.087 329.317 253.655 329.077C254.229 328.837 254.889 328.717 255.633 328.717ZM255.633 329.807C255.146 329.807 254.716 329.883 254.341 330.035C253.972 330.182 253.685 330.396 253.479 330.677C253.28 330.952 253.184 331.271 253.189 331.635C253.184 331.998 253.28 332.317 253.479 332.593C253.685 332.862 253.972 333.07 254.341 333.217C254.716 333.363 255.146 333.434 255.633 333.428C256.113 333.434 256.538 333.363 256.907 333.217C257.282 333.07 257.572 332.862 257.777 332.593C257.982 332.317 258.088 331.998 258.094 331.635C258.088 331.271 257.982 330.952 257.777 330.677C257.572 330.396 257.282 330.182 256.907 330.035C256.538 329.883 256.113 329.807 255.633 329.807ZM263.877 340.09H253.383V335.59H254.736V338.93H263.877V340.09ZM283.512 327.838V328.137C283.506 328.975 283.488 329.704 283.459 330.325C283.436 330.94 283.377 331.652 283.283 332.461C283.189 333.264 283.049 334.131 282.861 335.062L281.508 334.904C281.777 333.674 281.962 332.423 282.062 331.151L272.508 331.723L272.279 330.51L282.123 330.105C282.146 329.555 282.158 328.799 282.158 327.838V327.469H272.736V326.326H283.512V327.838ZM285.252 338.297H271.014V337.119H276.604V333.076H277.957V337.119H285.252V338.297ZM299.191 333.463H288.398V326.256H299.033V327.398H289.77V332.32H299.191V333.463ZM300.879 338.297H286.57V337.137H300.879V338.297ZM316.418 333.146H302.109V332.057H316.418V333.146ZM314.625 337.717H305.238V339.211H315.135V340.213H303.85V336.768H313.254V335.432H303.832V334.395H314.625V337.717ZM314.572 328.506H305.344V329.877H314.854V330.879H303.973V327.557H313.184V326.273H303.92V325.271H314.572V328.506ZM327.492 327.697C327.492 328.383 327.65 329.042 327.967 329.675C328.289 330.302 328.74 330.858 329.32 331.345C329.9 331.831 330.574 332.209 331.342 332.479L330.639 333.551C329.754 333.234 328.98 332.771 328.318 332.162C327.656 331.547 327.158 330.835 326.824 330.026C326.49 330.905 325.98 331.679 325.295 332.347C324.609 333.009 323.807 333.51 322.887 333.85L322.148 332.777C322.922 332.502 323.61 332.106 324.214 331.591C324.817 331.075 325.286 330.48 325.62 329.807C325.96 329.133 326.133 328.43 326.139 327.697V327.029H322.57V325.904H331.008V327.029H327.492V327.697ZM334.418 328.928H336.773V330.105H334.418V334.219H333.047V324.797H334.418V328.928ZM334.418 340.424H333.047V336.17H324.188V335.045H334.418V340.424ZM343.137 327.258C343.131 327.99 343.289 328.69 343.611 329.358C343.934 330.021 344.388 330.601 344.974 331.099C345.565 331.597 346.242 331.975 347.004 332.232L346.23 333.305C345.363 332.977 344.604 332.505 343.954 331.89C343.304 331.274 342.812 330.557 342.478 329.736C342.144 330.674 341.631 331.494 340.939 332.197C340.248 332.895 339.434 333.422 338.496 333.779L337.74 332.654C338.537 332.373 339.237 331.969 339.841 331.441C340.45 330.908 340.922 330.287 341.256 329.578C341.59 328.863 341.76 328.107 341.766 327.311V325.693H343.137V327.258ZM350.713 334.061H349.324V329.297H345.844V328.154H349.324V324.797H350.713V334.061ZM345.527 334.518C346.611 334.518 347.546 334.635 348.331 334.869C349.116 335.098 349.717 335.435 350.133 335.88C350.555 336.319 350.766 336.85 350.766 337.471C350.766 338.086 350.555 338.61 350.133 339.044C349.717 339.483 349.116 339.817 348.331 340.046C347.546 340.274 346.611 340.389 345.527 340.389C344.443 340.389 343.509 340.274 342.724 340.046C341.938 339.817 341.335 339.483 340.913 339.044C340.497 338.61 340.289 338.086 340.289 337.471C340.289 336.85 340.497 336.319 340.913 335.88C341.335 335.435 341.938 335.098 342.724 334.869C343.509 334.635 344.443 334.518 345.527 334.518ZM345.527 335.607C344.736 335.607 344.048 335.684 343.462 335.836C342.876 335.982 342.428 336.196 342.117 336.478C341.807 336.759 341.654 337.09 341.66 337.471C341.654 337.84 341.807 338.162 342.117 338.438C342.428 338.707 342.876 338.915 343.462 339.062C344.048 339.208 344.736 339.281 345.527 339.281C346.318 339.281 347.004 339.208 347.584 339.062C348.17 338.915 348.618 338.707 348.929 338.438C349.239 338.162 349.395 337.84 349.395 337.471C349.395 337.09 349.239 336.759 348.929 336.478C348.618 336.196 348.17 335.982 347.584 335.836C347.004 335.684 346.318 335.607 345.527 335.607ZM365.531 328.805H367.887V329.982H365.531V333.885H364.16V324.797H365.531V328.805ZM357.023 336.24H364.16V334.57H365.531V340.213H355.652V334.57H357.023V336.24ZM364.16 339.105V337.33H357.023V339.105H364.16ZM362.666 327.557H353.35V326.414H357.322V324.656H358.693V326.414H362.666V327.557ZM358.008 328.277C358.752 328.277 359.405 328.392 359.968 328.62C360.536 328.843 360.976 329.162 361.286 329.578C361.603 329.988 361.764 330.469 361.77 331.02C361.764 331.57 361.603 332.054 361.286 332.47C360.976 332.88 360.536 333.199 359.968 333.428C359.405 333.65 358.752 333.762 358.008 333.762C357.258 333.762 356.596 333.65 356.021 333.428C355.453 333.199 355.014 332.88 354.703 332.47C354.393 332.054 354.24 331.57 354.246 331.02C354.24 330.469 354.393 329.988 354.703 329.578C355.014 329.162 355.453 328.843 356.021 328.62C356.596 328.392 357.258 328.277 358.008 328.277ZM358.008 329.35C357.521 329.344 357.091 329.411 356.716 329.552C356.347 329.687 356.06 329.883 355.854 330.141C355.655 330.398 355.559 330.691 355.564 331.02C355.559 331.354 355.655 331.649 355.854 331.907C356.06 332.159 356.347 332.355 356.716 332.496C357.091 332.637 357.521 332.707 358.008 332.707C358.488 332.707 358.913 332.637 359.282 332.496C359.657 332.355 359.947 332.159 360.152 331.907C360.357 331.649 360.463 331.354 360.469 331.02C360.463 330.686 360.354 330.393 360.144 330.141C359.938 329.883 359.651 329.687 359.282 329.552C358.913 329.411 358.488 329.344 358.008 329.35ZM381.756 340.424H380.385V324.797H381.756V340.424ZM371.244 335.203C373.887 335.191 376.377 334.939 378.715 334.447L378.908 335.625C377.578 335.9 376.283 336.1 375.023 336.223C373.764 336.34 372.475 336.398 371.156 336.398H369.891V326.344H371.244V335.203ZM396.521 330.984H399.141V332.145H396.521V340.459H395.15V324.797H396.521V330.984ZM392.408 327.469H386.484V335.379C387.943 335.379 389.218 335.338 390.308 335.256C391.397 335.174 392.508 335.027 393.639 334.816L393.814 336.012C392.66 336.223 391.526 336.363 390.413 336.434C389.3 336.504 387.943 336.539 386.344 336.539H385.113V326.326H392.408V327.469ZM401.637 339.105C401.432 339.105 401.241 339.056 401.065 338.956C400.896 338.851 400.758 338.71 400.652 338.534C400.553 338.358 400.506 338.168 400.512 337.963C400.506 337.764 400.553 337.579 400.652 337.409C400.758 337.233 400.896 337.096 401.065 336.996C401.241 336.891 401.432 336.838 401.637 336.838C401.836 336.838 402.021 336.891 402.19 336.996C402.366 337.096 402.504 337.233 402.604 337.409C402.709 337.579 402.762 337.764 402.762 337.963C402.762 338.168 402.709 338.358 402.604 338.534C402.504 338.71 402.366 338.851 402.19 338.956C402.021 339.056 401.836 339.105 401.637 339.105Z" fill="black"/>
<rect y="180" width="10" height="10" rx="5" fill="#141414"/>
<rect width="435" height="1" transform="translate(7.5 184.5)" fill="#141414"/>
<rect x="440" y="180" width="10" height="10" rx="5" fill="#141414"/>
<g clip-path="url(#clip0_360_433)">
<path d="M129.531 30H60.4688C43.6413 30 30 43.6413 30 60.4688V129.531C30 146.359 43.6413 160 60.4688 160H129.531C146.359 160 160 146.359 160 129.531V60.4688C160 43.6413 146.359 30 129.531 30Z" fill="#141414"/>
<path d="M54.375 49.2969L58.7473 98.348H114.967L113.081 119.387L94.9792 124.281L76.9117 119.394L75.7036 105.885H59.4227L61.751 131.926L94.9756 141.154L128.242 131.926L132.703 82.1295H73.5825L72.0982 65.5189H134.172L135.625 49.2969H54.375Z" fill="#F5F5F5"/>
<path d="M95 49.2969H54.375L58.7473 98.348H95V82.1295H73.5825L72.0982 65.5189H95V49.2969ZM95 124.274L94.9792 124.281L76.9117 119.394L75.7036 105.885H59.4227L61.751 131.926L94.9756 141.154L95.0005 141.147L95 124.274Z" fill="#EBEBEB"/>
</g>
<defs>
<clipPath id="clip0_360_433">
<rect width="130" height="130" fill="white" transform="translate(30 30)"/>
</clipPath>
</defs>
</svg>
