<svg width="450" height="470" viewBox="0 0 450 470" fill="none" xmlns="http://www.w3.org/2000/svg">
<rect width="450" height="470" fill="#CAC4D0" fill-opacity="0.1"/>
<path d="M349.686 136.324H361.332V139.352H353.348V143.648H360.575V146.676H353.348V154H349.686V136.324ZM363.675 140.743H367.289V154H363.675V140.743ZM365.482 139.01C365.124 139.01 364.79 138.928 364.481 138.766C364.18 138.595 363.94 138.371 363.761 138.094C363.59 137.809 363.504 137.504 363.504 137.179C363.504 136.845 363.59 136.536 363.761 136.251C363.94 135.966 364.18 135.742 364.481 135.58C364.79 135.409 365.124 135.323 365.482 135.323C365.832 135.323 366.157 135.409 366.458 135.58C366.76 135.742 366.996 135.966 367.167 136.251C367.346 136.536 367.435 136.845 367.435 137.179C367.435 137.504 367.346 137.809 367.167 138.094C366.996 138.371 366.76 138.595 366.458 138.766C366.157 138.928 365.832 139.01 365.482 139.01ZM376.053 159.249C374.849 159.249 373.799 159.078 372.904 158.736C372.009 158.395 371.305 157.91 370.792 157.284C370.287 156.665 369.999 155.937 369.925 155.099H373.49C373.587 155.611 373.864 155.994 374.32 156.246C374.784 156.507 375.386 156.637 376.126 156.637C377.014 156.637 377.701 156.429 378.189 156.014C378.686 155.607 378.934 154.96 378.934 154.073V151.656H378.763C378.486 152.267 378.031 152.779 377.396 153.194C376.769 153.601 375.964 153.805 374.979 153.805C373.954 153.805 373.034 153.565 372.22 153.084C371.406 152.596 370.764 151.864 370.292 150.887C369.819 149.911 369.583 148.71 369.583 147.286C369.583 145.838 369.824 144.609 370.304 143.6C370.784 142.59 371.431 141.834 372.245 141.329C373.067 140.825 373.978 140.572 374.979 140.572C375.98 140.572 376.786 140.804 377.396 141.268C378.006 141.732 378.462 142.298 378.763 142.965H378.91V140.743H382.499V154.146C382.499 155.245 382.226 156.177 381.681 156.942C381.135 157.707 380.379 158.281 379.41 158.663C378.442 159.054 377.323 159.249 376.053 159.249ZM376.102 151.095C376.997 151.095 377.693 150.765 378.189 150.106C378.686 149.439 378.934 148.515 378.934 147.335C378.934 146.139 378.686 145.195 378.189 144.503C377.693 143.803 376.997 143.453 376.102 143.453C375.207 143.453 374.515 143.807 374.027 144.515C373.539 145.215 373.294 146.155 373.294 147.335C373.294 148.499 373.535 149.418 374.015 150.094C374.503 150.761 375.199 151.095 376.102 151.095ZM385.306 140.743H388.749V143.062H388.895C389.18 142.289 389.644 141.683 390.287 141.244C390.93 140.796 391.694 140.572 392.582 140.572C393.493 140.572 394.266 140.796 394.901 141.244C395.544 141.683 395.975 142.289 396.195 143.062H396.317C396.602 142.298 397.098 141.691 397.806 141.244C398.514 140.796 399.352 140.572 400.321 140.572C401.143 140.572 401.867 140.751 402.494 141.109C403.128 141.459 403.621 141.976 403.971 142.66C404.321 143.335 404.496 144.145 404.496 145.089V154H400.882V145.797C400.882 145.064 400.691 144.507 400.309 144.125C399.934 143.742 399.434 143.551 398.807 143.551C398.132 143.551 397.603 143.766 397.22 144.198C396.846 144.621 396.659 145.187 396.659 145.895V154H393.143V145.699C393.143 145.048 392.956 144.527 392.582 144.137C392.207 143.746 391.711 143.551 391.092 143.551C390.685 143.551 390.315 143.657 389.981 143.868C389.656 144.072 389.396 144.361 389.2 144.735C389.013 145.109 388.919 145.545 388.919 146.041V154H385.306V140.743ZM406.644 150.289C406.644 148.922 407.104 147.921 408.023 147.286C408.943 146.651 410.127 146.293 411.576 146.212C412.471 146.155 413.569 146.098 414.872 146.041V144.967C414.855 144.413 414.664 143.982 414.298 143.673C413.932 143.364 413.415 143.209 412.748 143.209C412.145 143.209 411.653 143.339 411.271 143.6C410.888 143.86 410.648 144.218 410.55 144.674H407.108C407.181 143.893 407.45 143.193 407.914 142.574C408.386 141.956 409.041 141.467 409.879 141.109C410.717 140.751 411.706 140.572 412.845 140.572C413.854 140.572 414.782 140.731 415.628 141.048C416.483 141.366 417.167 141.862 417.679 142.538C418.2 143.205 418.46 144.047 418.46 145.064V154H415.042V152.169H414.945C414.595 152.812 414.094 153.32 413.443 153.695C412.8 154.061 412.007 154.244 411.063 154.244C410.2 154.244 409.435 154.098 408.768 153.805C408.109 153.504 407.588 153.056 407.206 152.462C406.831 151.868 406.644 151.144 406.644 150.289ZM410.111 150.191C410.111 150.688 410.29 151.074 410.648 151.351C411.014 151.62 411.494 151.754 412.088 151.754C412.625 151.754 413.106 151.644 413.529 151.424C413.96 151.205 414.294 150.903 414.53 150.521C414.766 150.139 414.88 149.719 414.872 149.264V148.299C414.489 148.307 414.017 148.328 413.456 148.36C412.894 148.393 412.463 148.425 412.162 148.458C411.527 148.523 411.026 148.702 410.66 148.995C410.294 149.288 410.111 149.687 410.111 150.191Z" fill="black"/>
<path d="M363.99 113.664L370.357 103.859H372.525V113.566H374.498V115.109H372.525V118H370.846V115.109H363.99V113.664ZM370.846 113.566V106.086H370.67L365.885 113.449V113.566H370.846ZM377.389 118.117C377.161 118.117 376.949 118.062 376.754 117.951C376.565 117.834 376.412 117.678 376.295 117.482C376.184 117.287 376.132 117.076 376.139 116.848C376.132 116.626 376.184 116.421 376.295 116.232C376.412 116.037 376.565 115.884 376.754 115.773C376.949 115.656 377.161 115.598 377.389 115.598C377.61 115.598 377.815 115.656 378.004 115.773C378.199 115.884 378.352 116.037 378.463 116.232C378.58 116.421 378.639 116.626 378.639 116.848C378.639 117.076 378.58 117.287 378.463 117.482C378.352 117.678 378.199 117.834 378.004 117.951C377.815 118.062 377.61 118.117 377.389 118.117ZM385.377 118.195C384.335 118.195 383.443 117.912 382.701 117.346C381.965 116.779 381.402 115.952 381.012 114.865C380.628 113.778 380.436 112.466 380.436 110.93C380.436 109.413 380.631 108.111 381.021 107.023C381.412 105.93 381.979 105.096 382.721 104.523C383.463 103.951 384.348 103.664 385.377 103.664C386.406 103.664 387.291 103.951 388.033 104.523C388.775 105.096 389.342 105.93 389.732 107.023C390.123 108.111 390.318 109.413 390.318 110.93C390.318 112.466 390.123 113.778 389.732 114.865C389.348 115.952 388.785 116.779 388.043 117.346C387.301 117.912 386.412 118.195 385.377 118.195ZM385.377 116.633C386.054 116.633 386.633 116.411 387.115 115.969C387.597 115.526 387.965 114.878 388.219 114.025C388.473 113.173 388.6 112.141 388.6 110.93C388.6 109.719 388.473 108.684 388.219 107.824C387.965 106.965 387.597 106.311 387.115 105.861C386.633 105.412 386.054 105.188 385.377 105.188C384.7 105.188 384.117 105.412 383.629 105.861C383.147 106.311 382.776 106.965 382.516 107.824C382.262 108.684 382.135 109.719 382.135 110.93C382.135 112.141 382.262 113.173 382.516 114.025C382.77 114.878 383.137 115.526 383.619 115.969C384.107 116.411 384.693 116.633 385.377 116.633ZM398.17 120.129H396.646L401.197 103.195H402.74L398.17 120.129ZM413.99 118.195C413.15 118.195 412.385 118.036 411.695 117.717C411.012 117.391 410.465 116.945 410.055 116.379C409.651 115.806 409.433 115.161 409.4 114.445H411.1C411.145 114.862 411.301 115.24 411.568 115.578C411.835 115.91 412.18 116.174 412.604 116.369C413.027 116.558 413.489 116.652 413.99 116.652C414.589 116.652 415.13 116.516 415.611 116.242C416.093 115.969 416.471 115.594 416.744 115.119C417.018 114.644 417.154 114.113 417.154 113.527C417.154 112.922 417.011 112.378 416.725 111.896C416.445 111.408 416.054 111.027 415.553 110.754C415.058 110.474 414.498 110.331 413.873 110.324C412.617 110.305 411.738 110.728 411.236 111.594H409.537L410.533 103.859H418.189V105.422H411.998L411.471 109.562H411.607C411.926 109.315 412.314 109.117 412.77 108.967C413.225 108.817 413.697 108.742 414.186 108.742C415.071 108.742 415.868 108.947 416.578 109.357C417.294 109.761 417.854 110.324 418.258 111.047C418.668 111.77 418.873 112.583 418.873 113.488C418.873 114.387 418.661 115.194 418.238 115.91C417.815 116.626 417.232 117.186 416.49 117.59C415.748 117.993 414.915 118.195 413.99 118.195Z" fill="black"/>
<rect width="430" height="260" transform="translate(10 200)" fill="#CAC4D0" fill-opacity="0.2"/>
<path d="M43.8691 234.482H42.5508V224.797H43.8691V234.482ZM41.0391 234.43H39.7207V233.533H36.9434V232.531H39.7207V225.078H41.0391V234.43ZM30.5449 230.879C32.0684 230.879 33.5449 230.85 34.9746 230.791C36.4102 230.732 37.7051 230.615 38.8594 230.439L38.9648 231.371C37.9922 231.576 36.8379 231.729 35.502 231.828V234.43H34.166V231.907C33.1699 231.948 32.0156 231.969 30.7031 231.969L30.5449 230.879ZM34.6934 236.521H42.498V235.045H43.8691V240.213H33.3398V235.045H34.6934V236.521ZM42.498 239.105V237.629H34.6934V239.105H42.498ZM34.7812 225.359C35.4609 225.359 36.0586 225.453 36.5742 225.641C37.0898 225.828 37.4912 226.098 37.7783 226.449C38.0654 226.795 38.209 227.205 38.209 227.68C38.209 228.143 38.0654 228.55 37.7783 228.901C37.4912 229.247 37.0869 229.514 36.5654 229.701C36.0498 229.889 35.4551 229.982 34.7812 229.982C34.1074 229.982 33.5127 229.889 32.9971 229.701C32.4814 229.514 32.0801 229.247 31.793 228.901C31.5117 228.55 31.3711 228.143 31.3711 227.68C31.3711 227.205 31.5117 226.795 31.793 226.449C32.0801 226.098 32.4785 225.828 32.9883 225.641C33.5039 225.453 34.1016 225.359 34.7812 225.359ZM34.7812 226.361C34.125 226.355 33.6035 226.47 33.2168 226.704C32.8301 226.938 32.6367 227.264 32.6367 227.68C32.6367 228.084 32.8271 228.403 33.208 228.638C33.5947 228.866 34.1191 228.98 34.7812 228.98C35.4434 228.98 35.9707 228.866 36.3633 228.638C36.7559 228.403 36.9551 228.084 36.9609 227.68C36.9551 227.27 36.7559 226.944 36.3633 226.704C35.9707 226.464 35.4434 226.35 34.7812 226.361ZM47.8418 234.57C47.6367 234.57 47.4463 234.521 47.2705 234.421C47.1006 234.315 46.9629 234.175 46.8574 233.999C46.7578 233.823 46.7109 233.633 46.7168 233.428C46.7109 233.229 46.7578 233.044 46.8574 232.874C46.9629 232.698 47.1006 232.561 47.2705 232.461C47.4463 232.355 47.6367 232.303 47.8418 232.303C48.041 232.303 48.2256 232.355 48.3955 232.461C48.5713 232.561 48.709 232.698 48.8086 232.874C48.9141 233.044 48.9668 233.229 48.9668 233.428C48.9668 233.633 48.9141 233.823 48.8086 233.999C48.709 234.175 48.5713 234.315 48.3955 234.421C48.2256 234.521 48.041 234.57 47.8418 234.57ZM65.0684 238.42H50.7598V237.26H57.1934V233.445H52.4473V226.115H63.293V233.445H58.5469V237.26H65.0684V238.42ZM53.8008 232.338H61.957V227.223H53.8008V232.338ZM78.4102 230.949H81.0293V232.145H78.4102V240.424H77.0391V224.797H78.4102V230.949ZM68.3379 230.264H72.9082V226.133H74.2793V236.68H66.9668V226.133H68.3379V230.264ZM72.9082 235.52V231.371H68.3379V235.52H72.9082ZM86.3027 225.377C87.0762 225.383 87.7676 225.532 88.377 225.825C88.9922 226.118 89.4727 226.528 89.8184 227.056C90.1699 227.577 90.3457 228.172 90.3457 228.84C90.3457 229.508 90.1699 230.105 89.8184 230.633C89.4727 231.154 88.9922 231.562 88.377 231.854C87.7676 232.142 87.0762 232.285 86.3027 232.285C85.5176 232.285 84.8174 232.142 84.2021 231.854C83.5869 231.562 83.1064 231.154 82.7607 230.633C82.415 230.105 82.2422 229.508 82.2422 228.84C82.2422 228.172 82.415 227.577 82.7607 227.056C83.1064 226.528 83.5869 226.118 84.2021 225.825C84.8174 225.532 85.5176 225.383 86.3027 225.377ZM86.3027 226.537C85.7871 226.537 85.3213 226.637 84.9053 226.836C84.4951 227.029 84.1729 227.302 83.9385 227.653C83.7041 227.999 83.5898 228.395 83.5957 228.84C83.5898 229.291 83.7041 229.692 83.9385 230.044C84.1729 230.396 84.4951 230.671 84.9053 230.87C85.3213 231.063 85.7871 231.16 86.3027 231.16C86.8125 231.16 87.2725 231.063 87.6826 230.87C88.0986 230.671 88.4238 230.396 88.6582 230.044C88.8926 229.692 89.0098 229.291 89.0098 228.84C89.0098 228.395 88.8926 227.999 88.6582 227.653C88.4238 227.302 88.0986 227.029 87.6826 226.836C87.2725 226.637 86.8125 226.537 86.3027 226.537ZM94.7754 232.83H93.4043V224.797H94.7754V232.83ZM94.7754 237.348H86.0039V239.105H95.3379V240.213H84.6504V236.311H93.4043V234.693H84.6152V233.586H94.7754V237.348ZM112.635 226.273V234.693C112.635 235.561 112.43 236.34 112.02 237.031C111.609 237.717 111.029 238.256 110.279 238.648C109.529 239.035 108.662 239.229 107.678 239.229C106.693 239.229 105.826 239.035 105.076 238.648C104.326 238.256 103.746 237.717 103.336 237.031C102.926 236.34 102.721 235.561 102.721 234.693V226.273H104.303V234.57C104.303 235.186 104.438 235.733 104.707 236.214C104.982 236.694 105.375 237.072 105.885 237.348C106.395 237.617 106.992 237.752 107.678 237.752C108.369 237.752 108.967 237.617 109.471 237.348C109.98 237.072 110.37 236.694 110.64 236.214C110.915 235.733 111.053 235.186 111.053 234.57V226.273H112.635ZM117.029 239H115.447V226.273H117.029V239ZM124.184 225.939C124.998 225.939 125.722 226.095 126.354 226.405C126.993 226.716 127.491 227.149 127.849 227.706C128.206 228.263 128.385 228.898 128.385 229.613C128.385 230.328 128.206 230.964 127.849 231.521C127.491 232.077 126.993 232.511 126.354 232.821C125.722 233.132 124.998 233.287 124.184 233.287C123.369 233.287 122.64 233.132 121.995 232.821C121.356 232.511 120.855 232.077 120.492 231.521C120.135 230.964 119.959 230.328 119.965 229.613C119.959 228.898 120.135 228.263 120.492 227.706C120.855 227.149 121.356 226.716 121.995 226.405C122.64 226.095 123.369 225.939 124.184 225.939ZM124.184 227.152C123.633 227.152 123.138 227.258 122.698 227.469C122.265 227.674 121.925 227.964 121.679 228.339C121.433 228.708 121.312 229.133 121.318 229.613C121.312 230.094 121.433 230.521 121.679 230.896C121.925 231.266 122.265 231.556 122.698 231.767C123.138 231.972 123.633 232.074 124.184 232.074C124.729 232.074 125.218 231.972 125.651 231.767C126.085 231.556 126.422 231.266 126.662 230.896C126.908 230.521 127.031 230.094 127.031 229.613C127.031 229.133 126.908 228.708 126.662 228.339C126.422 227.964 126.085 227.674 125.651 227.469C125.218 227.258 124.729 227.152 124.184 227.152ZM131.883 240.459H130.512V224.797H131.883V240.459ZM119.156 235.836C121.184 235.836 123.026 235.804 124.685 235.739C126.349 235.675 127.945 235.531 129.475 235.309L129.58 236.328C128.01 236.621 126.407 236.809 124.772 236.891C123.144 236.973 121.336 237.014 119.35 237.014L119.156 235.836ZM147.281 225.729C147.27 227.727 146.675 229.429 145.497 230.835C144.319 232.241 142.529 233.316 140.127 234.061L139.564 232.918C142.084 232.174 143.845 231.061 144.847 229.578L139.723 229.982L139.477 228.84L145.4 228.559C145.611 228.043 145.749 227.475 145.813 226.854H140.268V225.729H147.281ZM152.098 233.814H150.709V230.105H147.229V228.945H150.709V224.814H152.098V233.814ZM152.098 240.213H141.955V234.658H152.098V240.213ZM143.291 239.088H150.727V235.783H143.291V239.088ZM169.008 238.49H154.699V237.312H161.115V233.709H156V232.602H158.443V227.469H155.965V226.326H167.637V227.469H165.158V232.602H167.602V233.709H162.469V237.312H169.008V238.49ZM163.805 232.602V227.469H159.814V232.602H163.805ZM183.211 236.135H181.822V229.367H177.322V228.225H181.822V224.814H183.211V236.135ZM183.633 240.09H173.139V235.203H174.527V238.93H183.633V240.09ZM172.576 232.355C173.865 232.361 175.043 232.32 176.109 232.232C177.176 232.139 178.254 231.975 179.344 231.74L179.537 232.936C178.371 233.164 177.229 233.325 176.109 233.419C174.99 233.507 173.748 233.551 172.383 233.551H171.188V225.975H172.576V232.355ZM198.469 234.377H187.658V226.15H198.293V227.311H189.064V229.631H197.959V230.738H189.064V233.252H198.469V234.377ZM200.121 238.385H185.812V237.242H200.121V238.385ZM206.08 225.816C206.877 225.822 207.589 225.98 208.216 226.291C208.849 226.602 209.344 227.035 209.701 227.592C210.059 228.143 210.24 228.775 210.246 229.49C210.24 230.135 210.091 230.715 209.798 231.23C209.505 231.746 209.098 232.168 208.576 232.496C208.061 232.818 207.463 233.021 206.783 233.103V235.766C208.447 235.684 209.877 235.566 211.072 235.414L211.16 236.451C209.83 236.674 208.427 236.826 206.95 236.908C205.474 236.99 203.941 237.031 202.354 237.031H201.404L201.176 235.871C203.027 235.859 204.434 235.839 205.395 235.81V233.103C204.703 233.021 204.094 232.818 203.566 232.496C203.039 232.174 202.629 231.755 202.336 231.239C202.049 230.718 201.908 230.135 201.914 229.49C201.908 228.775 202.081 228.143 202.433 227.592C202.79 227.035 203.285 226.602 203.918 226.291C204.551 225.98 205.271 225.822 206.08 225.816ZM206.08 227.012C205.541 227.012 205.055 227.117 204.621 227.328C204.193 227.539 203.859 227.832 203.619 228.207C203.379 228.582 203.262 229.01 203.268 229.49C203.262 229.971 203.379 230.398 203.619 230.773C203.859 231.148 204.193 231.441 204.621 231.652C205.055 231.863 205.541 231.969 206.08 231.969C206.613 231.969 207.091 231.863 207.513 231.652C207.94 231.441 208.274 231.148 208.515 230.773C208.761 230.398 208.887 229.971 208.893 229.49C208.887 229.01 208.761 228.582 208.515 228.207C208.274 227.832 207.94 227.539 207.513 227.328C207.091 227.117 206.613 227.012 206.08 227.012ZM213.445 231.248H215.994V232.443H213.445V240.424H212.074V224.797H213.445V231.248ZM228.562 225.816C229.664 225.822 230.648 225.995 231.516 226.335C232.383 226.675 233.06 227.155 233.546 227.776C234.032 228.392 234.275 229.104 234.275 229.912C234.275 230.674 234.062 231.351 233.634 231.942C233.212 232.534 232.62 233.006 231.858 233.357C231.097 233.709 230.221 233.917 229.23 233.981V237.26H235.752V238.42H221.443V237.26H227.877V233.981C226.893 233.917 226.02 233.709 225.258 233.357C224.496 233 223.904 232.528 223.482 231.942C223.061 231.351 222.85 230.674 222.85 229.912C222.85 229.104 223.093 228.392 223.579 227.776C224.065 227.155 224.742 226.675 225.609 226.335C226.477 225.995 227.461 225.822 228.562 225.816ZM228.562 226.959C227.725 226.959 226.972 227.085 226.304 227.337C225.642 227.583 225.123 227.932 224.748 228.383C224.373 228.828 224.186 229.338 224.186 229.912C224.186 230.504 224.373 231.025 224.748 231.477C225.123 231.928 225.642 232.276 226.304 232.522C226.966 232.769 227.719 232.895 228.562 232.9C229.406 232.895 230.159 232.769 230.821 232.522C231.483 232.276 232.002 231.928 232.377 231.477C232.752 231.025 232.939 230.504 232.939 229.912C232.939 229.338 232.752 228.828 232.377 228.383C232.002 227.932 231.48 227.583 230.812 227.337C230.15 227.085 229.4 226.959 228.562 226.959ZM249.656 234.061H244.805V237.33H251.309V238.473H237V237.33H243.434V234.061H238.846V226.08H249.48V227.223H240.252V229.455H249.146V230.58H240.252V232.936H249.656V234.061ZM263.174 231.934H258.938V235.414C259.986 235.408 260.941 235.376 261.803 235.317C262.664 235.259 263.572 235.145 264.527 234.975L264.633 236.117C263.625 236.299 262.682 236.419 261.803 236.478C260.924 236.53 259.869 236.562 258.639 236.574H257.602V230.791H261.855V227.68H257.566V226.537H263.174V231.934ZM270.434 240.424H269.115V224.797H270.434V240.424ZM267.234 239.598H265.934V231.564H263.93V230.439H265.934V225.184H267.234V239.598ZM285.516 240.459H284.127V224.797H285.516V240.459ZM277.201 226.01C277.975 226.016 278.663 226.244 279.267 226.695C279.87 227.141 280.342 227.773 280.682 228.594C281.021 229.414 281.191 230.369 281.191 231.459C281.191 232.549 281.021 233.504 280.682 234.324C280.342 235.145 279.87 235.777 279.267 236.223C278.663 236.668 277.975 236.891 277.201 236.891C276.428 236.891 275.736 236.668 275.127 236.223C274.523 235.777 274.052 235.145 273.712 234.324C273.378 233.504 273.211 232.549 273.211 231.459C273.211 230.369 273.378 229.414 273.712 228.594C274.052 227.773 274.523 227.141 275.127 226.695C275.73 226.244 276.422 226.016 277.201 226.01ZM277.201 227.24C276.68 227.246 276.217 227.425 275.812 227.776C275.414 228.122 275.104 228.614 274.881 229.253C274.658 229.886 274.547 230.621 274.547 231.459C274.547 232.297 274.658 233.035 274.881 233.674C275.104 234.307 275.417 234.796 275.821 235.142C276.226 235.487 276.686 235.66 277.201 235.66C277.717 235.66 278.177 235.487 278.581 235.142C278.985 234.796 279.299 234.307 279.521 233.674C279.744 233.035 279.855 232.297 279.855 231.459C279.855 230.621 279.744 229.886 279.521 229.253C279.299 228.614 278.985 228.122 278.581 227.776C278.183 227.425 277.723 227.246 277.201 227.24ZM292.371 226.01C293.139 226.016 293.818 226.244 294.41 226.695C295.008 227.141 295.474 227.773 295.808 228.594C296.147 229.414 296.32 230.369 296.326 231.459C296.32 232.549 296.147 233.504 295.808 234.324C295.474 235.145 295.008 235.777 294.41 236.223C293.812 236.668 293.133 236.891 292.371 236.891C291.604 236.891 290.921 236.668 290.323 236.223C289.726 235.777 289.26 235.145 288.926 234.324C288.598 233.504 288.434 232.549 288.434 231.459C288.434 230.369 288.598 229.414 288.926 228.594C289.26 227.773 289.726 227.141 290.323 226.695C290.921 226.244 291.604 226.016 292.371 226.01ZM292.371 227.24C291.855 227.246 291.398 227.425 291 227.776C290.602 228.122 290.291 228.614 290.068 229.253C289.846 229.886 289.734 230.621 289.734 231.459C289.734 232.297 289.846 233.035 290.068 233.674C290.291 234.307 290.602 234.796 291 235.142C291.404 235.487 291.861 235.66 292.371 235.66C292.887 235.66 293.341 235.487 293.733 235.142C294.132 234.796 294.439 234.307 294.656 233.674C294.879 233.035 294.99 232.297 294.99 231.459C294.99 230.621 294.879 229.886 294.656 229.253C294.439 228.614 294.132 228.122 293.733 227.776C293.341 227.425 292.887 227.246 292.371 227.24ZM300.281 231.037H302.9V232.232H300.281V240.424H298.91V224.797H300.281V231.037ZM318.035 233.129H311.514V234.834H310.16V233.129H303.744V231.934H318.035V233.129ZM311.531 236.047C311.531 236.604 311.774 237.113 312.261 237.576C312.753 238.033 313.406 238.411 314.221 238.71C315.041 239.009 315.932 239.205 316.893 239.299L316.453 240.354C315.176 240.219 314.03 239.914 313.017 239.439C312.009 238.971 311.279 238.37 310.828 237.638C310.371 238.364 309.639 238.965 308.631 239.439C307.629 239.914 306.498 240.219 305.238 240.354L304.781 239.299C305.725 239.205 306.604 239.009 307.418 238.71C308.238 238.405 308.895 238.024 309.387 237.567C309.879 237.104 310.125 236.598 310.125 236.047V235.537H311.531V236.047ZM310.863 225.061C312.006 225.061 312.99 225.172 313.816 225.395C314.643 225.617 315.275 225.942 315.715 226.37C316.16 226.792 316.383 227.305 316.383 227.908C316.383 228.506 316.16 229.021 315.715 229.455C315.275 229.883 314.64 230.208 313.808 230.431C312.981 230.653 312 230.762 310.863 230.756C309.727 230.762 308.742 230.653 307.91 230.431C307.078 230.208 306.439 229.883 305.994 229.455C305.549 229.021 305.326 228.506 305.326 227.908C305.326 227.305 305.549 226.792 305.994 226.37C306.439 225.942 307.075 225.617 307.901 225.395C308.733 225.172 309.721 225.061 310.863 225.061ZM310.863 226.115C310.02 226.109 309.287 226.18 308.666 226.326C308.045 226.467 307.567 226.675 307.233 226.95C306.905 227.22 306.744 227.539 306.75 227.908C306.744 228.271 306.905 228.588 307.233 228.857C307.567 229.127 308.045 229.332 308.666 229.473C309.287 229.613 310.02 229.684 310.863 229.684C311.701 229.684 312.428 229.613 313.043 229.473C313.664 229.332 314.142 229.127 314.476 228.857C314.81 228.588 314.977 228.271 314.977 227.908C314.977 227.539 314.81 227.22 314.476 226.95C314.142 226.675 313.664 226.467 313.043 226.326C312.428 226.18 311.701 226.109 310.863 226.115ZM336.176 227.188C336.176 228.195 336.149 229.089 336.097 229.868C336.05 230.647 335.927 231.535 335.728 232.531H338.057V233.674H331.605V240.459H330.217V233.674H323.818V232.531H334.33C334.541 231.535 334.673 230.645 334.726 229.859C334.778 229.074 334.805 228.184 334.805 227.188V226.959H325.611V225.816H336.176V227.188ZM344.754 227.258C344.748 227.99 344.906 228.69 345.229 229.358C345.551 230.021 346.005 230.601 346.591 231.099C347.183 231.597 347.859 231.975 348.621 232.232L347.848 233.305C346.98 232.977 346.222 232.505 345.571 231.89C344.921 231.274 344.429 230.557 344.095 229.736C343.761 230.674 343.248 231.494 342.557 232.197C341.865 232.895 341.051 233.422 340.113 233.779L339.357 232.654C340.154 232.373 340.854 231.969 341.458 231.441C342.067 230.908 342.539 230.287 342.873 229.578C343.207 228.863 343.377 228.107 343.383 227.311V225.693H344.754V227.258ZM352.33 234.061H350.941V229.297H347.461V228.154H350.941V224.797H352.33V234.061ZM347.145 234.518C348.229 234.518 349.163 234.635 349.948 234.869C350.733 235.098 351.334 235.435 351.75 235.88C352.172 236.319 352.383 236.85 352.383 237.471C352.383 238.086 352.172 238.61 351.75 239.044C351.334 239.483 350.733 239.817 349.948 240.046C349.163 240.274 348.229 240.389 347.145 240.389C346.061 240.389 345.126 240.274 344.341 240.046C343.556 239.817 342.952 239.483 342.53 239.044C342.114 238.61 341.906 238.086 341.906 237.471C341.906 236.85 342.114 236.319 342.53 235.88C342.952 235.435 343.556 235.098 344.341 234.869C345.126 234.635 346.061 234.518 347.145 234.518ZM347.145 235.607C346.354 235.607 345.665 235.684 345.079 235.836C344.493 235.982 344.045 236.196 343.734 236.478C343.424 236.759 343.271 237.09 343.277 237.471C343.271 237.84 343.424 238.162 343.734 238.438C344.045 238.707 344.493 238.915 345.079 239.062C345.665 239.208 346.354 239.281 347.145 239.281C347.936 239.281 348.621 239.208 349.201 239.062C349.787 238.915 350.235 238.707 350.546 238.438C350.856 238.162 351.012 237.84 351.012 237.471C351.012 237.09 350.856 236.759 350.546 236.478C350.235 236.196 349.787 235.982 349.201 235.836C348.621 235.684 347.936 235.607 347.145 235.607ZM368.326 240.424H366.99V224.797H368.326V240.424ZM365.18 239.633H363.861V232.039H361.849C361.802 233.047 361.635 233.923 361.348 234.667C361.061 235.405 360.671 235.977 360.179 236.381C359.687 236.779 359.121 236.979 358.482 236.979C357.809 236.979 357.217 236.759 356.707 236.319C356.203 235.874 355.813 235.241 355.538 234.421C355.263 233.601 355.125 232.643 355.125 231.547C355.125 230.451 355.263 229.493 355.538 228.673C355.813 227.853 356.203 227.223 356.707 226.783C357.217 226.338 357.809 226.115 358.482 226.115C359.109 226.115 359.666 226.309 360.152 226.695C360.639 227.082 361.025 227.636 361.312 228.356C361.605 229.077 361.781 229.924 361.84 230.896H363.861V225.131H365.18V239.633ZM358.482 227.416C358.061 227.416 357.694 227.583 357.384 227.917C357.073 228.251 356.833 228.731 356.663 229.358C356.499 229.979 356.42 230.709 356.426 231.547C356.42 232.385 356.499 233.114 356.663 233.735C356.833 234.356 357.073 234.834 357.384 235.168C357.7 235.502 358.066 235.666 358.482 235.66C358.898 235.666 359.262 235.502 359.572 235.168C359.889 234.834 360.132 234.356 360.302 233.735C360.472 233.114 360.557 232.385 360.557 231.547C360.557 230.703 360.472 229.971 360.302 229.35C360.132 228.729 359.892 228.251 359.581 227.917C359.271 227.583 358.904 227.416 358.482 227.416ZM387.627 230.316H376.957V225.113H378.328V229.174H387.627V230.316ZM389.262 233.287H375.006V232.145H389.262V233.287ZM382.125 234.693C383.244 234.693 384.205 234.805 385.008 235.027C385.811 235.244 386.426 235.566 386.854 235.994C387.281 236.416 387.498 236.926 387.504 237.523C387.498 238.121 387.281 238.631 386.854 239.053C386.426 239.48 385.811 239.803 385.008 240.02C384.205 240.242 383.244 240.354 382.125 240.354C381 240.354 380.033 240.242 379.225 240.02C378.416 239.803 377.798 239.48 377.37 239.053C376.942 238.631 376.729 238.121 376.729 237.523C376.729 236.926 376.942 236.416 377.37 235.994C377.798 235.566 378.416 235.244 379.225 235.027C380.033 234.805 381 234.693 382.125 234.693ZM382.125 235.783C380.859 235.795 379.875 235.95 379.172 236.249C378.475 236.548 378.129 236.973 378.135 237.523C378.129 237.887 378.284 238.2 378.601 238.464C378.917 238.728 379.374 238.93 379.972 239.07C380.575 239.211 381.293 239.281 382.125 239.281C382.945 239.281 383.654 239.211 384.252 239.07C384.855 238.93 385.315 238.728 385.632 238.464C385.954 238.2 386.115 237.887 386.115 237.523C386.115 236.973 385.764 236.548 385.061 236.249C384.357 235.95 383.379 235.795 382.125 235.783ZM398.402 225.746C398.402 226.385 398.672 226.997 399.211 227.583C399.75 228.163 400.45 228.658 401.312 229.068C402.173 229.473 403.066 229.742 403.992 229.877L403.447 230.949C402.639 230.82 401.854 230.601 401.092 230.29C400.336 229.974 399.659 229.581 399.062 229.112C398.47 228.644 398.013 228.122 397.69 227.548C397.368 228.128 396.908 228.652 396.311 229.121C395.713 229.584 395.033 229.974 394.271 230.29C393.516 230.601 392.73 230.82 391.916 230.949L391.389 229.877C392.32 229.742 393.217 229.473 394.078 229.068C394.939 228.664 395.637 228.172 396.17 227.592C396.709 227.006 396.979 226.391 396.979 225.746V225.008H398.402V225.746ZM404.801 233.34H398.35V235.344H403.043V240.424H401.654V236.469H392.145V235.344H396.996V233.34H390.562V232.197H404.801V233.34ZM42.7266 256.248H45.3457V257.391H42.7266V265.424H41.3555V249.797H42.7266V256.248ZM39.8438 253.453H30.5449V252.311H34.5703V249.99H35.9414V252.311H39.8438V253.453ZM35.2734 254.754C36.0059 254.754 36.6621 254.906 37.2422 255.211C37.8223 255.516 38.2764 255.94 38.6045 256.485C38.9326 257.03 39.0996 257.648 39.1055 258.34C39.0996 259.031 38.9326 259.649 38.6045 260.194C38.2764 260.739 37.8223 261.164 37.2422 261.469C36.6621 261.773 36.0059 261.926 35.2734 261.926C34.5352 261.926 33.873 261.773 33.2871 261.469C32.707 261.164 32.2529 260.739 31.9248 260.194C31.5967 259.649 31.4355 259.031 31.4414 258.34C31.4355 257.648 31.5967 257.03 31.9248 256.485C32.2529 255.94 32.707 255.516 33.2871 255.211C33.873 254.906 34.5352 254.754 35.2734 254.754ZM35.2734 255.914C34.793 255.914 34.3594 256.02 33.9727 256.23C33.5918 256.436 33.293 256.723 33.0762 257.092C32.8594 257.461 32.7539 257.877 32.7598 258.34C32.7539 258.809 32.8594 259.228 33.0762 259.597C33.293 259.96 33.5918 260.244 33.9727 260.449C34.3594 260.654 34.793 260.754 35.2734 260.748C35.748 260.754 36.1758 260.654 36.5566 260.449C36.9375 260.244 37.2363 259.96 37.4531 259.597C37.6699 259.228 37.7812 258.809 37.7871 258.34C37.7812 257.877 37.6699 257.461 37.4531 257.092C37.2363 256.723 36.9375 256.436 36.5566 256.23C36.1758 256.02 35.748 255.914 35.2734 255.914ZM53.9414 253.559H57.7734V249.797H59.1445V265.459H57.7734V259.008H53.9414V261.469H46.8223V251.361H53.9414V253.559ZM48.1934 260.361H52.6055V252.451H48.1934V260.361ZM57.7734 257.865V254.701H53.9414V257.865H57.7734ZM62.9414 267.604H61.6406L62.6074 262.822H64.3125L62.9414 267.604ZM83.0859 254.543H85.4414V255.703H83.0859V261.293H81.7148V249.814H83.0859V254.543ZM83.8066 265.09H73.3125V260.168H74.666V263.93H83.8066V265.09ZM72.8906 253.576H77.4434V250.939H78.8145V258.656H71.5371V250.939H72.8906V253.576ZM77.4434 257.531V254.666H72.8906V257.531H77.4434ZM100.664 258.533H86.4258V257.408H100.664V258.533ZM93.5449 259.869C94.6641 259.863 95.625 259.966 96.4277 260.177C97.2305 260.388 97.8457 260.701 98.2734 261.117C98.7012 261.533 98.918 262.037 98.9238 262.629C98.918 263.227 98.7012 263.733 98.2734 264.149C97.8457 264.571 97.2305 264.888 96.4277 265.099C95.625 265.315 94.6641 265.424 93.5449 265.424C92.4141 265.424 91.4443 265.315 90.6357 265.099C89.833 264.888 89.2178 264.571 88.79 264.149C88.3623 263.733 88.1484 263.227 88.1484 262.629C88.1484 262.037 88.3623 261.533 88.79 261.117C89.2178 260.701 89.833 260.388 90.6357 260.177C91.4443 259.966 92.4141 259.863 93.5449 259.869ZM93.5449 260.924C92.2793 260.924 91.2949 261.073 90.5918 261.372C89.8945 261.665 89.5488 262.084 89.5547 262.629C89.5488 262.992 89.7041 263.3 90.0205 263.552C90.3369 263.804 90.7939 263.994 91.3916 264.123C91.9893 264.258 92.707 264.322 93.5449 264.316C94.3711 264.322 95.083 264.258 95.6807 264.123C96.2783 263.994 96.7354 263.804 97.0518 263.552C97.374 263.294 97.5352 262.986 97.5352 262.629C97.5352 262.271 97.374 261.964 97.0518 261.706C96.7354 261.448 96.2783 261.255 95.6807 261.126C95.083 260.991 94.3711 260.924 93.5449 260.924ZM93.5449 250.201C94.6699 250.201 95.6455 250.321 96.4717 250.562C97.3037 250.796 97.9424 251.139 98.3877 251.59C98.8389 252.035 99.0645 252.562 99.0645 253.172C99.0645 253.787 98.8418 254.317 98.3965 254.763C97.9512 255.202 97.3125 255.539 96.4805 255.773C95.6484 256.008 94.6699 256.125 93.5449 256.125C92.4141 256.125 91.4326 256.008 90.6006 255.773C89.7686 255.539 89.127 255.202 88.6758 254.763C88.2305 254.317 88.0078 253.787 88.0078 253.172C88.0078 252.562 88.2334 252.035 88.6846 251.59C89.1357 251.139 89.7773 250.796 90.6094 250.562C91.4414 250.321 92.4199 250.201 93.5449 250.201ZM93.5449 251.326C92.707 251.32 91.9775 251.391 91.3564 251.537C90.7354 251.684 90.2578 251.897 89.9238 252.179C89.5898 252.46 89.4258 252.791 89.4316 253.172C89.4258 253.559 89.5898 253.893 89.9238 254.174C90.2578 254.455 90.7324 254.669 91.3477 254.815C91.9688 254.962 92.7012 255.035 93.5449 255.035C94.377 255.035 95.1006 254.962 95.7158 254.815C96.3369 254.669 96.8145 254.455 97.1484 254.174C97.4883 253.893 97.6582 253.559 97.6582 253.172C97.6582 252.791 97.4883 252.46 97.1484 252.179C96.8145 251.897 96.3369 251.684 95.7158 251.537C95.0947 251.391 94.3711 251.32 93.5449 251.326ZM110.842 252.68H102V251.555H105.797V249.674H107.168V251.555H110.842V252.68ZM106.465 253.488C107.156 253.488 107.771 253.608 108.311 253.849C108.855 254.089 109.277 254.426 109.576 254.859C109.881 255.293 110.033 255.797 110.033 256.371C110.033 256.945 109.881 257.452 109.576 257.892C109.277 258.331 108.855 258.671 108.311 258.911C107.771 259.151 107.156 259.271 106.465 259.271C105.768 259.271 105.149 259.151 104.61 258.911C104.077 258.671 103.661 258.334 103.362 257.9C103.069 257.461 102.926 256.951 102.932 256.371C102.926 255.797 103.069 255.293 103.362 254.859C103.661 254.42 104.077 254.083 104.61 253.849C105.149 253.608 105.768 253.488 106.465 253.488ZM106.465 254.525C106.02 254.531 105.627 254.613 105.287 254.771C104.947 254.924 104.684 255.141 104.496 255.422C104.309 255.697 104.215 256.014 104.215 256.371C104.215 256.734 104.309 257.057 104.496 257.338C104.684 257.613 104.947 257.827 105.287 257.979C105.627 258.126 106.02 258.199 106.465 258.199C106.91 258.199 107.306 258.126 107.651 257.979C107.997 257.827 108.264 257.613 108.451 257.338C108.645 257.057 108.744 256.734 108.75 256.371C108.744 256.014 108.645 255.697 108.451 255.422C108.258 255.141 107.988 254.924 107.643 254.771C107.303 254.613 106.91 254.531 106.465 254.525ZM114.938 259.904H113.549V257.742H110.824V256.6H113.549V254.701H110.842V253.559H113.549V249.797H114.938V259.904ZM109.787 260.062C110.871 260.062 111.806 260.168 112.591 260.379C113.376 260.584 113.977 260.889 114.393 261.293C114.814 261.691 115.025 262.172 115.025 262.734C115.025 263.285 114.814 263.76 114.393 264.158C113.977 264.557 113.373 264.861 112.582 265.072C111.797 265.283 110.865 265.389 109.787 265.389C108.697 265.389 107.757 265.283 106.966 265.072C106.181 264.861 105.577 264.557 105.155 264.158C104.739 263.76 104.531 263.285 104.531 262.734C104.531 262.172 104.739 261.691 105.155 261.293C105.577 260.889 106.181 260.584 106.966 260.379C107.751 260.168 108.691 260.062 109.787 260.062ZM109.787 261.135C108.996 261.135 108.313 261.199 107.739 261.328C107.165 261.451 106.723 261.633 106.412 261.873C106.107 262.113 105.955 262.4 105.955 262.734C105.955 263.062 106.107 263.347 106.412 263.587C106.723 263.821 107.165 264 107.739 264.123C108.319 264.252 109.002 264.316 109.787 264.316C110.561 264.316 111.231 264.252 111.8 264.123C112.368 264 112.805 263.821 113.109 263.587C113.414 263.347 113.566 263.062 113.566 262.734C113.566 262.4 113.414 262.113 113.109 261.873C112.805 261.633 112.368 261.451 111.8 261.328C111.237 261.199 110.566 261.135 109.787 261.135ZM134.977 265.424H133.588V249.797H134.977V265.424ZM130.354 251.502C130.342 253.863 129.744 255.984 128.561 257.865C127.377 259.74 125.525 261.281 123.006 262.488L122.25 261.363C124.336 260.373 125.933 259.143 127.04 257.672C128.153 256.201 128.789 254.52 128.947 252.627H122.971V251.502H130.354ZM145.629 251.748C145.623 252.363 145.872 252.943 146.376 253.488C146.88 254.027 147.545 254.484 148.371 254.859C149.197 255.234 150.076 255.486 151.008 255.615L150.463 256.705C149.613 256.582 148.802 256.365 148.028 256.055C147.261 255.738 146.587 255.34 146.007 254.859C145.433 254.379 145.008 253.843 144.732 253.251C144.457 253.843 144.032 254.379 143.458 254.859C142.884 255.34 142.21 255.738 141.437 256.055C140.669 256.365 139.857 256.582 139.002 256.705L138.492 255.615C139.424 255.486 140.297 255.237 141.111 254.868C141.932 254.493 142.591 254.033 143.089 253.488C143.587 252.943 143.836 252.363 143.836 251.748V251.713H138.914V250.588H150.586V251.713H145.629V251.748ZM151.904 258.99H145.541V262.189H144.17V258.99H137.596V257.848H151.904V258.99ZM150.305 265.09H139.424V260.625H140.812V263.93H150.305V265.09ZM166.564 265.424H165.229V249.797H166.564V265.424ZM163.418 264.633H162.1V257.039H160.087C160.04 258.047 159.873 258.923 159.586 259.667C159.299 260.405 158.909 260.977 158.417 261.381C157.925 261.779 157.359 261.979 156.721 261.979C156.047 261.979 155.455 261.759 154.945 261.319C154.441 260.874 154.052 260.241 153.776 259.421C153.501 258.601 153.363 257.643 153.363 256.547C153.363 255.451 153.501 254.493 153.776 253.673C154.052 252.853 154.441 252.223 154.945 251.783C155.455 251.338 156.047 251.115 156.721 251.115C157.348 251.115 157.904 251.309 158.391 251.695C158.877 252.082 159.264 252.636 159.551 253.356C159.844 254.077 160.02 254.924 160.078 255.896H162.1V250.131H163.418V264.633ZM156.721 252.416C156.299 252.416 155.933 252.583 155.622 252.917C155.312 253.251 155.071 253.731 154.901 254.358C154.737 254.979 154.658 255.709 154.664 256.547C154.658 257.385 154.737 258.114 154.901 258.735C155.071 259.356 155.312 259.834 155.622 260.168C155.938 260.502 156.305 260.666 156.721 260.66C157.137 260.666 157.5 260.502 157.811 260.168C158.127 259.834 158.37 259.356 158.54 258.735C158.71 258.114 158.795 257.385 158.795 256.547C158.795 255.703 158.71 254.971 158.54 254.35C158.37 253.729 158.13 253.251 157.819 252.917C157.509 252.583 157.143 252.416 156.721 252.416ZM181.137 257.549H173.912V250.869H181.137V257.549ZM175.266 256.424H179.801V251.994H175.266V256.424ZM185.461 253.559H187.816V254.719H185.461V258.727H184.09V249.797H185.461V253.559ZM185.742 260.766H181.304C181.356 261.305 181.62 261.82 182.095 262.312C182.569 262.805 183.182 263.227 183.932 263.578C184.688 263.924 185.49 264.164 186.34 264.299L185.83 265.371C184.664 265.178 183.606 264.809 182.657 264.264C181.708 263.719 181.014 263.062 180.574 262.295C180.141 263.068 179.452 263.725 178.509 264.264C177.571 264.803 176.52 265.166 175.354 265.354L174.826 264.299C175.693 264.164 176.499 263.924 177.243 263.578C177.993 263.232 178.603 262.816 179.071 262.33C179.546 261.838 179.81 261.316 179.862 260.766H175.441V259.641H185.742V260.766ZM194.566 252.697C194.566 253.213 194.725 253.699 195.041 254.156C195.363 254.613 195.809 255.012 196.377 255.352C196.951 255.686 197.602 255.932 198.328 256.09L197.73 257.18C196.834 256.957 196.052 256.611 195.384 256.143C194.722 255.674 194.224 255.117 193.89 254.473C193.567 255.176 193.066 255.779 192.387 256.283C191.707 256.787 190.904 257.156 189.979 257.391L189.381 256.336C190.107 256.166 190.755 255.902 191.323 255.545C191.897 255.182 192.343 254.754 192.659 254.262C192.981 253.77 193.143 253.248 193.143 252.697V252.645H189.715V251.537H193.178V249.85H194.549V251.537H197.977V252.645H194.566V252.697ZM201.738 265.441H200.332V261.82H196.729V260.713H200.332V249.814H201.738V265.441ZM189.803 258.41C191.525 258.41 193.16 258.375 194.707 258.305C196.26 258.234 197.725 258.1 199.102 257.9L199.189 258.955C197.76 259.201 196.195 259.371 194.496 259.465V264.949H193.107V259.535C191.93 259.57 190.811 259.588 189.75 259.588H188.924L188.73 258.41H189.803ZM223.184 263.42H208.875V262.242H223.184V263.42ZM221.812 252.521H219.334V257.988H221.777V259.113H210.176V257.988H212.619V252.521H210.141V251.379H221.812V252.521ZM217.98 257.988V252.521H213.99V257.988H217.98ZM230.531 256.934H226.295V260.414C227.344 260.408 228.299 260.376 229.16 260.317C230.021 260.259 230.93 260.145 231.885 259.975L231.99 261.117C230.982 261.299 230.039 261.419 229.16 261.478C228.281 261.53 227.227 261.562 225.996 261.574H224.959V255.791H229.213V252.68H224.924V251.537H230.531V256.934ZM237.791 265.424H236.473V249.797H237.791V265.424ZM234.592 264.598H233.291V256.564H231.287V255.439H233.291V250.184H234.592V264.598ZM252.891 258.744H251.52V249.814H252.891V258.744ZM252.891 265.213H242.73V259.588H252.891V265.213ZM244.084 264.088H251.537V260.713H244.084V264.088ZM244.453 250.641C245.238 250.641 245.941 250.796 246.562 251.106C247.184 251.411 247.67 251.842 248.021 252.398C248.373 252.949 248.549 253.582 248.549 254.297C248.549 255 248.373 255.63 248.021 256.187C247.67 256.737 247.184 257.168 246.562 257.479C245.941 257.783 245.238 257.936 244.453 257.936C243.668 257.936 242.965 257.783 242.344 257.479C241.723 257.168 241.236 256.737 240.885 256.187C240.533 255.63 240.357 255 240.357 254.297C240.357 253.582 240.533 252.949 240.885 252.398C241.236 251.842 241.723 251.411 242.344 251.106C242.965 250.796 243.668 250.641 244.453 250.641ZM244.453 251.818C243.926 251.812 243.451 251.915 243.029 252.126C242.613 252.337 242.288 252.633 242.054 253.014C241.819 253.389 241.705 253.816 241.711 254.297C241.705 254.771 241.819 255.196 242.054 255.571C242.288 255.94 242.613 256.23 243.029 256.441C243.451 256.652 243.926 256.758 244.453 256.758C244.975 256.758 245.443 256.652 245.859 256.441C246.275 256.23 246.601 255.94 246.835 255.571C247.075 255.196 247.195 254.771 247.195 254.297C247.195 253.816 247.075 253.389 246.835 253.014C246.601 252.633 246.275 252.337 245.859 252.126C245.443 251.915 244.975 251.812 244.453 251.818ZM262.664 250.078C263.824 250.078 264.817 250.184 265.644 250.395C266.47 250.6 267.1 250.904 267.533 251.309C267.967 251.707 268.184 252.193 268.184 252.768C268.184 253.646 267.703 254.32 266.742 254.789C265.781 255.258 264.422 255.498 262.664 255.51C261.504 255.504 260.508 255.396 259.676 255.185C258.85 254.974 258.217 254.666 257.777 254.262C257.344 253.852 257.127 253.354 257.127 252.768C257.127 252.193 257.344 251.707 257.777 251.309C258.217 250.904 258.85 250.6 259.676 250.395C260.508 250.184 261.504 250.078 262.664 250.078ZM262.664 251.115C261.803 251.115 261.064 251.183 260.449 251.317C259.834 251.446 259.365 251.637 259.043 251.889C258.721 252.135 258.562 252.428 258.568 252.768C258.562 253.307 258.917 253.723 259.632 254.016C260.347 254.309 261.357 254.455 262.664 254.455C263.965 254.455 264.976 254.309 265.696 254.016C266.417 253.723 266.777 253.307 266.777 252.768C266.777 252.428 266.613 252.135 266.285 251.889C265.957 251.643 265.485 251.452 264.87 251.317C264.255 251.183 263.52 251.115 262.664 251.115ZM269.783 257.689H255.545V256.564H269.783V257.689ZM267.955 262.541H258.674V264.158H268.43V265.248H257.303V261.521H266.602V260.098H257.268V259.043H267.955V262.541ZM288.574 257.883H287.186V253.822H283.705V252.68H287.186V249.797H288.574V257.883ZM288.574 262.4H279.838V264.105H289.154V265.213H278.484V261.346H287.203V259.781H278.449V258.674H288.574V262.4ZM280.945 251.783C280.939 252.457 281.101 253.104 281.429 253.726C281.757 254.347 282.217 254.895 282.809 255.369C283.4 255.844 284.074 256.207 284.83 256.459L284.092 257.531C283.225 257.221 282.46 256.77 281.798 256.178C281.136 255.586 280.632 254.897 280.286 254.112C279.958 254.997 279.454 255.771 278.774 256.433C278.095 257.089 277.289 257.584 276.357 257.918L275.602 256.811C276.381 256.553 277.069 256.175 277.667 255.677C278.271 255.173 278.739 254.587 279.073 253.919C279.413 253.245 279.586 252.533 279.592 251.783V250.307H280.945V251.783ZM304.553 265.424H303.234V249.797H304.553V265.424ZM301.389 264.633H300.07V259.219H297.17V258.076H300.07V255.299H297.425C297.038 256.664 296.396 257.915 295.5 259.052C294.604 260.188 293.438 261.188 292.002 262.049L291.158 261.047C292.828 260.062 294.105 258.885 294.99 257.514C295.881 256.137 296.396 254.613 296.537 252.943H291.861V251.801H297.908C297.908 252.604 297.838 253.389 297.697 254.156H300.07V250.219H301.389V264.633ZM318.949 253.541H321.322V254.684H318.949V258.393H317.578V249.744H318.949V253.541ZM318.949 262.664H310.371V264.193H319.529V265.248H309.018V261.645H317.578V260.238H308.982V259.201H318.949V262.664ZM316.084 252.328H306.768V251.221H310.74V249.639H312.111V251.221H316.084V252.328ZM311.426 253.031C312.176 253.031 312.832 253.137 313.395 253.348C313.963 253.553 314.402 253.849 314.713 254.235C315.023 254.622 315.182 255.076 315.188 255.598C315.182 256.119 315.023 256.573 314.713 256.96C314.402 257.347 313.963 257.646 313.395 257.856C312.832 258.062 312.176 258.164 311.426 258.164C310.67 258.164 310.005 258.062 309.431 257.856C308.862 257.646 308.423 257.347 308.112 256.96C307.808 256.573 307.658 256.119 307.664 255.598C307.658 255.076 307.808 254.622 308.112 254.235C308.423 253.849 308.862 253.553 309.431 253.348C310.005 253.137 310.67 253.031 311.426 253.031ZM311.426 254.051C310.939 254.051 310.509 254.115 310.134 254.244C309.765 254.373 309.478 254.555 309.272 254.789C309.073 255.023 308.977 255.293 308.982 255.598C308.977 255.908 309.073 256.181 309.272 256.415C309.478 256.644 309.765 256.819 310.134 256.942C310.503 257.065 310.934 257.127 311.426 257.127C312.17 257.127 312.765 256.992 313.21 256.723C313.655 256.447 313.881 256.072 313.887 255.598C313.881 255.287 313.775 255.018 313.57 254.789C313.365 254.555 313.078 254.373 312.709 254.244C312.34 254.115 311.912 254.051 311.426 254.051ZM334.646 251.256C334.646 251.959 334.919 252.633 335.464 253.277C336.015 253.922 336.729 254.464 337.608 254.903C338.487 255.343 339.398 255.627 340.342 255.756L339.779 256.881C338.959 256.746 338.165 256.512 337.397 256.178C336.63 255.838 335.944 255.416 335.341 254.912C334.737 254.402 334.271 253.837 333.943 253.216C333.621 253.837 333.155 254.402 332.546 254.912C331.942 255.416 331.257 255.838 330.489 256.178C329.722 256.512 328.928 256.746 328.107 256.881L327.545 255.756C328.494 255.627 329.405 255.346 330.278 254.912C331.151 254.473 331.86 253.934 332.405 253.295C332.95 252.65 333.223 251.971 333.223 251.256V250.359H334.646V251.256ZM341.045 259.764H334.576V265.424H333.223V259.764H326.807V258.604H341.045V259.764ZM352.172 260.291C352.172 261.012 352.362 261.706 352.743 262.374C353.13 263.042 353.681 263.578 354.396 263.982C354.87 263.684 355.28 263.326 355.626 262.91C355.972 262.488 356.232 262.052 356.408 261.601C356.584 261.144 356.672 260.707 356.672 260.291V259.43H358.025V260.291C358.025 260.83 358.151 261.357 358.403 261.873C358.661 262.383 359.03 262.843 359.511 263.253C359.991 263.657 360.557 263.971 361.207 264.193L360.521 265.213C359.754 264.943 359.098 264.551 358.553 264.035C358.008 263.52 357.598 262.928 357.322 262.26C357.064 262.928 356.692 263.534 356.206 264.079C355.72 264.624 355.131 265.043 354.439 265.336C353.707 265.055 353.092 264.647 352.594 264.114C352.102 263.587 351.732 262.98 351.486 262.295C351.199 262.945 350.789 263.525 350.256 264.035C349.723 264.545 349.09 264.938 348.357 265.213L347.654 264.193C348.293 263.953 348.85 263.625 349.324 263.209C349.805 262.787 350.174 262.321 350.432 261.812C350.695 261.302 350.83 260.795 350.836 260.291V259.43H352.172V260.291ZM359.783 258.744H358.412V249.814H359.783V258.744ZM351.346 250.729C352.131 250.729 352.834 250.884 353.455 251.194C354.076 251.499 354.562 251.93 354.914 252.486C355.266 253.037 355.441 253.67 355.441 254.385C355.441 255.088 355.266 255.715 354.914 256.266C354.562 256.816 354.076 257.244 353.455 257.549C352.834 257.854 352.131 258.006 351.346 258.006C350.561 258.006 349.857 257.854 349.236 257.549C348.615 257.244 348.129 256.816 347.777 256.266C347.426 255.715 347.25 255.088 347.25 254.385C347.25 253.67 347.426 253.037 347.777 252.486C348.129 251.93 348.615 251.499 349.236 251.194C349.857 250.884 350.561 250.729 351.346 250.729ZM351.346 251.906C350.818 251.9 350.344 252.003 349.922 252.214C349.506 252.425 349.181 252.721 348.946 253.102C348.712 253.477 348.598 253.904 348.604 254.385C348.598 254.859 348.712 255.284 348.946 255.659C349.181 256.034 349.506 256.327 349.922 256.538C350.344 256.749 350.818 256.857 351.346 256.863C351.867 256.857 352.336 256.749 352.752 256.538C353.168 256.327 353.493 256.034 353.728 255.659C353.968 255.284 354.088 254.859 354.088 254.385C354.088 253.904 353.968 253.477 353.728 253.102C353.493 252.721 353.168 252.425 352.752 252.214C352.336 252.003 351.867 251.9 351.346 251.906ZM365.619 261.012H373.424V259.184H374.812V265.213H364.248V259.184H365.619V261.012ZM373.424 264.105V262.102H365.619V264.105H373.424ZM376.676 258.076H362.438V256.934H376.676V258.076ZM370.277 250.711C370.277 251.332 370.547 251.93 371.086 252.504C371.625 253.072 372.325 253.556 373.187 253.954C374.054 254.347 374.947 254.602 375.867 254.719L375.357 255.826C374.543 255.703 373.752 255.489 372.984 255.185C372.223 254.874 371.543 254.487 370.945 254.024C370.348 253.562 369.888 253.046 369.565 252.478C369.243 253.046 368.78 253.562 368.177 254.024C367.579 254.487 366.899 254.874 366.138 255.185C365.376 255.489 364.588 255.703 363.773 255.826L363.246 254.719C364.184 254.596 365.083 254.341 365.944 253.954C366.812 253.562 367.512 253.084 368.045 252.521C368.584 251.953 368.854 251.35 368.854 250.711V249.973H370.277V250.711ZM390.879 265.424H389.508V249.797H390.879V265.424ZM380.367 260.203C383.01 260.191 385.5 259.939 387.838 259.447L388.031 260.625C386.701 260.9 385.406 261.1 384.146 261.223C382.887 261.34 381.598 261.398 380.279 261.398H379.014V251.344H380.367V260.203ZM405.645 255.984H408.264V257.145H405.645V265.459H404.273V249.797H405.645V255.984ZM401.531 252.469H395.607V260.379C397.066 260.379 398.341 260.338 399.431 260.256C400.521 260.174 401.631 260.027 402.762 259.816L402.938 261.012C401.783 261.223 400.649 261.363 399.536 261.434C398.423 261.504 397.066 261.539 395.467 261.539H394.236V251.326H401.531V252.469ZM410.76 264.105C410.555 264.105 410.364 264.056 410.188 263.956C410.019 263.851 409.881 263.71 409.775 263.534C409.676 263.358 409.629 263.168 409.635 262.963C409.629 262.764 409.676 262.579 409.775 262.409C409.881 262.233 410.019 262.096 410.188 261.996C410.364 261.891 410.555 261.838 410.76 261.838C410.959 261.838 411.144 261.891 411.313 261.996C411.489 262.096 411.627 262.233 411.727 262.409C411.832 262.579 411.885 262.764 411.885 262.963C411.885 263.168 411.832 263.358 411.727 263.534C411.627 263.71 411.489 263.851 411.313 263.956C411.144 264.056 410.959 264.105 410.76 264.105ZM34.8164 301.01C35.584 301.016 36.2637 301.244 36.8555 301.695C37.4531 302.141 37.9189 302.773 38.2529 303.594C38.5928 304.414 38.7656 305.369 38.7715 306.459C38.7656 307.549 38.5928 308.504 38.2529 309.324C37.9189 310.145 37.4531 310.777 36.8555 311.223C36.2578 311.668 35.5781 311.891 34.8164 311.891C34.0488 311.891 33.3662 311.668 32.7686 311.223C32.1709 310.777 31.7051 310.145 31.3711 309.324C31.043 308.504 30.8789 307.549 30.8789 306.459C30.8789 305.369 31.043 304.414 31.3711 303.594C31.7051 302.773 32.1709 302.141 32.7686 301.695C33.3662 301.244 34.0488 301.016 34.8164 301.01ZM34.8164 302.24C34.3008 302.246 33.8438 302.425 33.4453 302.776C33.0469 303.122 32.7363 303.614 32.5137 304.253C32.291 304.886 32.1797 305.621 32.1797 306.459C32.1797 307.297 32.291 308.035 32.5137 308.674C32.7363 309.307 33.0469 309.796 33.4453 310.142C33.8496 310.487 34.3066 310.66 34.8164 310.66C35.332 310.66 35.7861 310.487 36.1787 310.142C36.5771 309.796 36.8848 309.307 37.1016 308.674C37.3242 308.035 37.4355 307.297 37.4355 306.459C37.4355 305.621 37.3242 304.886 37.1016 304.253C36.8848 303.614 36.5771 303.122 36.1787 302.776C35.7861 302.425 35.332 302.246 34.8164 302.24ZM42.7266 306.037H45.3457V307.232H42.7266V315.424H41.3555V299.797H42.7266V306.037ZM59.0742 315.459H57.6855V299.797H59.0742V315.459ZM50.7598 301.01C51.5332 301.016 52.2217 301.244 52.8252 301.695C53.4287 302.141 53.9004 302.773 54.2402 303.594C54.5801 304.414 54.75 305.369 54.75 306.459C54.75 307.549 54.5801 308.504 54.2402 309.324C53.9004 310.145 53.4287 310.777 52.8252 311.223C52.2217 311.668 51.5332 311.891 50.7598 311.891C49.9863 311.891 49.2949 311.668 48.6855 311.223C48.082 310.777 47.6104 310.145 47.2705 309.324C46.9365 308.504 46.7695 307.549 46.7695 306.459C46.7695 305.369 46.9365 304.414 47.2705 303.594C47.6104 302.773 48.082 302.141 48.6855 301.695C49.2891 301.244 49.9805 301.016 50.7598 301.01ZM50.7598 302.24C50.2383 302.246 49.7754 302.425 49.3711 302.776C48.9727 303.122 48.6621 303.614 48.4395 304.253C48.2168 304.886 48.1055 305.621 48.1055 306.459C48.1055 307.297 48.2168 308.035 48.4395 308.674C48.6621 309.307 48.9756 309.796 49.3799 310.142C49.7842 310.487 50.2441 310.66 50.7598 310.66C51.2754 310.66 51.7354 310.487 52.1396 310.142C52.5439 309.796 52.8574 309.307 53.0801 308.674C53.3027 308.035 53.4141 307.297 53.4141 306.459C53.4141 305.621 53.3027 304.886 53.0801 304.253C52.8574 303.614 52.5439 303.122 52.1396 302.776C51.7412 302.425 51.2812 302.246 50.7598 302.24ZM74.209 301.871C74.209 302.861 74.1855 303.737 74.1387 304.499C74.0918 305.255 73.9746 306.107 73.7871 307.057L72.416 306.934C72.5859 306.131 72.7061 305.308 72.7764 304.464L63.2578 304.912L63.0645 303.734L72.8379 303.418C72.8496 303.055 72.8555 302.539 72.8555 301.871V301.695H63.4512V300.57H74.209V301.871ZM75.9844 309.236H61.7637V308.111H67.5645V305.809H68.9531V308.111H75.9844V309.236ZM74.5781 315.178H63.5742V310.572H64.9629V314.053H74.5781V315.178ZM78.498 317.604H77.1973L78.1641 312.822H79.8691L78.498 317.604ZM92.5254 306.934H88.2891V310.414C89.3379 310.408 90.293 310.376 91.1543 310.317C92.0156 310.259 92.9238 310.145 93.8789 309.975L93.9844 311.117C92.9766 311.299 92.0332 311.419 91.1543 311.478C90.2754 311.53 89.2207 311.562 87.9902 311.574H86.9531V305.791H91.207V302.68H86.918V301.537H92.5254V306.934ZM99.7852 315.424H98.4668V299.797H99.7852V315.424ZM96.5859 314.598H95.2852V306.564H93.2812V305.439H95.2852V300.184H96.5859V314.598ZM114.867 315.459H113.479V299.797H114.867V315.459ZM106.553 301.01C107.326 301.016 108.015 301.244 108.618 301.695C109.222 302.141 109.693 302.773 110.033 303.594C110.373 304.414 110.543 305.369 110.543 306.459C110.543 307.549 110.373 308.504 110.033 309.324C109.693 310.145 109.222 310.777 108.618 311.223C108.015 311.668 107.326 311.891 106.553 311.891C105.779 311.891 105.088 311.668 104.479 311.223C103.875 310.777 103.403 310.145 103.063 309.324C102.729 308.504 102.562 307.549 102.562 306.459C102.562 305.369 102.729 304.414 103.063 303.594C103.403 302.773 103.875 302.141 104.479 301.695C105.082 301.244 105.773 301.016 106.553 301.01ZM106.553 302.24C106.031 302.246 105.568 302.425 105.164 302.776C104.766 303.122 104.455 303.614 104.232 304.253C104.01 304.886 103.898 305.621 103.898 306.459C103.898 307.297 104.01 308.035 104.232 308.674C104.455 309.307 104.769 309.796 105.173 310.142C105.577 310.487 106.037 310.66 106.553 310.66C107.068 310.66 107.528 310.487 107.933 310.142C108.337 309.796 108.65 309.307 108.873 308.674C109.096 308.035 109.207 307.297 109.207 306.459C109.207 305.621 109.096 304.886 108.873 304.253C108.65 303.614 108.337 303.122 107.933 302.776C107.534 302.425 107.074 302.246 106.553 302.24ZM121.723 301.01C122.49 301.016 123.17 301.244 123.762 301.695C124.359 302.141 124.825 302.773 125.159 303.594C125.499 304.414 125.672 305.369 125.678 306.459C125.672 307.549 125.499 308.504 125.159 309.324C124.825 310.145 124.359 310.777 123.762 311.223C123.164 311.668 122.484 311.891 121.723 311.891C120.955 311.891 120.272 311.668 119.675 311.223C119.077 310.777 118.611 310.145 118.277 309.324C117.949 308.504 117.785 307.549 117.785 306.459C117.785 305.369 117.949 304.414 118.277 303.594C118.611 302.773 119.077 302.141 119.675 301.695C120.272 301.244 120.955 301.016 121.723 301.01ZM121.723 302.24C121.207 302.246 120.75 302.425 120.352 302.776C119.953 303.122 119.643 303.614 119.42 304.253C119.197 304.886 119.086 305.621 119.086 306.459C119.086 307.297 119.197 308.035 119.42 308.674C119.643 309.307 119.953 309.796 120.352 310.142C120.756 310.487 121.213 310.66 121.723 310.66C122.238 310.66 122.692 310.487 123.085 310.142C123.483 309.796 123.791 309.307 124.008 308.674C124.23 308.035 124.342 307.297 124.342 306.459C124.342 305.621 124.23 304.886 124.008 304.253C123.791 303.614 123.483 303.122 123.085 302.776C122.692 302.425 122.238 302.246 121.723 302.24ZM129.633 306.037H132.252V307.232H129.633V315.424H128.262V299.797H129.633V306.037ZM147.387 308.129H140.865V309.834H139.512V308.129H133.096V306.934H147.387V308.129ZM140.883 311.047C140.883 311.604 141.126 312.113 141.612 312.576C142.104 313.033 142.758 313.411 143.572 313.71C144.393 314.009 145.283 314.205 146.244 314.299L145.805 315.354C144.527 315.219 143.382 314.914 142.368 314.439C141.36 313.971 140.631 313.37 140.18 312.638C139.723 313.364 138.99 313.965 137.982 314.439C136.98 314.914 135.85 315.219 134.59 315.354L134.133 314.299C135.076 314.205 135.955 314.009 136.77 313.71C137.59 313.405 138.246 313.024 138.738 312.567C139.23 312.104 139.477 311.598 139.477 311.047V310.537H140.883V311.047ZM140.215 300.061C141.357 300.061 142.342 300.172 143.168 300.395C143.994 300.617 144.627 300.942 145.066 301.37C145.512 301.792 145.734 302.305 145.734 302.908C145.734 303.506 145.512 304.021 145.066 304.455C144.627 304.883 143.991 305.208 143.159 305.431C142.333 305.653 141.352 305.762 140.215 305.756C139.078 305.762 138.094 305.653 137.262 305.431C136.43 305.208 135.791 304.883 135.346 304.455C134.9 304.021 134.678 303.506 134.678 302.908C134.678 302.305 134.9 301.792 135.346 301.37C135.791 300.942 136.427 300.617 137.253 300.395C138.085 300.172 139.072 300.061 140.215 300.061ZM140.215 301.115C139.371 301.109 138.639 301.18 138.018 301.326C137.396 301.467 136.919 301.675 136.585 301.95C136.257 302.22 136.096 302.539 136.102 302.908C136.096 303.271 136.257 303.588 136.585 303.857C136.919 304.127 137.396 304.332 138.018 304.473C138.639 304.613 139.371 304.684 140.215 304.684C141.053 304.684 141.779 304.613 142.395 304.473C143.016 304.332 143.493 304.127 143.827 303.857C144.161 303.588 144.328 303.271 144.328 302.908C144.328 302.539 144.161 302.22 143.827 301.95C143.493 301.675 143.016 301.467 142.395 301.326C141.779 301.18 141.053 301.109 140.215 301.115ZM149.848 317.604H148.547L149.514 312.822H151.219L149.848 317.604ZM162.434 302.855C162.434 303.447 162.562 304.03 162.82 304.604C163.078 305.173 163.447 305.686 163.928 306.143C164.408 306.6 164.977 306.957 165.633 307.215L164.895 308.287C164.168 307.982 163.538 307.561 163.005 307.021C162.472 306.477 162.064 305.853 161.783 305.149C161.484 305.929 161.057 306.629 160.5 307.25C159.943 307.865 159.293 308.34 158.549 308.674L157.793 307.602C158.461 307.309 159.044 306.904 159.542 306.389C160.046 305.867 160.433 305.299 160.702 304.684C160.978 304.062 161.115 303.453 161.115 302.855V300.764H162.434V302.855ZM171.047 309.254H169.729V305.053H167.654V309.166H166.354V300.096H167.654V303.893H169.729V299.814H171.047V309.254ZM171.047 315.424H169.693V311.258H160.518V310.115H171.047V315.424ZM178.553 302.328C178.553 303.025 178.717 303.699 179.045 304.35C179.379 304.994 179.839 305.562 180.425 306.055C181.017 306.547 181.688 306.922 182.438 307.18L181.682 308.27C180.82 307.953 180.062 307.487 179.405 306.872C178.749 306.251 178.248 305.533 177.902 304.719C177.568 305.645 177.064 306.453 176.391 307.145C175.717 307.836 174.926 308.357 174.018 308.709L173.279 307.602C174.053 307.309 174.732 306.893 175.318 306.354C175.91 305.814 176.37 305.19 176.698 304.481C177.026 303.767 177.193 303.014 177.199 302.223V300.605H178.553V302.328ZM185.549 303.875H187.904V305.035H185.549V309.307H184.178V299.797H185.549V303.875ZM180.539 309.711C181.605 309.711 182.525 309.822 183.299 310.045C184.072 310.268 184.664 310.593 185.074 311.021C185.484 311.442 185.689 311.949 185.689 312.541C185.689 313.145 185.484 313.66 185.074 314.088C184.664 314.516 184.072 314.838 183.299 315.055C182.531 315.277 181.611 315.389 180.539 315.389C179.467 315.389 178.541 315.277 177.762 315.055C176.988 314.832 176.394 314.507 175.978 314.079C175.562 313.657 175.354 313.145 175.354 312.541C175.354 311.949 175.562 311.442 175.978 311.021C176.394 310.593 176.991 310.268 177.771 310.045C178.55 309.822 179.473 309.711 180.539 309.711ZM180.539 310.818C179.76 310.818 179.083 310.889 178.509 311.029C177.935 311.164 177.495 311.363 177.19 311.627C176.886 311.885 176.736 312.189 176.742 312.541C176.736 312.904 176.886 313.218 177.19 313.481C177.495 313.745 177.932 313.944 178.5 314.079C179.074 314.22 179.754 314.293 180.539 314.299C181.734 314.287 182.669 314.129 183.343 313.824C184.017 313.52 184.354 313.092 184.354 312.541C184.354 312.184 184.201 311.876 183.896 311.618C183.592 311.36 183.152 311.164 182.578 311.029C182.004 310.889 181.324 310.818 180.539 310.818ZM198.961 303.998C198.955 304.924 199.143 305.844 199.523 306.758C199.904 307.666 200.42 308.475 201.07 309.184C201.721 309.893 202.43 310.42 203.197 310.766L202.354 311.855C201.463 311.416 200.654 310.763 199.928 309.896C199.207 309.022 198.662 308.032 198.293 306.925C197.93 308.103 197.385 309.157 196.658 310.089C195.932 311.015 195.111 311.709 194.197 312.172L193.318 311.012C194.086 310.654 194.795 310.112 195.445 309.386C196.096 308.653 196.614 307.815 197.001 306.872C197.388 305.923 197.584 304.965 197.59 303.998V301.15H198.961V303.998ZM206.291 315.459H204.902V299.797H206.291V315.459ZM216.75 302.1C216.75 302.949 217.034 303.772 217.603 304.569C218.177 305.36 218.912 306.034 219.809 306.591C220.705 307.142 221.613 307.502 222.533 307.672L221.9 308.832C221.104 308.645 220.318 308.34 219.545 307.918C218.771 307.496 218.077 306.975 217.462 306.354C216.847 305.732 216.375 305.05 216.047 304.306C215.719 305.044 215.247 305.724 214.632 306.345C214.017 306.966 213.322 307.49 212.549 307.918C211.781 308.34 210.996 308.645 210.193 308.832L209.561 307.672C210.48 307.49 211.386 307.127 212.276 306.582C213.167 306.031 213.894 305.36 214.456 304.569C215.024 303.778 215.309 302.955 215.309 302.1V300.904H216.75V302.1ZM223.271 313.297H208.963V312.154H223.271V313.297ZM231.217 301.977H226.576V303.91H230.566V305H226.576V307.127C227.76 307.121 228.744 307.092 229.529 307.039C230.314 306.98 231.111 306.875 231.92 306.723L232.061 307.83C231.176 307.994 230.309 308.105 229.459 308.164C228.615 308.223 227.543 308.252 226.242 308.252H225.258V300.816H231.217V301.977ZM237.791 309.219H236.473V299.797H237.791V309.219ZM234.75 309.078H233.414V304.877H231.305V303.734H233.414V300.078H234.75V309.078ZM237.791 315.213H227.473V309.939H237.791V315.213ZM228.826 314.088H236.438V311.064H228.826V314.088ZM258.85 308.393H244.594V307.232H258.85V308.393ZM257.18 305.738H246.404V300.43H257.074V301.59H247.758V304.613H257.18V305.738ZM251.713 309.764C252.826 309.764 253.784 309.875 254.587 310.098C255.396 310.314 256.014 310.634 256.441 311.056C256.869 311.478 257.086 311.984 257.092 312.576C257.086 313.174 256.869 313.684 256.441 314.105C256.014 314.527 255.398 314.847 254.596 315.063C253.793 315.28 252.832 315.389 251.713 315.389C250.588 315.389 249.621 315.28 248.812 315.063C248.004 314.847 247.386 314.527 246.958 314.105C246.53 313.684 246.316 313.174 246.316 312.576C246.316 311.984 246.53 311.478 246.958 311.056C247.386 310.634 248.004 310.314 248.812 310.098C249.621 309.875 250.588 309.764 251.713 309.764ZM251.713 310.836C250.875 310.842 250.157 310.915 249.56 311.056C248.962 311.19 248.505 311.39 248.188 311.653C247.872 311.911 247.717 312.219 247.723 312.576C247.717 313.127 248.062 313.552 248.76 313.851C249.463 314.149 250.447 314.299 251.713 314.299C252.961 314.299 253.937 314.149 254.64 313.851C255.349 313.552 255.703 313.127 255.703 312.576C255.703 312.219 255.542 311.911 255.22 311.653C254.903 311.39 254.446 311.19 253.849 311.056C253.251 310.915 252.539 310.842 251.713 310.836ZM277.553 315.459H276.164V299.797H277.553V315.459ZM273.123 302.451H267.076V310.379C268.682 310.379 270.032 310.344 271.128 310.273C272.229 310.203 273.34 310.068 274.459 309.869L274.6 311.029C273.451 311.234 272.317 311.375 271.198 311.451C270.079 311.521 268.664 311.562 266.953 311.574H265.688V301.291H273.123V302.451ZM285.516 304.596C285.51 305.416 285.686 306.251 286.043 307.101C286.406 307.944 286.898 308.709 287.52 309.395C288.141 310.074 288.826 310.59 289.576 310.941L288.785 312.031C287.912 311.609 287.124 310.965 286.421 310.098C285.724 309.23 285.196 308.264 284.839 307.197C284.604 307.959 284.282 308.683 283.872 309.368C283.462 310.054 282.993 310.66 282.466 311.188C281.938 311.709 281.385 312.119 280.805 312.418L279.961 311.328C280.705 310.971 281.396 310.429 282.035 309.702C282.68 308.976 283.192 308.161 283.573 307.259C283.96 306.356 284.156 305.469 284.162 304.596V302.557H280.523V301.414H289.031V302.557H285.516V304.596ZM292.318 306.125H294.938V307.303H292.318V315.424H290.947V299.797H292.318V306.125ZM308.684 311.24H307.312V299.814H308.684V311.24ZM309.176 315.09H298.594V310.08H299.965V313.93H309.176V315.09ZM300.246 300.904C301.02 300.904 301.717 301.068 302.338 301.396C302.965 301.719 303.454 302.173 303.806 302.759C304.163 303.339 304.342 303.998 304.342 304.736C304.342 305.486 304.163 306.154 303.806 306.74C303.454 307.32 302.965 307.774 302.338 308.103C301.717 308.425 301.02 308.586 300.246 308.586C299.473 308.586 298.772 308.425 298.146 308.103C297.524 307.774 297.035 307.32 296.678 306.74C296.326 306.154 296.15 305.486 296.15 304.736C296.15 303.998 296.326 303.339 296.678 302.759C297.035 302.173 297.524 301.719 298.146 301.396C298.772 301.068 299.473 300.904 300.246 300.904ZM300.246 302.117C299.725 302.117 299.253 302.229 298.831 302.451C298.415 302.674 298.087 302.984 297.847 303.383C297.612 303.781 297.498 304.232 297.504 304.736C297.498 305.246 297.612 305.703 297.847 306.107C298.087 306.506 298.415 306.816 298.831 307.039C299.253 307.262 299.725 307.373 300.246 307.373C300.756 307.373 301.219 307.262 301.635 307.039C302.057 306.816 302.388 306.506 302.628 306.107C302.868 305.703 302.988 305.246 302.988 304.736C302.988 304.238 302.868 303.79 302.628 303.392C302.388 302.993 302.057 302.683 301.635 302.46C301.219 302.231 300.756 302.117 300.246 302.117ZM327.949 306.16H330.48V307.32H327.949V315.424H326.578V299.797H327.949V306.16ZM323.906 301.484C323.906 303.811 323.323 305.92 322.157 307.812C320.991 309.699 319.184 311.246 316.734 312.453L315.961 311.363C317.971 310.361 319.526 309.125 320.628 307.654C321.729 306.178 322.359 304.508 322.518 302.645H316.682V301.484H323.906ZM344.297 315.459H342.908V299.797H344.297V315.459ZM335.982 301.01C336.756 301.016 337.444 301.244 338.048 301.695C338.651 302.141 339.123 302.773 339.463 303.594C339.803 304.414 339.973 305.369 339.973 306.459C339.973 307.549 339.803 308.504 339.463 309.324C339.123 310.145 338.651 310.777 338.048 311.223C337.444 311.668 336.756 311.891 335.982 311.891C335.209 311.891 334.518 311.668 333.908 311.223C333.305 310.777 332.833 310.145 332.493 309.324C332.159 308.504 331.992 307.549 331.992 306.459C331.992 305.369 332.159 304.414 332.493 303.594C332.833 302.773 333.305 302.141 333.908 301.695C334.512 301.244 335.203 301.016 335.982 301.01ZM335.982 302.24C335.461 302.246 334.998 302.425 334.594 302.776C334.195 303.122 333.885 303.614 333.662 304.253C333.439 304.886 333.328 305.621 333.328 306.459C333.328 307.297 333.439 308.035 333.662 308.674C333.885 309.307 334.198 309.796 334.603 310.142C335.007 310.487 335.467 310.66 335.982 310.66C336.498 310.66 336.958 310.487 337.362 310.142C337.767 309.796 338.08 309.307 338.303 308.674C338.525 308.035 338.637 307.297 338.637 306.459C338.637 305.621 338.525 304.886 338.303 304.253C338.08 303.614 337.767 303.122 337.362 302.776C336.964 302.425 336.504 302.246 335.982 302.24ZM359.59 308.463H348.797V301.256H359.432V302.398H350.168V307.32H359.59V308.463ZM361.277 313.297H346.969V312.137H361.277V313.297ZM380.402 315.424H379.084V299.797H380.402V315.424ZM377.238 314.615H375.938V306.564H373.301V305.439H375.938V300.184H377.238V314.615ZM371.631 304.262C371.631 305.17 371.763 306.058 372.026 306.925C372.29 307.786 372.677 308.565 373.187 309.263C373.696 309.954 374.303 310.502 375.006 310.906L374.162 311.926C373.406 311.475 372.759 310.851 372.22 310.054C371.681 309.251 371.271 308.343 370.989 307.329C370.702 308.425 370.277 309.406 369.715 310.273C369.158 311.141 368.496 311.814 367.729 312.295L366.85 311.258C367.559 310.836 368.174 310.259 368.695 309.526C369.217 308.794 369.612 307.974 369.882 307.065C370.157 306.151 370.295 305.217 370.295 304.262V302.785H367.289V301.643H374.496V302.785H371.631V304.262ZM387.891 302.697C387.891 303.383 388.049 304.042 388.365 304.675C388.688 305.302 389.139 305.858 389.719 306.345C390.299 306.831 390.973 307.209 391.74 307.479L391.037 308.551C390.152 308.234 389.379 307.771 388.717 307.162C388.055 306.547 387.557 305.835 387.223 305.026C386.889 305.905 386.379 306.679 385.693 307.347C385.008 308.009 384.205 308.51 383.285 308.85L382.547 307.777C383.32 307.502 384.009 307.106 384.612 306.591C385.216 306.075 385.685 305.48 386.019 304.807C386.358 304.133 386.531 303.43 386.537 302.697V302.029H382.969V300.904H391.406V302.029H387.891V302.697ZM394.816 303.928H397.172V305.105H394.816V309.219H393.445V299.797H394.816V303.928ZM394.816 315.424H393.445V311.17H384.586V310.045H394.816V315.424ZM415.629 309.201H414.24V307.092H410.092V305.949H414.24V303.84H410.241C409.737 305.082 408.905 306.154 407.745 307.057C406.585 307.959 405.158 308.662 403.465 309.166L402.885 308.076C404.145 307.701 405.237 307.224 406.163 306.644C407.089 306.058 407.818 305.384 408.352 304.622C408.885 303.86 409.198 303.031 409.292 302.135H403.676V300.975H410.795C410.795 301.578 410.728 302.164 410.593 302.732H414.24V299.814H415.629V309.201ZM410.514 309.359C411.562 309.359 412.479 309.479 413.265 309.72C414.05 309.96 414.653 310.306 415.075 310.757C415.503 311.202 415.717 311.732 415.717 312.348C415.717 312.969 415.503 313.505 415.075 313.956C414.653 314.407 414.05 314.753 413.265 314.993C412.479 315.233 411.562 315.354 410.514 315.354C409.453 315.354 408.53 315.233 407.745 314.993C406.96 314.753 406.354 314.407 405.926 313.956C405.504 313.505 405.293 312.969 405.293 312.348C405.293 311.732 405.504 311.202 405.926 310.757C406.354 310.306 406.96 309.96 407.745 309.72C408.53 309.479 409.453 309.359 410.514 309.359ZM410.514 310.467C409.734 310.461 409.052 310.534 408.466 310.687C407.886 310.833 407.438 311.05 407.121 311.337C406.805 311.624 406.646 311.961 406.646 312.348C406.646 312.734 406.805 313.071 407.121 313.358C407.438 313.64 407.886 313.854 408.466 314C409.046 314.152 409.729 314.229 410.514 314.229C411.287 314.229 411.961 314.152 412.535 314C413.109 313.854 413.552 313.64 413.862 313.358C414.179 313.071 414.34 312.734 414.346 312.348C414.34 311.961 414.179 311.624 413.862 311.337C413.546 311.05 413.101 310.833 412.526 310.687C411.952 310.534 411.281 310.461 410.514 310.467ZM43.5879 334.271H42.1992V330.703H39.5449V329.561H42.1992V324.797H43.5879V334.271ZM43.5879 340.213H33.375V335.115H43.5879V340.213ZM34.7461 339.088H42.2344V336.223H34.7461V339.088ZM39.7734 327.574H30.6504V326.449H34.5352V324.656H35.8887V326.449H39.7734V327.574ZM35.2031 328.383C35.9062 328.383 36.5303 328.5 37.0752 328.734C37.626 328.969 38.0566 329.297 38.3672 329.719C38.6777 330.141 38.8359 330.621 38.8418 331.16C38.8359 331.717 38.6777 332.206 38.3672 332.628C38.0625 333.05 37.6348 333.378 37.084 333.612C36.5332 333.841 35.9062 333.955 35.2031 333.955C34.5 333.955 33.873 333.841 33.3223 333.612C32.7773 333.378 32.3496 333.05 32.0391 332.628C31.7344 332.206 31.582 331.717 31.582 331.16C31.582 330.621 31.7344 330.141 32.0391 329.719C32.3496 329.297 32.7773 328.969 33.3223 328.734C33.873 328.5 34.5 328.383 35.2031 328.383ZM35.2031 329.455C34.7578 329.455 34.3594 329.528 34.0078 329.675C33.6621 329.815 33.3896 330.018 33.1904 330.281C32.9971 330.539 32.9004 330.832 32.9004 331.16C32.9004 331.5 32.9971 331.802 33.1904 332.065C33.3838 332.323 33.6533 332.525 33.999 332.672C34.3506 332.818 34.752 332.895 35.2031 332.9C35.6543 332.895 36.0527 332.818 36.3984 332.672C36.75 332.525 37.0225 332.323 37.2158 332.065C37.4092 331.802 37.5059 331.5 37.5059 331.16C37.5059 330.832 37.4062 330.539 37.207 330.281C37.0137 330.018 36.7412 329.815 36.3896 329.675C36.0439 329.528 35.6484 329.455 35.2031 329.455ZM53.3086 325.078C54.4688 325.078 55.4619 325.184 56.2881 325.395C57.1143 325.6 57.7441 325.904 58.1777 326.309C58.6113 326.707 58.8281 327.193 58.8281 327.768C58.8281 328.646 58.3477 329.32 57.3867 329.789C56.4258 330.258 55.0664 330.498 53.3086 330.51C52.1484 330.504 51.1523 330.396 50.3203 330.185C49.4941 329.974 48.8613 329.666 48.4219 329.262C47.9883 328.852 47.7715 328.354 47.7715 327.768C47.7715 327.193 47.9883 326.707 48.4219 326.309C48.8613 325.904 49.4941 325.6 50.3203 325.395C51.1523 325.184 52.1484 325.078 53.3086 325.078ZM53.3086 326.115C52.4473 326.115 51.709 326.183 51.0938 326.317C50.4785 326.446 50.0098 326.637 49.6875 326.889C49.3652 327.135 49.207 327.428 49.2129 327.768C49.207 328.307 49.5615 328.723 50.2764 329.016C50.9912 329.309 52.002 329.455 53.3086 329.455C54.6094 329.455 55.6201 329.309 56.3408 329.016C57.0615 328.723 57.4219 328.307 57.4219 327.768C57.4219 327.428 57.2578 327.135 56.9297 326.889C56.6016 326.643 56.1299 326.452 55.5146 326.317C54.8994 326.183 54.1641 326.115 53.3086 326.115ZM60.4277 332.689H46.1895V331.564H60.4277V332.689ZM58.5996 337.541H49.3184V339.158H59.0742V340.248H47.9473V336.521H57.2461V335.098H47.9121V334.043H58.5996V337.541ZM80.5723 338.42H66.2637V337.277H72.6973V333.902H67.9512V325.904H69.3398V328.734H77.4609V325.904H78.8145V333.902H74.0508V337.277H80.5723V338.42ZM77.4609 332.777V329.859H69.3398V332.777H77.4609ZM96.1113 334.852H92.332V340.424H90.9434V334.852H86.9355V340.424H85.5117V334.852H81.8027V333.709H96.1113V334.852ZM88.9219 325.43C90.0117 325.43 90.9727 325.57 91.8047 325.852C92.6367 326.127 93.2812 326.522 93.7383 327.038C94.1953 327.554 94.4238 328.154 94.4238 328.84C94.4238 329.525 94.1924 330.123 93.7295 330.633C93.2725 331.143 92.6279 331.535 91.7959 331.811C90.9697 332.086 90.0117 332.221 88.9219 332.215C87.832 332.221 86.8711 332.086 86.0391 331.811C85.2129 331.535 84.5684 331.143 84.1055 330.633C83.6484 330.123 83.4199 329.525 83.4199 328.84C83.4199 328.154 83.6484 327.554 84.1055 327.038C84.5625 326.522 85.207 326.127 86.0391 325.852C86.8711 325.57 87.832 325.43 88.9219 325.43ZM88.9219 326.555C88.1133 326.555 87.3984 326.648 86.7773 326.836C86.1621 327.023 85.6846 327.29 85.3447 327.636C85.0049 327.981 84.8379 328.383 84.8438 328.84C84.8379 329.297 85.0049 329.698 85.3447 330.044C85.6846 330.384 86.1621 330.647 86.7773 330.835C87.3984 331.017 88.1133 331.107 88.9219 331.107C89.7246 331.107 90.4365 331.017 91.0576 330.835C91.6787 330.647 92.1592 330.384 92.499 330.044C92.8447 329.698 93.0176 329.297 93.0176 328.84C93.0176 328.383 92.8447 327.981 92.499 327.636C92.1592 327.29 91.6787 327.023 91.0576 326.836C90.4365 326.648 89.7246 326.555 88.9219 326.555ZM109.471 331.248H112.09V332.391H109.471V340.424H108.1V324.797H109.471V331.248ZM106.588 328.453H97.2891V327.311H101.314V324.99H102.686V327.311H106.588V328.453ZM102.018 329.754C102.75 329.754 103.406 329.906 103.986 330.211C104.566 330.516 105.021 330.94 105.349 331.485C105.677 332.03 105.844 332.648 105.85 333.34C105.844 334.031 105.677 334.649 105.349 335.194C105.021 335.739 104.566 336.164 103.986 336.469C103.406 336.773 102.75 336.926 102.018 336.926C101.279 336.926 100.617 336.773 100.031 336.469C99.4512 336.164 98.9971 335.739 98.6689 335.194C98.3408 334.649 98.1797 334.031 98.1855 333.34C98.1797 332.648 98.3408 332.03 98.6689 331.485C98.9971 330.94 99.4512 330.516 100.031 330.211C100.617 329.906 101.279 329.754 102.018 329.754ZM102.018 330.914C101.537 330.914 101.104 331.02 100.717 331.23C100.336 331.436 100.037 331.723 99.8203 332.092C99.6035 332.461 99.498 332.877 99.5039 333.34C99.498 333.809 99.6035 334.228 99.8203 334.597C100.037 334.96 100.336 335.244 100.717 335.449C101.104 335.654 101.537 335.754 102.018 335.748C102.492 335.754 102.92 335.654 103.301 335.449C103.682 335.244 103.98 334.96 104.197 334.597C104.414 334.228 104.525 333.809 104.531 333.34C104.525 332.877 104.414 332.461 104.197 332.092C103.98 331.723 103.682 331.436 103.301 331.23C102.92 331.02 102.492 330.914 102.018 330.914ZM125.467 327.943V328.137C125.455 329.426 125.414 330.583 125.344 331.608C125.279 332.628 125.127 333.809 124.887 335.15L123.48 334.992C123.668 334.066 123.803 333.193 123.885 332.373C123.973 331.553 124.025 330.823 124.043 330.185C124.066 329.546 124.078 328.799 124.078 327.943V327.521H114.445V326.379H125.467V327.943ZM127.172 338.209H112.934V337.066H118.523V331.477H119.877V337.066H127.172V338.209ZM138.299 335.291C138.299 336.012 138.489 336.706 138.87 337.374C139.257 338.042 139.808 338.578 140.522 338.982C140.997 338.684 141.407 338.326 141.753 337.91C142.099 337.488 142.359 337.052 142.535 336.601C142.711 336.144 142.799 335.707 142.799 335.291V334.43H144.152V335.291C144.152 335.83 144.278 336.357 144.53 336.873C144.788 337.383 145.157 337.843 145.638 338.253C146.118 338.657 146.684 338.971 147.334 339.193L146.648 340.213C145.881 339.943 145.225 339.551 144.68 339.035C144.135 338.52 143.725 337.928 143.449 337.26C143.191 337.928 142.819 338.534 142.333 339.079C141.847 339.624 141.258 340.043 140.566 340.336C139.834 340.055 139.219 339.647 138.721 339.114C138.229 338.587 137.859 337.98 137.613 337.295C137.326 337.945 136.916 338.525 136.383 339.035C135.85 339.545 135.217 339.938 134.484 340.213L133.781 339.193C134.42 338.953 134.977 338.625 135.451 338.209C135.932 337.787 136.301 337.321 136.559 336.812C136.822 336.302 136.957 335.795 136.963 335.291V334.43H138.299V335.291ZM145.91 333.744H144.539V324.814H145.91V333.744ZM137.473 325.729C138.258 325.729 138.961 325.884 139.582 326.194C140.203 326.499 140.689 326.93 141.041 327.486C141.393 328.037 141.568 328.67 141.568 329.385C141.568 330.088 141.393 330.715 141.041 331.266C140.689 331.816 140.203 332.244 139.582 332.549C138.961 332.854 138.258 333.006 137.473 333.006C136.688 333.006 135.984 332.854 135.363 332.549C134.742 332.244 134.256 331.816 133.904 331.266C133.553 330.715 133.377 330.088 133.377 329.385C133.377 328.67 133.553 328.037 133.904 327.486C134.256 326.93 134.742 326.499 135.363 326.194C135.984 325.884 136.688 325.729 137.473 325.729ZM137.473 326.906C136.945 326.9 136.471 327.003 136.049 327.214C135.633 327.425 135.308 327.721 135.073 328.102C134.839 328.477 134.725 328.904 134.73 329.385C134.725 329.859 134.839 330.284 135.073 330.659C135.308 331.034 135.633 331.327 136.049 331.538C136.471 331.749 136.945 331.857 137.473 331.863C137.994 331.857 138.463 331.749 138.879 331.538C139.295 331.327 139.62 331.034 139.854 330.659C140.095 330.284 140.215 329.859 140.215 329.385C140.215 328.904 140.095 328.477 139.854 328.102C139.62 327.721 139.295 327.425 138.879 327.214C138.463 327.003 137.994 326.9 137.473 326.906ZM155.684 325.816C156.768 325.816 157.743 325.995 158.61 326.353C159.478 326.71 160.157 327.214 160.649 327.864C161.147 328.515 161.396 329.262 161.396 330.105C161.396 330.955 161.147 331.708 160.649 332.364C160.157 333.015 159.478 333.519 158.61 333.876C157.743 334.228 156.768 334.4 155.684 334.395C154.6 334.4 153.624 334.228 152.757 333.876C151.89 333.519 151.207 333.015 150.709 332.364C150.217 331.708 149.971 330.955 149.971 330.105C149.971 329.262 150.217 328.515 150.709 327.864C151.207 327.214 151.89 326.71 152.757 326.353C153.624 325.995 154.6 325.816 155.684 325.816ZM155.684 326.941C154.852 326.936 154.099 327.067 153.425 327.337C152.757 327.606 152.232 327.984 151.852 328.471C151.471 328.951 151.283 329.496 151.289 330.105C151.283 330.727 151.471 331.277 151.852 331.758C152.232 332.238 152.757 332.61 153.425 332.874C154.099 333.138 154.852 333.27 155.684 333.27C156.51 333.27 157.254 333.138 157.916 332.874C158.584 332.61 159.108 332.238 159.489 331.758C159.87 331.277 160.061 330.727 160.061 330.105C160.061 329.496 159.87 328.951 159.489 328.471C159.108 327.984 158.584 327.606 157.916 327.337C157.254 327.067 156.51 326.936 155.684 326.941ZM162.873 338.35H148.564V337.189H162.873V338.35ZM171.873 328.559H175.705V324.797H177.076V340.459H175.705V334.008H171.873V336.469H164.754V326.361H171.873V328.559ZM166.125 335.361H170.537V327.451H166.125V335.361ZM175.705 332.865V329.701H171.873V332.865H175.705ZM180.873 342.604H179.572L180.539 337.822H182.244L180.873 342.604ZM200.895 331.16H203.426V332.32H200.895V340.424H199.523V324.797H200.895V331.16ZM196.852 326.484C196.852 328.811 196.269 330.92 195.103 332.812C193.937 334.699 192.129 336.246 189.68 337.453L188.906 336.363C190.916 335.361 192.472 334.125 193.573 332.654C194.675 331.178 195.305 329.508 195.463 327.645H189.627V326.484H196.852ZM218.596 333.727H204.357V332.602H210.791V330.703H206.168V325.43H216.838V326.572H207.539V329.561H216.979V330.703H212.162V332.602H218.596V333.727ZM216.855 340.547H215.484V336.381H205.939V335.256H216.855V340.547ZM225.293 327.258C225.287 327.99 225.445 328.69 225.768 329.358C226.09 330.021 226.544 330.601 227.13 331.099C227.722 331.597 228.398 331.975 229.16 332.232L228.387 333.305C227.52 332.977 226.761 332.505 226.11 331.89C225.46 331.274 224.968 330.557 224.634 329.736C224.3 330.674 223.787 331.494 223.096 332.197C222.404 332.895 221.59 333.422 220.652 333.779L219.896 332.654C220.693 332.373 221.394 331.969 221.997 331.441C222.606 330.908 223.078 330.287 223.412 329.578C223.746 328.863 223.916 328.107 223.922 327.311V325.693H225.293V327.258ZM232.869 334.061H231.48V329.297H228V328.154H231.48V324.797H232.869V334.061ZM227.684 334.518C228.768 334.518 229.702 334.635 230.487 334.869C231.272 335.098 231.873 335.435 232.289 335.88C232.711 336.319 232.922 336.85 232.922 337.471C232.922 338.086 232.711 338.61 232.289 339.044C231.873 339.483 231.272 339.817 230.487 340.046C229.702 340.274 228.768 340.389 227.684 340.389C226.6 340.389 225.665 340.274 224.88 340.046C224.095 339.817 223.491 339.483 223.069 339.044C222.653 338.61 222.445 338.086 222.445 337.471C222.445 336.85 222.653 336.319 223.069 335.88C223.491 335.435 224.095 335.098 224.88 334.869C225.665 334.635 226.6 334.518 227.684 334.518ZM227.684 335.607C226.893 335.607 226.204 335.684 225.618 335.836C225.032 335.982 224.584 336.196 224.273 336.478C223.963 336.759 223.811 337.09 223.816 337.471C223.811 337.84 223.963 338.162 224.273 338.438C224.584 338.707 225.032 338.915 225.618 339.062C226.204 339.208 226.893 339.281 227.684 339.281C228.475 339.281 229.16 339.208 229.74 339.062C230.326 338.915 230.774 338.707 231.085 338.438C231.396 338.162 231.551 337.84 231.551 337.471C231.551 337.09 231.396 336.759 231.085 336.478C230.774 336.196 230.326 335.982 229.74 335.836C229.16 335.684 228.475 335.607 227.684 335.607ZM252.645 329.947H247.793V331.934H254.227V333.076H239.988V331.934H246.422V329.947H241.939V325.148H243.311V328.84H252.645V329.947ZM252.662 335.748H250.236V339.088H252.785V340.213H241.447V339.088H243.996V335.748H241.588V334.641H252.662V335.748ZM248.883 339.088V335.748H245.367V339.088H248.883ZM269.783 334.166H255.545V333.041H269.783V334.166ZM268.201 340.09H257.391V335.537H258.779V338.93H268.201V340.09ZM262.664 325.359C263.777 325.354 264.75 325.474 265.582 325.72C266.414 325.966 267.056 326.323 267.507 326.792C267.958 327.255 268.184 327.809 268.184 328.453C268.184 329.098 267.958 329.654 267.507 330.123C267.056 330.586 266.414 330.943 265.582 331.195C264.75 331.441 263.777 331.564 262.664 331.564C261.539 331.564 260.561 331.441 259.729 331.195C258.896 330.943 258.255 330.586 257.804 330.123C257.353 329.654 257.127 329.098 257.127 328.453C257.127 327.809 257.353 327.255 257.804 326.792C258.255 326.323 258.896 325.966 259.729 325.72C260.561 325.474 261.539 325.354 262.664 325.359ZM262.664 326.467C261.832 326.467 261.105 326.549 260.484 326.713C259.863 326.871 259.383 327.1 259.043 327.398C258.709 327.697 258.545 328.049 258.551 328.453C258.545 328.857 258.709 329.209 259.043 329.508C259.383 329.807 259.863 330.038 260.484 330.202C261.105 330.36 261.832 330.439 262.664 330.439C263.49 330.439 264.214 330.36 264.835 330.202C265.456 330.038 265.934 329.807 266.268 329.508C266.607 329.209 266.777 328.857 266.777 328.453C266.777 328.049 266.607 327.697 266.268 327.398C265.934 327.1 265.456 326.871 264.835 326.713C264.214 326.549 263.49 326.467 262.664 326.467ZM286.307 326.273V334.693C286.307 335.561 286.102 336.34 285.691 337.031C285.281 337.717 284.701 338.256 283.951 338.648C283.201 339.035 282.334 339.229 281.35 339.229C280.365 339.229 279.498 339.035 278.748 338.648C277.998 338.256 277.418 337.717 277.008 337.031C276.598 336.34 276.393 335.561 276.393 334.693V326.273H277.975V334.57C277.975 335.186 278.109 335.733 278.379 336.214C278.654 336.694 279.047 337.072 279.557 337.348C280.066 337.617 280.664 337.752 281.35 337.752C282.041 337.752 282.639 337.617 283.143 337.348C283.652 337.072 284.042 336.694 284.312 336.214C284.587 335.733 284.725 335.186 284.725 334.57V326.273H286.307ZM290.701 339H289.119V326.273H290.701V339ZM309.615 327.188C309.615 328.195 309.589 329.089 309.536 329.868C309.489 330.647 309.366 331.535 309.167 332.531H311.496V333.674H305.045V340.459H303.656V333.674H297.258V332.531H307.77C307.98 331.535 308.112 330.645 308.165 329.859C308.218 329.074 308.244 328.184 308.244 327.188V326.959H299.051V325.816H309.615V327.188ZM318.193 327.258C318.188 327.99 318.346 328.69 318.668 329.358C318.99 330.021 319.444 330.601 320.03 331.099C320.622 331.597 321.299 331.975 322.061 332.232L321.287 333.305C320.42 332.977 319.661 332.505 319.011 331.89C318.36 331.274 317.868 330.557 317.534 329.736C317.2 330.674 316.688 331.494 315.996 332.197C315.305 332.895 314.49 333.422 313.553 333.779L312.797 332.654C313.594 332.373 314.294 331.969 314.897 331.441C315.507 330.908 315.979 330.287 316.312 329.578C316.646 328.863 316.816 328.107 316.822 327.311V325.693H318.193V327.258ZM325.77 334.061H324.381V329.297H320.9V328.154H324.381V324.797H325.77V334.061ZM320.584 334.518C321.668 334.518 322.603 334.635 323.388 334.869C324.173 335.098 324.773 335.435 325.189 335.88C325.611 336.319 325.822 336.85 325.822 337.471C325.822 338.086 325.611 338.61 325.189 339.044C324.773 339.483 324.173 339.817 323.388 340.046C322.603 340.274 321.668 340.389 320.584 340.389C319.5 340.389 318.565 340.274 317.78 340.046C316.995 339.817 316.392 339.483 315.97 339.044C315.554 338.61 315.346 338.086 315.346 337.471C315.346 336.85 315.554 336.319 315.97 335.88C316.392 335.435 316.995 335.098 317.78 334.869C318.565 334.635 319.5 334.518 320.584 334.518ZM320.584 335.607C319.793 335.607 319.104 335.684 318.519 335.836C317.933 335.982 317.484 336.196 317.174 336.478C316.863 336.759 316.711 337.09 316.717 337.471C316.711 337.84 316.863 338.162 317.174 338.438C317.484 338.707 317.933 338.915 318.519 339.062C319.104 339.208 319.793 339.281 320.584 339.281C321.375 339.281 322.061 339.208 322.641 339.062C323.227 338.915 323.675 338.707 323.985 338.438C324.296 338.162 324.451 337.84 324.451 337.471C324.451 337.09 324.296 336.759 323.985 336.478C323.675 336.196 323.227 335.982 322.641 335.836C322.061 335.684 321.375 335.607 320.584 335.607ZM341.766 340.424H340.43V324.797H341.766V340.424ZM338.619 339.633H337.301V332.039H335.288C335.241 333.047 335.074 333.923 334.787 334.667C334.5 335.405 334.11 335.977 333.618 336.381C333.126 336.779 332.561 336.979 331.922 336.979C331.248 336.979 330.656 336.759 330.146 336.319C329.643 335.874 329.253 335.241 328.978 334.421C328.702 333.601 328.564 332.643 328.564 331.547C328.564 330.451 328.702 329.493 328.978 328.673C329.253 327.853 329.643 327.223 330.146 326.783C330.656 326.338 331.248 326.115 331.922 326.115C332.549 326.115 333.105 326.309 333.592 326.695C334.078 327.082 334.465 327.636 334.752 328.356C335.045 329.077 335.221 329.924 335.279 330.896H337.301V325.131H338.619V339.633ZM331.922 327.416C331.5 327.416 331.134 327.583 330.823 327.917C330.513 328.251 330.272 328.731 330.103 329.358C329.938 329.979 329.859 330.709 329.865 331.547C329.859 332.385 329.938 333.114 330.103 333.735C330.272 334.356 330.513 334.834 330.823 335.168C331.14 335.502 331.506 335.666 331.922 335.66C332.338 335.666 332.701 335.502 333.012 335.168C333.328 334.834 333.571 334.356 333.741 333.735C333.911 333.114 333.996 332.385 333.996 331.547C333.996 330.703 333.911 329.971 333.741 329.35C333.571 328.729 333.331 328.251 333.021 327.917C332.71 327.583 332.344 327.416 331.922 327.416ZM360.662 328.875H363.018V330.018H360.662V334.184H359.291V324.797H360.662V328.875ZM356.408 325.957C356.408 327.264 356.112 328.459 355.521 329.543C354.929 330.627 354.082 331.564 352.98 332.355C351.879 333.141 350.566 333.756 349.043 334.201L348.463 333.076C349.717 332.713 350.812 332.238 351.75 331.652C352.688 331.061 353.426 330.378 353.965 329.604C354.51 328.831 354.829 327.996 354.923 327.1H349.148V325.957H356.408ZM355.723 334.359C356.766 334.359 357.671 334.482 358.438 334.729C359.212 334.969 359.804 335.314 360.214 335.766C360.63 336.217 360.838 336.75 360.838 337.365C360.838 337.992 360.63 338.534 360.214 338.991C359.804 339.442 359.212 339.788 358.438 340.028C357.671 340.269 356.766 340.389 355.723 340.389C354.686 340.389 353.78 340.269 353.007 340.028C352.239 339.788 351.645 339.442 351.223 338.991C350.807 338.534 350.602 337.992 350.607 337.365C350.602 336.75 350.807 336.217 351.223 335.766C351.645 335.314 352.242 334.969 353.016 334.729C353.789 334.482 354.691 334.359 355.723 334.359ZM355.723 335.467C354.967 335.461 354.305 335.534 353.736 335.687C353.174 335.839 352.737 336.062 352.427 336.354C352.122 336.642 351.973 336.979 351.979 337.365C351.973 337.752 352.122 338.092 352.427 338.385C352.731 338.672 353.168 338.892 353.736 339.044C354.305 339.202 354.967 339.281 355.723 339.281C356.484 339.281 357.149 339.202 357.718 339.044C358.286 338.892 358.726 338.672 359.036 338.385C359.347 338.092 359.502 337.752 359.502 337.365C359.502 336.979 359.347 336.642 359.036 336.354C358.726 336.062 358.286 335.839 357.718 335.687C357.149 335.534 356.484 335.461 355.723 335.467ZM376.957 333.955H375.568V329.877H372.404V328.717H375.568V324.797H376.957V333.955ZM376.957 340.213H366.744V334.729H376.957V340.213ZM368.115 339.088H375.604V335.836H368.115V339.088ZM369.434 327.574C369.434 328.242 369.595 328.893 369.917 329.525C370.239 330.158 370.693 330.724 371.279 331.222C371.865 331.714 372.533 332.092 373.283 332.355L372.562 333.445C371.689 333.129 370.922 332.66 370.26 332.039C369.604 331.412 369.105 330.691 368.766 329.877C368.426 330.779 367.91 331.573 367.219 332.259C366.527 332.944 365.719 333.457 364.793 333.797L364.072 332.707C364.834 332.432 365.517 332.033 366.12 331.512C366.724 330.984 367.195 330.381 367.535 329.701C367.875 329.016 368.045 328.307 368.045 327.574V326.959H364.512V325.816H372.932V326.959H369.434V327.574ZM392.443 340.459H391.055V324.797H392.443V340.459ZM384.129 326.01C384.902 326.016 385.591 326.244 386.194 326.695C386.798 327.141 387.27 327.773 387.609 328.594C387.949 329.414 388.119 330.369 388.119 331.459C388.119 332.549 387.949 333.504 387.609 334.324C387.27 335.145 386.798 335.777 386.194 336.223C385.591 336.668 384.902 336.891 384.129 336.891C383.355 336.891 382.664 336.668 382.055 336.223C381.451 335.777 380.979 335.145 380.64 334.324C380.306 333.504 380.139 332.549 380.139 331.459C380.139 330.369 380.306 329.414 380.64 328.594C380.979 327.773 381.451 327.141 382.055 326.695C382.658 326.244 383.35 326.016 384.129 326.01ZM384.129 327.24C383.607 327.246 383.145 327.425 382.74 327.776C382.342 328.122 382.031 328.614 381.809 329.253C381.586 329.886 381.475 330.621 381.475 331.459C381.475 332.297 381.586 333.035 381.809 333.674C382.031 334.307 382.345 334.796 382.749 335.142C383.153 335.487 383.613 335.66 384.129 335.66C384.645 335.66 385.104 335.487 385.509 335.142C385.913 334.796 386.227 334.307 386.449 333.674C386.672 333.035 386.783 332.297 386.783 331.459C386.783 330.621 386.672 329.886 386.449 329.253C386.227 328.614 385.913 328.122 385.509 327.776C385.11 327.425 384.65 327.246 384.129 327.24ZM404.924 335.291C404.924 336.012 405.114 336.706 405.495 337.374C405.882 338.042 406.433 338.578 407.147 338.982C407.622 338.684 408.032 338.326 408.378 337.91C408.724 337.488 408.984 337.052 409.16 336.601C409.336 336.144 409.424 335.707 409.424 335.291V334.43H410.777V335.291C410.777 335.83 410.903 336.357 411.155 336.873C411.413 337.383 411.782 337.843 412.263 338.253C412.743 338.657 413.309 338.971 413.959 339.193L413.273 340.213C412.506 339.943 411.85 339.551 411.305 339.035C410.76 338.52 410.35 337.928 410.074 337.26C409.816 337.928 409.444 338.534 408.958 339.079C408.472 339.624 407.883 340.043 407.191 340.336C406.459 340.055 405.844 339.647 405.346 339.114C404.854 338.587 404.484 337.98 404.238 337.295C403.951 337.945 403.541 338.525 403.008 339.035C402.475 339.545 401.842 339.938 401.109 340.213L400.406 339.193C401.045 338.953 401.602 338.625 402.076 338.209C402.557 337.787 402.926 337.321 403.184 336.812C403.447 336.302 403.582 335.795 403.588 335.291V334.43H404.924V335.291ZM412.535 333.744H411.164V324.814H412.535V333.744ZM404.098 325.729C404.883 325.729 405.586 325.884 406.207 326.194C406.828 326.499 407.314 326.93 407.666 327.486C408.018 328.037 408.193 328.67 408.193 329.385C408.193 330.088 408.018 330.715 407.666 331.266C407.314 331.816 406.828 332.244 406.207 332.549C405.586 332.854 404.883 333.006 404.098 333.006C403.312 333.006 402.609 332.854 401.988 332.549C401.367 332.244 400.881 331.816 400.529 331.266C400.178 330.715 400.002 330.088 400.002 329.385C400.002 328.67 400.178 328.037 400.529 327.486C400.881 326.93 401.367 326.499 401.988 326.194C402.609 325.884 403.312 325.729 404.098 325.729ZM404.098 326.906C403.57 326.9 403.096 327.003 402.674 327.214C402.258 327.425 401.933 327.721 401.698 328.102C401.464 328.477 401.35 328.904 401.355 329.385C401.35 329.859 401.464 330.284 401.698 330.659C401.933 331.034 402.258 331.327 402.674 331.538C403.096 331.749 403.57 331.857 404.098 331.863C404.619 331.857 405.088 331.749 405.504 331.538C405.92 331.327 406.245 331.034 406.479 330.659C406.72 330.284 406.84 329.859 406.84 329.385C406.84 328.904 406.72 328.477 406.479 328.102C406.245 327.721 405.92 327.425 405.504 327.214C405.088 327.003 404.619 326.9 404.098 326.906ZM33.8145 361.012H41.6191V359.184H43.0078V365.213H32.4434V359.184H33.8145V361.012ZM41.6191 364.105V362.102H33.8145V364.105H41.6191ZM44.8711 358.076H30.6328V356.934H44.8711V358.076ZM38.4727 350.711C38.4727 351.332 38.7422 351.93 39.2812 352.504C39.8203 353.072 40.5205 353.556 41.3818 353.954C42.249 354.347 43.1426 354.602 44.0625 354.719L43.5527 355.826C42.7383 355.703 41.9473 355.489 41.1797 355.185C40.418 354.874 39.7383 354.487 39.1406 354.024C38.543 353.562 38.083 353.046 37.7607 352.478C37.4385 353.046 36.9756 353.562 36.3721 354.024C35.7744 354.487 35.0947 354.874 34.333 355.185C33.5713 355.489 32.7832 355.703 31.9688 355.826L31.4414 354.719C32.3789 354.596 33.2783 354.341 34.1396 353.954C35.0068 353.562 35.707 353.084 36.2402 352.521C36.7793 351.953 37.0488 351.35 37.0488 350.711V349.973H38.4727V350.711ZM59.0742 365.424H57.7031V349.797H59.0742V365.424ZM48.5625 360.203C51.2051 360.191 53.6953 359.939 56.0332 359.447L56.2266 360.625C54.8965 360.9 53.6016 361.1 52.3418 361.223C51.082 361.34 49.793 361.398 48.4746 361.398H47.209V351.344H48.5625V360.203ZM73.8398 355.984H76.459V357.145H73.8398V365.459H72.4688V349.797H73.8398V355.984ZM69.7266 352.469H63.8027V360.379C65.2617 360.379 66.5361 360.338 67.626 360.256C68.7158 360.174 69.8262 360.027 70.957 359.816L71.1328 361.012C69.9785 361.223 68.8447 361.363 67.7314 361.434C66.6182 361.504 65.2617 361.539 63.6621 361.539H62.4316V351.326H69.7266V352.469ZM78.9551 364.105C78.75 364.105 78.5596 364.056 78.3838 363.956C78.2139 363.851 78.0762 363.71 77.9707 363.534C77.8711 363.358 77.8242 363.168 77.8301 362.963C77.8242 362.764 77.8711 362.579 77.9707 362.409C78.0762 362.233 78.2139 362.096 78.3838 361.996C78.5596 361.891 78.75 361.838 78.9551 361.838C79.1543 361.838 79.3389 361.891 79.5088 361.996C79.6846 362.096 79.8223 362.233 79.9219 362.409C80.0273 362.579 80.0801 362.764 80.0801 362.963C80.0801 363.168 80.0273 363.358 79.9219 363.534C79.8223 363.71 79.6846 363.851 79.5088 363.956C79.3389 364.056 79.1543 364.105 78.9551 364.105Z" fill="black"/>
<rect y="180" width="10" height="10" rx="5" fill="#141414"/>
<rect width="435" height="1" transform="translate(7.5 184.5)" fill="#141414"/>
<rect x="440" y="180" width="10" height="10" rx="5" fill="#141414"/>
<g clip-path="url(#clip0_360_396)">
<path d="M129.531 30H60.4688C43.6413 30 30 43.6413 30 60.4688V129.531C30 146.359 43.6413 160 60.4688 160H129.531C146.359 160 160 146.359 160 129.531V60.4688C160 43.6413 146.359 30 129.531 30Z" fill="#141414"/>
<mask id="mask0_360_396" style="mask-type:luminance" maskUnits="userSpaceOnUse" x="60" y="44" width="69" height="102">
<path d="M60.9766 44.2188H128.698V145.781H60.9766V44.2188Z" fill="white"/>
</mask>
<g mask="url(#mask0_360_396)">
<path d="M77.9106 145.781C87.2543 145.781 94.8375 138.198 94.8375 128.854V111.927H77.9106C68.5668 111.927 60.9832 119.51 60.9832 128.854C60.9832 138.198 68.5668 145.781 77.9106 145.781Z" fill="#EBEBEB"/>
<path d="M60.9832 95.0002C60.9832 85.6564 68.5668 78.0732 77.9106 78.0732H94.8375V111.927H77.9106C68.5668 111.927 60.9832 104.344 60.9832 95.0002Z" fill="#EBEBEB"/>
<path d="M60.9832 61.1457C60.9832 51.8019 68.5668 44.2188 77.9106 44.2188H94.8375V78.0731H77.9106C68.5668 78.0731 60.9832 70.4894 60.9832 61.1457Z" fill="#EBEBEB"/>
<path d="M94.8375 44.2188H111.764C121.108 44.2188 128.692 51.8019 128.692 61.1457C128.692 70.4894 121.108 78.0731 111.764 78.0731H94.8375V44.2188Z" fill="#F5F5F5"/>
<path d="M128.692 95.0002C128.692 104.344 121.108 111.927 111.764 111.927C102.421 111.927 94.8375 104.344 94.8375 95.0002C94.8375 85.6564 102.421 78.0732 111.764 78.0732C121.108 78.0732 128.692 85.6564 128.692 95.0002Z" fill="#F5F5F5"/>
</g>
</g>
<defs>
<clipPath id="clip0_360_396">
<rect width="130" height="130" fill="white" transform="translate(30 30)"/>
</clipPath>
</defs>
</svg>
